M48
METRIC,LZ,000.000
;FILE_FORMAT=3:3
;TYPE=PLATED
;Layer: PTH_Through
;EasyEDA v6.5.48, 2025-01-21 18:12:01
;3cc8b20af66c43ca95afa0c2ca323a4b,765c05e22f3a42938d5e8e897a1d4f6f,10
;Gerber Generator version 0.2
;Holesize 1 = 0.800 mm
T01C0.800
;Holesize 2 = 0.850 mm
T02C0.850
;Holesize 3 = 0.889 mm
T03C0.889
;Holesize 4 = 0.951 mm
T04C0.951
;Holesize 5 = 1.000 mm
T05C1.000
%
G05
G90
T01
X059700Y-031870
X057700Y-031870
X116130Y-019940
X114130Y-019940
T02
X037630Y-006320
X035630Y-006320
T03
X061070Y-066830
X063610Y-066830
X066150Y-066830
X077310Y-066980
X079850Y-066980
X082390Y-066980
X093350Y-066910
X095890Y-066910
X098430Y-066910
X108660Y-066590
X111200Y-066590
X113740Y-066590
X109030Y-011400
X111570Y-011400
X114110Y-011400
X095630Y-011340
X098170Y-011340
X100710Y-011340
X080930Y-011380
X083470Y-011380
X086010Y-011380
X062800Y-011620
X065340Y-011620
X067880Y-011620
X115880Y-034880
X113340Y-034880
X110800Y-034880
X108260Y-034880
X105720Y-034880
X103180Y-034880
T04
X113835Y-059020G85X113830Y-059020
X108755Y-059020G85X108750Y-059020
X106215Y-059020G85X106210Y-059020
X111295Y-059020G85X111290Y-059020
X103675Y-059020G85X103670Y-059020
X111295Y-043780G85X111290Y-043780
X113835Y-043780G85X113830Y-043780
X101135Y-059020G85X101130Y-059020
X101135Y-043780G85X101130Y-043780
X103675Y-043780G85X103670Y-043780
X106215Y-043780G85X106210Y-043780
X108755Y-043780G85X108750Y-043780
X098595Y-059020G85X098590Y-059020
X093515Y-059020G85X093510Y-059020
X090975Y-059020G85X090970Y-059020
X088435Y-059020G85X088430Y-059020
X085895Y-059020G85X085890Y-059020
X083355Y-059020G85X083350Y-059020
X080815Y-059020G85X080810Y-059020
X078275Y-059020G85X078270Y-059020
X075735Y-059020G85X075730Y-059020
X073195Y-059020G85X073190Y-059020
X070655Y-059020G85X070650Y-059020
X068115Y-059020G85X068110Y-059020
X065575Y-059020G85X065570Y-059020
X063035Y-059020G85X063030Y-059020
X060495Y-059020G85X060490Y-059020
X057955Y-059020G85X057950Y-059020
X055415Y-059020G85X055410Y-059020
X055415Y-043780G85X055410Y-043780
X057955Y-043780G85X057950Y-043780
X060495Y-043780G85X060490Y-043780
X063035Y-043780G85X063030Y-043780
X065575Y-043780G85X065570Y-043780
X068115Y-043780G85X068110Y-043780
X070655Y-043780G85X070650Y-043780
X073195Y-043780G85X073190Y-043780
X075735Y-043780G85X075730Y-043780
X078275Y-043780G85X078270Y-043780
X080815Y-043780G85X080810Y-043780
X083355Y-043780G85X083350Y-043780
X085895Y-043780G85X085890Y-043780
X088435Y-043780G85X088430Y-043780
X090975Y-043780G85X090970Y-043780
X093515Y-043780G85X093510Y-043780
X098595Y-043780G85X098590Y-043780
X096055Y-043780G85X096050Y-043780
X096055Y-059020G85X096050Y-059020
T05
X103207Y-028920G85X103212Y-028920
X103207Y-026380G85X103212Y-026380
X011427Y-024310G85X011433Y-024310
X011427Y-021770G85X011433Y-021770
X015823Y-074160
X015823Y-063619
X033857Y-074160
X033857Y-063619
X001521Y-037649
X001521Y-051649
X024381Y-037649
X024381Y-051619
X024381Y-040824
X024381Y-048444
X011390Y-030532G85X011390Y-030527
X008850Y-030532G85X008850Y-030527
X044100Y-050300
X044100Y-046800
M30
