G04 Layer: TopPasteMaskLayer*
G04 EasyEDA v6.5.48, 2025-01-21 18:12:01*
G04 3cc8b20af66c43ca95afa0c2ca323a4b,765c05e22f3a42938d5e8e897a1d4f6f,10*
G04 Gerber Generator version 0.2*
G04 Scale: 100 percent, Rotated: No, Reflected: No *
G04 Dimensions in millimeters *
G04 leading zeros omitted , absolute positions ,4 integer and 5 decimal *
%FSLAX45Y45*%
%MOMM*%

%ADD10R,1.6500X4.5000*%
%ADD11R,4.5000X1.6500*%

%LPD*%
G36*
X1404620Y-1376019D02*
G01*
X1394612Y-1385976D01*
X1394612Y-1514500D01*
X1404620Y-1524508D01*
X1557375Y-1524508D01*
X1567383Y-1514500D01*
X1567383Y-1385976D01*
X1557375Y-1376019D01*
X1520393Y-1376019D01*
X1510385Y-1385976D01*
X1510385Y-1416507D01*
X1500378Y-1426514D01*
X1461617Y-1426514D01*
X1451610Y-1416507D01*
X1451610Y-1385976D01*
X1441602Y-1376019D01*
G37*
G36*
X1404620Y-1057503D02*
G01*
X1394612Y-1067511D01*
X1394612Y-1195984D01*
X1404620Y-1205992D01*
X1441602Y-1205992D01*
X1451610Y-1195984D01*
X1451610Y-1165504D01*
X1461617Y-1155496D01*
X1500378Y-1155496D01*
X1510385Y-1165504D01*
X1510385Y-1195984D01*
X1520393Y-1205992D01*
X1557375Y-1205992D01*
X1567383Y-1195984D01*
X1567383Y-1067511D01*
X1557375Y-1057503D01*
G37*
G36*
X4785969Y-7342581D02*
G01*
X4776012Y-7352588D01*
X4776012Y-7389622D01*
X4785969Y-7399629D01*
X4816500Y-7399629D01*
X4826508Y-7409586D01*
X4826508Y-7448346D01*
X4816500Y-7458354D01*
X4785969Y-7458354D01*
X4776012Y-7468362D01*
X4776012Y-7505395D01*
X4785969Y-7515402D01*
X4914493Y-7515402D01*
X4924501Y-7505395D01*
X4924501Y-7352588D01*
X4914493Y-7342581D01*
G37*
G36*
X4467504Y-7342581D02*
G01*
X4457496Y-7352588D01*
X4457496Y-7505395D01*
X4467504Y-7515402D01*
X4595977Y-7515402D01*
X4605985Y-7505395D01*
X4605985Y-7468362D01*
X4595977Y-7458354D01*
X4565497Y-7458354D01*
X4555490Y-7448346D01*
X4555490Y-7409586D01*
X4565497Y-7399629D01*
X4595977Y-7399629D01*
X4605985Y-7389622D01*
X4605985Y-7352588D01*
X4595977Y-7342581D01*
G37*
G36*
X725576Y-6608013D02*
G01*
X715619Y-6617970D01*
X715619Y-6746494D01*
X725576Y-6756501D01*
X878382Y-6756501D01*
X888390Y-6746494D01*
X888390Y-6617970D01*
X878382Y-6608013D01*
X841349Y-6608013D01*
X831392Y-6617970D01*
X831392Y-6648500D01*
X821385Y-6658457D01*
X782624Y-6658457D01*
X772617Y-6648500D01*
X772617Y-6617970D01*
X762609Y-6608013D01*
G37*
G36*
X725576Y-6289497D02*
G01*
X715619Y-6299504D01*
X715619Y-6427978D01*
X725576Y-6437985D01*
X762609Y-6437985D01*
X772617Y-6427978D01*
X772617Y-6397498D01*
X782624Y-6387490D01*
X821385Y-6387490D01*
X831392Y-6397498D01*
X831392Y-6427978D01*
X841349Y-6437985D01*
X878382Y-6437985D01*
X888390Y-6427978D01*
X888390Y-6299504D01*
X878382Y-6289497D01*
G37*
G36*
X5007610Y-4611471D02*
G01*
X4997602Y-4621479D01*
X4997602Y-4750003D01*
X5007610Y-4760010D01*
X5044592Y-4760010D01*
X5054600Y-4750003D01*
X5054600Y-4719523D01*
X5064607Y-4709515D01*
X5103368Y-4709515D01*
X5113375Y-4719523D01*
X5113375Y-4750003D01*
X5123383Y-4760010D01*
X5160365Y-4760010D01*
X5170373Y-4750003D01*
X5170373Y-4621479D01*
X5160365Y-4611471D01*
G37*
G36*
X5007610Y-4929987D02*
G01*
X4997602Y-4939995D01*
X4997602Y-5068468D01*
X5007610Y-5078476D01*
X5160365Y-5078476D01*
X5170373Y-5068468D01*
X5170373Y-4939995D01*
X5160365Y-4929987D01*
X5123383Y-4929987D01*
X5113375Y-4939995D01*
X5113375Y-4970475D01*
X5103368Y-4980482D01*
X5064607Y-4980482D01*
X5054600Y-4970475D01*
X5054600Y-4939995D01*
X5044592Y-4929987D01*
G37*
G36*
X5704484Y-3710584D02*
G01*
X5694476Y-3720592D01*
X5694476Y-3873398D01*
X5704484Y-3883406D01*
X5833008Y-3883406D01*
X5842965Y-3873398D01*
X5842965Y-3836365D01*
X5833008Y-3826357D01*
X5802477Y-3826357D01*
X5792520Y-3816350D01*
X5792520Y-3777640D01*
X5802477Y-3767632D01*
X5833008Y-3767632D01*
X5842965Y-3757625D01*
X5842965Y-3720592D01*
X5833008Y-3710584D01*
G37*
G36*
X6023000Y-3710584D02*
G01*
X6012992Y-3720592D01*
X6012992Y-3757625D01*
X6023000Y-3767632D01*
X6053480Y-3767632D01*
X6063488Y-3777640D01*
X6063488Y-3816350D01*
X6053480Y-3826357D01*
X6023000Y-3826357D01*
X6012992Y-3836365D01*
X6012992Y-3873398D01*
X6023000Y-3883406D01*
X6151473Y-3883406D01*
X6161481Y-3873398D01*
X6161481Y-3720592D01*
X6151473Y-3710584D01*
G37*
G36*
X11311991Y-2836570D02*
G01*
X11301984Y-2846578D01*
X11301984Y-2883611D01*
X11311991Y-2893618D01*
X11342471Y-2893618D01*
X11352479Y-2903626D01*
X11352479Y-2942386D01*
X11342471Y-2952394D01*
X11311991Y-2952394D01*
X11301984Y-2962351D01*
X11301984Y-2999384D01*
X11311991Y-3009392D01*
X11440464Y-3009392D01*
X11450472Y-2999384D01*
X11450472Y-2846578D01*
X11440464Y-2836570D01*
G37*
G36*
X10993475Y-2836570D02*
G01*
X10983468Y-2846578D01*
X10983468Y-2999384D01*
X10993475Y-3009392D01*
X11121999Y-3009392D01*
X11131956Y-2999384D01*
X11131956Y-2962351D01*
X11121999Y-2952394D01*
X11091468Y-2952394D01*
X11081512Y-2942386D01*
X11081512Y-2903626D01*
X11091468Y-2893618D01*
X11121999Y-2893618D01*
X11131956Y-2883611D01*
X11131956Y-2846578D01*
X11121999Y-2836570D01*
G37*
G36*
X196646Y-6609994D02*
G01*
X186639Y-6620002D01*
X186639Y-6748525D01*
X196646Y-6758482D01*
X349453Y-6758482D01*
X359460Y-6748525D01*
X359460Y-6620002D01*
X349453Y-6609994D01*
X312420Y-6609994D01*
X302412Y-6620002D01*
X302412Y-6650481D01*
X292404Y-6660489D01*
X253695Y-6660489D01*
X243687Y-6650481D01*
X243687Y-6620002D01*
X233679Y-6609994D01*
G37*
G36*
X196646Y-6291529D02*
G01*
X186639Y-6301486D01*
X186639Y-6430010D01*
X196646Y-6440017D01*
X233679Y-6440017D01*
X243687Y-6430010D01*
X243687Y-6399530D01*
X253695Y-6389522D01*
X292404Y-6389522D01*
X302412Y-6399530D01*
X302412Y-6430010D01*
X312420Y-6440017D01*
X349453Y-6440017D01*
X359460Y-6430010D01*
X359460Y-6301486D01*
X349453Y-6291529D01*
G37*
D10*
G01*
X2465984Y-550011D03*
G01*
X2465984Y-1449984D03*
D11*
G01*
X4858994Y-6370980D03*
G01*
X4018991Y-6370980D03*
M02*
