G04 Layer: TopSilkscreenLayer*
G04 EasyEDA v6.5.48, 2025-01-21 18:12:01*
G04 3cc8b20af66c43ca95afa0c2ca323a4b,765c05e22f3a42938d5e8e897a1d4f6f,10*
G04 Gerber Generator version 0.2*
G04 Scale: 100 percent, Rotated: No, Reflected: No *
G04 Dimensions in millimeters *
G04 leading zeros omitted , absolute positions ,4 integer and 5 decimal *
%FSLAX45Y45*%
%MOMM*%

%ADD10C,0.1524*%
%ADD11C,0.2032*%
%ADD12C,0.2540*%
%ADD13C,0.1520*%
%ADD14C,0.1200*%
%ADD15C,0.2000*%
%ADD16C,0.3000*%
%ADD17C,0.0109*%

%LPD*%
D10*
X5712272Y-6681716D02*
G01*
X5795330Y-6681716D01*
X5811078Y-6687050D01*
X5816158Y-6692130D01*
X5821238Y-6702544D01*
X5821238Y-6712958D01*
X5816158Y-6723372D01*
X5811078Y-6728706D01*
X5795330Y-6733786D01*
X5784916Y-6733786D01*
X5733100Y-6647426D02*
G01*
X5727766Y-6637266D01*
X5712272Y-6621518D01*
X5821238Y-6621518D01*
X7336269Y-6696717D02*
G01*
X7419327Y-6696717D01*
X7435075Y-6702051D01*
X7440155Y-6707131D01*
X7445235Y-6717545D01*
X7445235Y-6727959D01*
X7440155Y-6738373D01*
X7435075Y-6743707D01*
X7419327Y-6748787D01*
X7408913Y-6748787D01*
X7362177Y-6657347D02*
G01*
X7357097Y-6657347D01*
X7346683Y-6652267D01*
X7341349Y-6646933D01*
X7336269Y-6636519D01*
X7336269Y-6615691D01*
X7341349Y-6605277D01*
X7346683Y-6600197D01*
X7357097Y-6595117D01*
X7367511Y-6595117D01*
X7377925Y-6600197D01*
X7393419Y-6610611D01*
X7445235Y-6662427D01*
X7445235Y-6589783D01*
X8940264Y-6689717D02*
G01*
X9023322Y-6689717D01*
X9039070Y-6695051D01*
X9044150Y-6700131D01*
X9049230Y-6710545D01*
X9049230Y-6720959D01*
X9044150Y-6731373D01*
X9039070Y-6736707D01*
X9023322Y-6741787D01*
X9012908Y-6741787D01*
X8940264Y-6645267D02*
G01*
X8940264Y-6588117D01*
X8981920Y-6619105D01*
X8981920Y-6603611D01*
X8987000Y-6593197D01*
X8992080Y-6588117D01*
X9007828Y-6582783D01*
X9018242Y-6582783D01*
X9033736Y-6588117D01*
X9044150Y-6598277D01*
X9049230Y-6614025D01*
X9049230Y-6629519D01*
X9044150Y-6645267D01*
X9039070Y-6650347D01*
X9028656Y-6655427D01*
X10471261Y-6657715D02*
G01*
X10554319Y-6657715D01*
X10570067Y-6663049D01*
X10575147Y-6668129D01*
X10580227Y-6678543D01*
X10580227Y-6688957D01*
X10575147Y-6699371D01*
X10570067Y-6704705D01*
X10554319Y-6709785D01*
X10543905Y-6709785D01*
X10471261Y-6571609D02*
G01*
X10543905Y-6623425D01*
X10543905Y-6545701D01*
X10471261Y-6571609D02*
G01*
X10580227Y-6571609D01*
X10508261Y-1138727D02*
G01*
X10591319Y-1138727D01*
X10607067Y-1144061D01*
X10612147Y-1149141D01*
X10617227Y-1159555D01*
X10617227Y-1169969D01*
X10612147Y-1180383D01*
X10607067Y-1185717D01*
X10591319Y-1190797D01*
X10580905Y-1190797D01*
X10508261Y-1042207D02*
G01*
X10508261Y-1094277D01*
X10554997Y-1099357D01*
X10549917Y-1094277D01*
X10544583Y-1078529D01*
X10544583Y-1063035D01*
X10549917Y-1047287D01*
X10560077Y-1037127D01*
X10575825Y-1031793D01*
X10586239Y-1031793D01*
X10601733Y-1037127D01*
X10612147Y-1047287D01*
X10617227Y-1063035D01*
X10617227Y-1078529D01*
X10612147Y-1094277D01*
X10607067Y-1099357D01*
X10596653Y-1104437D01*
X9168264Y-1132728D02*
G01*
X9251322Y-1132728D01*
X9267070Y-1138062D01*
X9272150Y-1143142D01*
X9277230Y-1153556D01*
X9277230Y-1163970D01*
X9272150Y-1174384D01*
X9267070Y-1179718D01*
X9251322Y-1184798D01*
X9240908Y-1184798D01*
X9183758Y-1036208D02*
G01*
X9173344Y-1041288D01*
X9168264Y-1057036D01*
X9168264Y-1067450D01*
X9173344Y-1082944D01*
X9189092Y-1093358D01*
X9215000Y-1098438D01*
X9240908Y-1098438D01*
X9261736Y-1093358D01*
X9272150Y-1082944D01*
X9277230Y-1067450D01*
X9277230Y-1062116D01*
X9272150Y-1046622D01*
X9261736Y-1036208D01*
X9246242Y-1031128D01*
X9240908Y-1031128D01*
X9225414Y-1036208D01*
X9215000Y-1046622D01*
X9209920Y-1062116D01*
X9209920Y-1067450D01*
X9215000Y-1082944D01*
X9225414Y-1093358D01*
X9240908Y-1098438D01*
X7698267Y-1136728D02*
G01*
X7781325Y-1136728D01*
X7797073Y-1142062D01*
X7802153Y-1147142D01*
X7807233Y-1157556D01*
X7807233Y-1167970D01*
X7802153Y-1178384D01*
X7797073Y-1183718D01*
X7781325Y-1188798D01*
X7770911Y-1188798D01*
X7698267Y-1029794D02*
G01*
X7807233Y-1081864D01*
X7698267Y-1102438D02*
G01*
X7698267Y-1029794D01*
X5885271Y-1160726D02*
G01*
X5968329Y-1160726D01*
X5984077Y-1166060D01*
X5989157Y-1171140D01*
X5994237Y-1181554D01*
X5994237Y-1191968D01*
X5989157Y-1202382D01*
X5984077Y-1207716D01*
X5968329Y-1212796D01*
X5957915Y-1212796D01*
X5885271Y-1100528D02*
G01*
X5890351Y-1116276D01*
X5900765Y-1121356D01*
X5911179Y-1121356D01*
X5921593Y-1116276D01*
X5926927Y-1105862D01*
X5932007Y-1085034D01*
X5937087Y-1069286D01*
X5947501Y-1059126D01*
X5957915Y-1053792D01*
X5973663Y-1053792D01*
X5984077Y-1059126D01*
X5989157Y-1064206D01*
X5994237Y-1079700D01*
X5994237Y-1100528D01*
X5989157Y-1116276D01*
X5984077Y-1121356D01*
X5973663Y-1126436D01*
X5957915Y-1126436D01*
X5947501Y-1121356D01*
X5937087Y-1110942D01*
X5932007Y-1095448D01*
X5926927Y-1074620D01*
X5921593Y-1064206D01*
X5911179Y-1059126D01*
X5900765Y-1059126D01*
X5890351Y-1064206D01*
X5885271Y-1079700D01*
X5885271Y-1100528D01*
X11881093Y-3741994D02*
G01*
X11772127Y-3741994D01*
X11881093Y-3741994D02*
G01*
X11881093Y-3788730D01*
X11876013Y-3804224D01*
X11870679Y-3809558D01*
X11860265Y-3814638D01*
X11849851Y-3814638D01*
X11839437Y-3809558D01*
X11834357Y-3804224D01*
X11829277Y-3788730D01*
X11829277Y-3741994D02*
G01*
X11829277Y-3788730D01*
X11823943Y-3804224D01*
X11818863Y-3809558D01*
X11808449Y-3814638D01*
X11792701Y-3814638D01*
X11782287Y-3809558D01*
X11777207Y-3804224D01*
X11772127Y-3788730D01*
X11772127Y-3741994D01*
X11881093Y-3885504D02*
G01*
X11772127Y-3885504D01*
X11881093Y-3848928D02*
G01*
X11881093Y-3921826D01*
X11860265Y-3956116D02*
G01*
X11865599Y-3966530D01*
X11881093Y-3982024D01*
X11772127Y-3982024D01*
D11*
X11638780Y-3691194D02*
G01*
X11543276Y-3691194D01*
X11638780Y-3754948D02*
G01*
X11575026Y-3691194D01*
X11597886Y-3713800D02*
G01*
X11543276Y-3754948D01*
X11638780Y-3784920D02*
G01*
X11543276Y-3784920D01*
X11638780Y-3784920D02*
G01*
X11638780Y-3843848D01*
X11593314Y-3784920D02*
G01*
X11593314Y-3821242D01*
X11543276Y-3784920D02*
G01*
X11543276Y-3843848D01*
X11638780Y-3873820D02*
G01*
X11593314Y-3910396D01*
X11543276Y-3910396D01*
X11638780Y-3946718D02*
G01*
X11593314Y-3910396D01*
X11388587Y-3691194D02*
G01*
X11293083Y-3727516D01*
X11388587Y-3763838D02*
G01*
X11293083Y-3727516D01*
X11365727Y-3862136D02*
G01*
X11374871Y-3857564D01*
X11384015Y-3848420D01*
X11388587Y-3839276D01*
X11388587Y-3821242D01*
X11384015Y-3812098D01*
X11374871Y-3802954D01*
X11365727Y-3798382D01*
X11352265Y-3793810D01*
X11329405Y-3793810D01*
X11315689Y-3798382D01*
X11306799Y-3802954D01*
X11297655Y-3812098D01*
X11293083Y-3821242D01*
X11293083Y-3839276D01*
X11297655Y-3848420D01*
X11306799Y-3857564D01*
X11315689Y-3862136D01*
X11365727Y-3960180D02*
G01*
X11374871Y-3955862D01*
X11384015Y-3946718D01*
X11388587Y-3937574D01*
X11388587Y-3919286D01*
X11384015Y-3910396D01*
X11374871Y-3901252D01*
X11365727Y-3896680D01*
X11352265Y-3892108D01*
X11329405Y-3892108D01*
X11315689Y-3896680D01*
X11306799Y-3901252D01*
X11297655Y-3910396D01*
X11293083Y-3919286D01*
X11293083Y-3937574D01*
X11297655Y-3946718D01*
X11306799Y-3955862D01*
X11315689Y-3960180D01*
X11111727Y-3759266D02*
G01*
X11120871Y-3754948D01*
X11130015Y-3745804D01*
X11134587Y-3736660D01*
X11134587Y-3718372D01*
X11130015Y-3709482D01*
X11120871Y-3700338D01*
X11111727Y-3695766D01*
X11098265Y-3691194D01*
X11075405Y-3691194D01*
X11061689Y-3695766D01*
X11052799Y-3700338D01*
X11043655Y-3709482D01*
X11039083Y-3718372D01*
X11039083Y-3736660D01*
X11043655Y-3745804D01*
X11052799Y-3754948D01*
X11061689Y-3759266D01*
X11075405Y-3759266D01*
X11075405Y-3736660D02*
G01*
X11075405Y-3759266D01*
X11134587Y-3789492D02*
G01*
X11039083Y-3789492D01*
X11134587Y-3789492D02*
G01*
X11039083Y-3852992D01*
X11134587Y-3852992D02*
G01*
X11039083Y-3852992D01*
X11134587Y-3882964D02*
G01*
X11039083Y-3882964D01*
X11134587Y-3882964D02*
G01*
X11134587Y-3914714D01*
X11130015Y-3928430D01*
X11120871Y-3937574D01*
X11111727Y-3942146D01*
X11098265Y-3946718D01*
X11075405Y-3946718D01*
X11061689Y-3942146D01*
X11052799Y-3937574D01*
X11043655Y-3928430D01*
X11039083Y-3914714D01*
X11039083Y-3882964D01*
X10880587Y-3722944D02*
G01*
X10785083Y-3722944D01*
X10880587Y-3691194D02*
G01*
X10880587Y-3754948D01*
X10880587Y-3784920D02*
G01*
X10785083Y-3848420D01*
X10880587Y-3848420D02*
G01*
X10785083Y-3784920D01*
X10622780Y-3691194D02*
G01*
X10527276Y-3691194D01*
X10622780Y-3691194D02*
G01*
X10622780Y-3732088D01*
X10618208Y-3745804D01*
X10613636Y-3750376D01*
X10604492Y-3754948D01*
X10595348Y-3754948D01*
X10586458Y-3750376D01*
X10581886Y-3745804D01*
X10577314Y-3732088D01*
X10577314Y-3691194D01*
X10577314Y-3722944D02*
G01*
X10527276Y-3754948D01*
X10622780Y-3784920D02*
G01*
X10527276Y-3848420D01*
X10622780Y-3848420D02*
G01*
X10527276Y-3784920D01*
X10358871Y-3754948D02*
G01*
X10368015Y-3745804D01*
X10372587Y-3732088D01*
X10372587Y-3713800D01*
X10368015Y-3700338D01*
X10358871Y-3691194D01*
X10349727Y-3691194D01*
X10340583Y-3695766D01*
X10336265Y-3700338D01*
X10331693Y-3709482D01*
X10322549Y-3736660D01*
X10317977Y-3745804D01*
X10313405Y-3750376D01*
X10304261Y-3754948D01*
X10290799Y-3754948D01*
X10281655Y-3745804D01*
X10277083Y-3732088D01*
X10277083Y-3713800D01*
X10281655Y-3700338D01*
X10290799Y-3691194D01*
X10372587Y-3816670D02*
G01*
X10277083Y-3816670D01*
X10372587Y-3784920D02*
G01*
X10372587Y-3848420D01*
X10372587Y-3914714D02*
G01*
X10277083Y-3878392D01*
X10372587Y-3914714D02*
G01*
X10277083Y-3951290D01*
X10308833Y-3892108D02*
G01*
X10308833Y-3937574D01*
X10372587Y-4013012D02*
G01*
X10277083Y-4013012D01*
X10372587Y-3981262D02*
G01*
X10372587Y-4044762D01*
X10372587Y-4074734D02*
G01*
X10277083Y-4074734D01*
X10372587Y-4074734D02*
G01*
X10372587Y-4133916D01*
X10327121Y-4074734D02*
G01*
X10327121Y-4111310D01*
X10277083Y-4074734D02*
G01*
X10277083Y-4133916D01*
D10*
X1805086Y-940206D02*
G01*
X1794672Y-945540D01*
X1784258Y-955954D01*
X1779178Y-966114D01*
X1779178Y-986942D01*
X1784258Y-997356D01*
X1794672Y-1007770D01*
X1805086Y-1013104D01*
X1820834Y-1018184D01*
X1846742Y-1018184D01*
X1862236Y-1013104D01*
X1872650Y-1007770D01*
X1883064Y-997356D01*
X1888144Y-986942D01*
X1888144Y-966114D01*
X1883064Y-955954D01*
X1872650Y-945540D01*
X1862236Y-940206D01*
X1800006Y-905916D02*
G01*
X1794672Y-895502D01*
X1779178Y-880008D01*
X1888144Y-880008D01*
X1187434Y-1315102D02*
G01*
X1177020Y-1320436D01*
X1166606Y-1330850D01*
X1161526Y-1341010D01*
X1161526Y-1361838D01*
X1166606Y-1372252D01*
X1177020Y-1382666D01*
X1187434Y-1388000D01*
X1203182Y-1393080D01*
X1229090Y-1393080D01*
X1244584Y-1388000D01*
X1254998Y-1382666D01*
X1265412Y-1372252D01*
X1270492Y-1361838D01*
X1270492Y-1341010D01*
X1265412Y-1330850D01*
X1254998Y-1320436D01*
X1244584Y-1315102D01*
X1187434Y-1275732D02*
G01*
X1182354Y-1275732D01*
X1171940Y-1270398D01*
X1166606Y-1265318D01*
X1161526Y-1254904D01*
X1161526Y-1234076D01*
X1166606Y-1223662D01*
X1171940Y-1218582D01*
X1182354Y-1213248D01*
X1192768Y-1213248D01*
X1203182Y-1218582D01*
X1218676Y-1228996D01*
X1270492Y-1280812D01*
X1270492Y-1208168D01*
X10320980Y-2294079D02*
G01*
X10320980Y-2403045D01*
X10320980Y-2403045D02*
G01*
X10383210Y-2403045D01*
X10417500Y-2294079D02*
G01*
X10417500Y-2403045D01*
X10417500Y-2294079D02*
G01*
X10485064Y-2294079D01*
X10417500Y-2345895D02*
G01*
X10459156Y-2345895D01*
X10417500Y-2403045D02*
G01*
X10485064Y-2403045D01*
X10519354Y-2294079D02*
G01*
X10519354Y-2403045D01*
X10519354Y-2294079D02*
G01*
X10555930Y-2294079D01*
X10571424Y-2299159D01*
X10581838Y-2309573D01*
X10586918Y-2319987D01*
X10592252Y-2335735D01*
X10592252Y-2361643D01*
X10586918Y-2377137D01*
X10581838Y-2387551D01*
X10571424Y-2397965D01*
X10555930Y-2403045D01*
X10519354Y-2403045D01*
X10688772Y-2309573D02*
G01*
X10683692Y-2299159D01*
X10667944Y-2294079D01*
X10657530Y-2294079D01*
X10642036Y-2299159D01*
X10631622Y-2314907D01*
X10626542Y-2340815D01*
X10626542Y-2366723D01*
X10631622Y-2387551D01*
X10642036Y-2397965D01*
X10657530Y-2403045D01*
X10662864Y-2403045D01*
X10678358Y-2397965D01*
X10688772Y-2387551D01*
X10694106Y-2372057D01*
X10694106Y-2366723D01*
X10688772Y-2351229D01*
X10678358Y-2340815D01*
X10662864Y-2335735D01*
X10657530Y-2335735D01*
X10642036Y-2340815D01*
X10631622Y-2351229D01*
X10626542Y-2366723D01*
X1215641Y-1848573D02*
G01*
X1205227Y-1838159D01*
X1189733Y-1833079D01*
X1168905Y-1833079D01*
X1153411Y-1838159D01*
X1142997Y-1848573D01*
X1142997Y-1858987D01*
X1148077Y-1869401D01*
X1153411Y-1874735D01*
X1163825Y-1879815D01*
X1195067Y-1890229D01*
X1205227Y-1895309D01*
X1210561Y-1900643D01*
X1215641Y-1911057D01*
X1215641Y-1926551D01*
X1205227Y-1936965D01*
X1189733Y-1942045D01*
X1168905Y-1942045D01*
X1153411Y-1936965D01*
X1142997Y-1926551D01*
X1249931Y-1833079D02*
G01*
X1276093Y-1942045D01*
X1302001Y-1833079D02*
G01*
X1276093Y-1942045D01*
X1302001Y-1833079D02*
G01*
X1327909Y-1942045D01*
X1353817Y-1833079D02*
G01*
X1327909Y-1942045D01*
X1388107Y-1853907D02*
G01*
X1398521Y-1848573D01*
X1414269Y-1833079D01*
X1414269Y-1942045D01*
X500379Y-54863D02*
G01*
X500379Y-163829D01*
X500379Y-54863D02*
G01*
X542036Y-163829D01*
X583437Y-54863D02*
G01*
X542036Y-163829D01*
X583437Y-54863D02*
G01*
X583437Y-163829D01*
X617728Y-54863D02*
G01*
X617728Y-163829D01*
X690626Y-54863D02*
G01*
X690626Y-163829D01*
X617728Y-106679D02*
G01*
X690626Y-106679D01*
X724915Y-75692D02*
G01*
X735329Y-70357D01*
X750823Y-54863D01*
X750823Y-163829D01*
X11499733Y-54863D02*
G01*
X11499733Y-163829D01*
X11499733Y-54863D02*
G01*
X11541389Y-163829D01*
X11582791Y-54863D02*
G01*
X11541389Y-163829D01*
X11582791Y-54863D02*
G01*
X11582791Y-163829D01*
X11617081Y-54863D02*
G01*
X11617081Y-163829D01*
X11689979Y-54863D02*
G01*
X11689979Y-163829D01*
X11617081Y-106679D02*
G01*
X11689979Y-106679D01*
X11729349Y-80771D02*
G01*
X11729349Y-75692D01*
X11734683Y-65278D01*
X11739763Y-59944D01*
X11750177Y-54863D01*
X11771005Y-54863D01*
X11781419Y-59944D01*
X11786499Y-65278D01*
X11791833Y-75692D01*
X11791833Y-86105D01*
X11786499Y-96520D01*
X11776085Y-112013D01*
X11724269Y-163829D01*
X11796913Y-163829D01*
X500379Y-7054179D02*
G01*
X500379Y-7163145D01*
X500379Y-7054179D02*
G01*
X542036Y-7163145D01*
X583437Y-7054179D02*
G01*
X542036Y-7163145D01*
X583437Y-7054179D02*
G01*
X583437Y-7163145D01*
X617728Y-7054179D02*
G01*
X617728Y-7163145D01*
X690626Y-7054179D02*
G01*
X690626Y-7163145D01*
X617728Y-7105995D02*
G01*
X690626Y-7105995D01*
X735329Y-7054179D02*
G01*
X792479Y-7054179D01*
X761237Y-7095835D01*
X776731Y-7095835D01*
X787145Y-7100915D01*
X792479Y-7105995D01*
X797560Y-7121743D01*
X797560Y-7132157D01*
X792479Y-7147651D01*
X782065Y-7158065D01*
X766318Y-7163145D01*
X750823Y-7163145D01*
X735329Y-7158065D01*
X729995Y-7152985D01*
X724915Y-7142571D01*
X11499733Y-7055180D02*
G01*
X11499733Y-7164146D01*
X11499733Y-7055180D02*
G01*
X11541389Y-7164146D01*
X11582791Y-7055180D02*
G01*
X11541389Y-7164146D01*
X11582791Y-7055180D02*
G01*
X11582791Y-7164146D01*
X11617081Y-7055180D02*
G01*
X11617081Y-7164146D01*
X11689979Y-7055180D02*
G01*
X11689979Y-7164146D01*
X11617081Y-7106996D02*
G01*
X11689979Y-7106996D01*
X11776085Y-7055180D02*
G01*
X11724269Y-7127824D01*
X11801993Y-7127824D01*
X11776085Y-7055180D02*
G01*
X11776085Y-7164146D01*
X5260873Y-5139987D02*
G01*
X5338851Y-5139987D01*
X5354345Y-5134907D01*
X5364759Y-5124493D01*
X5369839Y-5108745D01*
X5369839Y-5098331D01*
X5364759Y-5082837D01*
X5354345Y-5072423D01*
X5338851Y-5067343D01*
X5260873Y-5067343D01*
X5297195Y-4965489D02*
G01*
X5312689Y-4970569D01*
X5323103Y-4980983D01*
X5328437Y-4996477D01*
X5328437Y-5001811D01*
X5323103Y-5017305D01*
X5312689Y-5027719D01*
X5297195Y-5033053D01*
X5292115Y-5033053D01*
X5276367Y-5027719D01*
X5265953Y-5017305D01*
X5260873Y-5001811D01*
X5260873Y-4996477D01*
X5265953Y-4980983D01*
X5276367Y-4970569D01*
X5297195Y-4965489D01*
X5323103Y-4965489D01*
X5349265Y-4970569D01*
X5364759Y-4980983D01*
X5369839Y-4996477D01*
X5369839Y-5006891D01*
X5364759Y-5022639D01*
X5354345Y-5027719D01*
X1039670Y-6958048D02*
G01*
X1117648Y-6958048D01*
X1133142Y-6952968D01*
X1143556Y-6942554D01*
X1148636Y-6926806D01*
X1148636Y-6916392D01*
X1143556Y-6900898D01*
X1133142Y-6890484D01*
X1117648Y-6885404D01*
X1039670Y-6885404D01*
X1060498Y-6851114D02*
G01*
X1055164Y-6840700D01*
X1039670Y-6824952D01*
X1148636Y-6824952D01*
X1039670Y-6759674D02*
G01*
X1044750Y-6775168D01*
X1060498Y-6785582D01*
X1086406Y-6790662D01*
X1101900Y-6790662D01*
X1128062Y-6785582D01*
X1143556Y-6775168D01*
X1148636Y-6759674D01*
X1148636Y-6749260D01*
X1143556Y-6733512D01*
X1128062Y-6723098D01*
X1101900Y-6718018D01*
X1086406Y-6718018D01*
X1060498Y-6723098D01*
X1044750Y-6733512D01*
X1039670Y-6749260D01*
X1039670Y-6759674D01*
X2883631Y-4445274D02*
G01*
X2805653Y-4445274D01*
X2790159Y-4450354D01*
X2779745Y-4460768D01*
X2774665Y-4476516D01*
X2774665Y-4486930D01*
X2779745Y-4502424D01*
X2790159Y-4512838D01*
X2805653Y-4517918D01*
X2883631Y-4517918D01*
X2862803Y-4552208D02*
G01*
X2868137Y-4562622D01*
X2883631Y-4578370D01*
X2774665Y-4578370D01*
X2862803Y-4612660D02*
G01*
X2868137Y-4623074D01*
X2883631Y-4638568D01*
X2774665Y-4638568D01*
D11*
X1964151Y-3703594D02*
G01*
X1955007Y-3708166D01*
X1945609Y-3717310D01*
X1941037Y-3726454D01*
X1936973Y-3739916D01*
X1936973Y-3762776D01*
X1941037Y-3776492D01*
X1945609Y-3785382D01*
X1955007Y-3794526D01*
X1964151Y-3799098D01*
X1981931Y-3799098D01*
X1991075Y-3794526D01*
X2000727Y-3785382D01*
X2004537Y-3776492D01*
X2009109Y-3762776D01*
X2009109Y-3739916D01*
X2004537Y-3726454D01*
X2000727Y-3717310D01*
X1991075Y-3708166D01*
X1981931Y-3703594D01*
X1964151Y-3703594D01*
X2039081Y-3703594D02*
G01*
X2039081Y-3771920D01*
X2043907Y-3785382D01*
X2053051Y-3794526D01*
X2066513Y-3799098D01*
X2075657Y-3799098D01*
X2089627Y-3794526D01*
X2098263Y-3785382D01*
X2102835Y-3771920D01*
X2102835Y-3703594D01*
X2164557Y-3703594D02*
G01*
X2164557Y-3799098D01*
X2132807Y-3703594D02*
G01*
X2196561Y-3703594D01*
X2267681Y-3717310D02*
G01*
X2267681Y-3799098D01*
X2226533Y-3758204D02*
G01*
X2308575Y-3758204D01*
X2122139Y-3971056D02*
G01*
X2122139Y-4066560D01*
X2122139Y-3971056D02*
G01*
X2162271Y-3971056D01*
X2176495Y-3975628D01*
X2181067Y-3980200D01*
X2185893Y-3989344D01*
X2185893Y-3998488D01*
X2181067Y-4007378D01*
X2176495Y-4011950D01*
X2162271Y-4016522D01*
X2122139Y-4016522D02*
G01*
X2162271Y-4016522D01*
X2176495Y-4021094D01*
X2181067Y-4025666D01*
X2185893Y-4034810D01*
X2185893Y-4048272D01*
X2181067Y-4057416D01*
X2176495Y-4061988D01*
X2162271Y-4066560D01*
X2122139Y-4066560D01*
X2255997Y-3984772D02*
G01*
X2255997Y-4066560D01*
X2215865Y-4025666D02*
G01*
X2297145Y-4025666D01*
X2112487Y-4830846D02*
G01*
X2112487Y-4926604D01*
X2112487Y-4830846D02*
G01*
X2153127Y-4830846D01*
X2167097Y-4835418D01*
X2171669Y-4840244D01*
X2176241Y-4849388D01*
X2176241Y-4858278D01*
X2171669Y-4867168D01*
X2167097Y-4871994D01*
X2153127Y-4876566D01*
X2112487Y-4876566D02*
G01*
X2153127Y-4876566D01*
X2167097Y-4881138D01*
X2171669Y-4885456D01*
X2176241Y-4894854D01*
X2176241Y-4908316D01*
X2171669Y-4917206D01*
X2167097Y-4921778D01*
X2153127Y-4926604D01*
X2112487Y-4926604D01*
X2206213Y-4885456D02*
G01*
X2288001Y-4885456D01*
X1975835Y-5120406D02*
G01*
X1967707Y-5124978D01*
X1958309Y-5134122D01*
X1953483Y-5143266D01*
X1948911Y-5156728D01*
X1948911Y-5179588D01*
X1953483Y-5193304D01*
X1958309Y-5202194D01*
X1967707Y-5211338D01*
X1975835Y-5215910D01*
X1994631Y-5215910D01*
X2003267Y-5211338D01*
X2012411Y-5202194D01*
X2016983Y-5193304D01*
X2021809Y-5179588D01*
X2021809Y-5156728D01*
X2016983Y-5143266D01*
X2012411Y-5134122D01*
X2003267Y-5124978D01*
X1994631Y-5120406D01*
X1975835Y-5120406D01*
X2051781Y-5120406D02*
G01*
X2051781Y-5188732D01*
X2056607Y-5202194D01*
X2064989Y-5211338D01*
X2078959Y-5215910D01*
X2088357Y-5215910D01*
X2101311Y-5211338D01*
X2110709Y-5202194D01*
X2115535Y-5188732D01*
X2115535Y-5120406D01*
X2177257Y-5120406D02*
G01*
X2177257Y-5215910D01*
X2145507Y-5120406D02*
G01*
X2209261Y-5120406D01*
X2239233Y-5175016D02*
G01*
X2320513Y-5175016D01*
X310865Y-3725184D02*
G01*
X310865Y-3820688D01*
X340837Y-3725184D02*
G01*
X340837Y-3820688D01*
X340837Y-3725184D02*
G01*
X404591Y-3820688D01*
X404591Y-3725184D02*
G01*
X404591Y-3820688D01*
X475457Y-3738900D02*
G01*
X475457Y-3820688D01*
X434563Y-3779794D02*
G01*
X516351Y-3779794D01*
X310865Y-5122184D02*
G01*
X310865Y-5217688D01*
X340837Y-5122184D02*
G01*
X340837Y-5217688D01*
X340837Y-5122184D02*
G01*
X404591Y-5217688D01*
X404591Y-5122184D02*
G01*
X404591Y-5217688D01*
X434563Y-5176794D02*
G01*
X516351Y-5176794D01*
X1080515Y-3695222D02*
G01*
X1080515Y-3780058D01*
X1052321Y-3695222D02*
G01*
X1108963Y-3695222D01*
X1135634Y-3695222D02*
G01*
X1135634Y-3780058D01*
X1135634Y-3695222D02*
G01*
X1171955Y-3695222D01*
X1184147Y-3699286D01*
X1188212Y-3703350D01*
X1192021Y-3711224D01*
X1192021Y-3723416D01*
X1188212Y-3731544D01*
X1184147Y-3735608D01*
X1171955Y-3739672D01*
X1135634Y-3739672D01*
X1259331Y-3695222D02*
G01*
X1218692Y-3751864D01*
X1279397Y-3751864D01*
X1259331Y-3695222D02*
G01*
X1259331Y-3780058D01*
X1330452Y-3695222D02*
G01*
X1318260Y-3699286D01*
X1310131Y-3711224D01*
X1306068Y-3731544D01*
X1306068Y-3743736D01*
X1310131Y-3763802D01*
X1318260Y-3775994D01*
X1330452Y-3780058D01*
X1338326Y-3780058D01*
X1350518Y-3775994D01*
X1358645Y-3763802D01*
X1362710Y-3743736D01*
X1362710Y-3731544D01*
X1358645Y-3711224D01*
X1350518Y-3699286D01*
X1338326Y-3695222D01*
X1330452Y-3695222D01*
X1437894Y-3695222D02*
G01*
X1397507Y-3695222D01*
X1393444Y-3731544D01*
X1397507Y-3727480D01*
X1409445Y-3723416D01*
X1421637Y-3723416D01*
X1433829Y-3727480D01*
X1441957Y-3735608D01*
X1446021Y-3747800D01*
X1446021Y-3755674D01*
X1441957Y-3767866D01*
X1433829Y-3775994D01*
X1421637Y-3780058D01*
X1409445Y-3780058D01*
X1397507Y-3775994D01*
X1393444Y-3771930D01*
X1389379Y-3763802D01*
X1520952Y-3707414D02*
G01*
X1517142Y-3699286D01*
X1504950Y-3695222D01*
X1496821Y-3695222D01*
X1484629Y-3699286D01*
X1476502Y-3711224D01*
X1472692Y-3731544D01*
X1472692Y-3751864D01*
X1476502Y-3767866D01*
X1484629Y-3775994D01*
X1496821Y-3780058D01*
X1500886Y-3780058D01*
X1513078Y-3775994D01*
X1520952Y-3767866D01*
X1525015Y-3755674D01*
X1525015Y-3751864D01*
X1520952Y-3739672D01*
X1513078Y-3731544D01*
X1500886Y-3727480D01*
X1496821Y-3727480D01*
X1484629Y-3731544D01*
X1476502Y-3739672D01*
X1472692Y-3751864D01*
X657270Y-5200721D02*
G01*
X657270Y-5285557D01*
X657270Y-5200721D02*
G01*
X693592Y-5200721D01*
X705784Y-5204785D01*
X709848Y-5208849D01*
X713912Y-5216723D01*
X713912Y-5224851D01*
X709848Y-5232979D01*
X705784Y-5237043D01*
X693592Y-5241107D01*
X657270Y-5241107D01*
X685718Y-5241107D02*
G01*
X713912Y-5285557D01*
X748710Y-5200721D02*
G01*
X793160Y-5200721D01*
X768776Y-5232979D01*
X780968Y-5232979D01*
X789096Y-5237043D01*
X793160Y-5241107D01*
X797224Y-5253299D01*
X797224Y-5261173D01*
X793160Y-5273365D01*
X785032Y-5281493D01*
X772840Y-5285557D01*
X760648Y-5285557D01*
X748710Y-5281493D01*
X744646Y-5277429D01*
X740582Y-5269301D01*
X886124Y-5249235D02*
G01*
X958768Y-5249235D01*
X1096182Y-5241107D02*
G01*
X1088054Y-5232979D01*
X1079926Y-5228915D01*
X1067988Y-5228915D01*
X1059860Y-5232979D01*
X1051732Y-5241107D01*
X1047668Y-5253299D01*
X1047668Y-5261173D01*
X1051732Y-5273365D01*
X1059860Y-5281493D01*
X1067988Y-5285557D01*
X1079926Y-5285557D01*
X1088054Y-5281493D01*
X1096182Y-5273365D01*
X1122852Y-5228915D02*
G01*
X1122852Y-5269301D01*
X1126916Y-5281493D01*
X1135044Y-5285557D01*
X1146982Y-5285557D01*
X1155110Y-5281493D01*
X1167302Y-5269301D01*
X1167302Y-5228915D02*
G01*
X1167302Y-5285557D01*
X1193972Y-5228915D02*
G01*
X1193972Y-5285557D01*
X1193972Y-5253299D02*
G01*
X1198036Y-5241107D01*
X1206164Y-5232979D01*
X1214038Y-5228915D01*
X1226230Y-5228915D01*
X1252900Y-5228915D02*
G01*
X1252900Y-5285557D01*
X1252900Y-5253299D02*
G01*
X1256964Y-5241107D01*
X1265092Y-5232979D01*
X1273220Y-5228915D01*
X1285158Y-5228915D01*
X1311828Y-5253299D02*
G01*
X1360342Y-5253299D01*
X1360342Y-5245171D01*
X1356278Y-5237043D01*
X1352468Y-5232979D01*
X1344340Y-5228915D01*
X1332148Y-5228915D01*
X1324020Y-5232979D01*
X1315892Y-5241107D01*
X1311828Y-5253299D01*
X1311828Y-5261173D01*
X1315892Y-5273365D01*
X1324020Y-5281493D01*
X1332148Y-5285557D01*
X1344340Y-5285557D01*
X1352468Y-5281493D01*
X1360342Y-5273365D01*
X1387012Y-5228915D02*
G01*
X1387012Y-5285557D01*
X1387012Y-5245171D02*
G01*
X1399204Y-5232979D01*
X1407332Y-5228915D01*
X1419524Y-5228915D01*
X1427398Y-5232979D01*
X1431462Y-5245171D01*
X1431462Y-5285557D01*
X1470324Y-5200721D02*
G01*
X1470324Y-5269301D01*
X1474388Y-5281493D01*
X1482516Y-5285557D01*
X1490644Y-5285557D01*
X1458132Y-5228915D02*
G01*
X1486580Y-5228915D01*
X1628058Y-5228915D02*
G01*
X1628058Y-5285557D01*
X1628058Y-5241107D02*
G01*
X1619930Y-5232979D01*
X1611802Y-5228915D01*
X1599610Y-5228915D01*
X1591482Y-5232979D01*
X1583608Y-5241107D01*
X1579544Y-5253299D01*
X1579544Y-5261173D01*
X1583608Y-5273365D01*
X1591482Y-5281493D01*
X1599610Y-5285557D01*
X1611802Y-5285557D01*
X1619930Y-5281493D01*
X1628058Y-5273365D01*
X1702988Y-5200721D02*
G01*
X1702988Y-5285557D01*
X1702988Y-5241107D02*
G01*
X1695114Y-5232979D01*
X1686986Y-5228915D01*
X1674794Y-5228915D01*
X1666666Y-5232979D01*
X1658538Y-5241107D01*
X1654728Y-5253299D01*
X1654728Y-5261173D01*
X1658538Y-5273365D01*
X1666666Y-5281493D01*
X1674794Y-5285557D01*
X1686986Y-5285557D01*
X1695114Y-5281493D01*
X1702988Y-5273365D01*
X1745914Y-5200721D02*
G01*
X1749978Y-5204785D01*
X1754042Y-5200721D01*
X1749978Y-5196657D01*
X1745914Y-5200721D01*
X1749978Y-5228915D02*
G01*
X1749978Y-5297749D01*
X1745914Y-5309687D01*
X1737786Y-5313751D01*
X1729658Y-5313751D01*
X1784776Y-5265237D02*
G01*
X1780712Y-5269301D01*
X1784776Y-5273365D01*
X1788840Y-5269301D01*
X1784776Y-5265237D01*
D10*
X4214119Y-243517D02*
G01*
X4136141Y-243517D01*
X4120647Y-248597D01*
X4110233Y-259011D01*
X4105153Y-274759D01*
X4105153Y-285173D01*
X4110233Y-300667D01*
X4120647Y-311081D01*
X4136141Y-316161D01*
X4214119Y-316161D01*
X4193291Y-350451D02*
G01*
X4198625Y-360865D01*
X4214119Y-376613D01*
X4105153Y-376613D01*
X4188211Y-415983D02*
G01*
X4193291Y-415983D01*
X4203705Y-421317D01*
X4209039Y-426397D01*
X4214119Y-436811D01*
X4214119Y-457639D01*
X4209039Y-468053D01*
X4203705Y-473133D01*
X4193291Y-478467D01*
X4182877Y-478467D01*
X4172463Y-473133D01*
X4156969Y-462719D01*
X4105153Y-410903D01*
X4105153Y-483547D01*
X4768969Y-7187176D02*
G01*
X4763635Y-7176762D01*
X4753221Y-7166348D01*
X4743061Y-7161268D01*
X4722233Y-7161268D01*
X4711819Y-7166348D01*
X4701405Y-7176762D01*
X4696071Y-7187176D01*
X4690991Y-7202924D01*
X4690991Y-7228832D01*
X4696071Y-7244326D01*
X4701405Y-7254740D01*
X4711819Y-7265154D01*
X4722233Y-7270234D01*
X4743061Y-7270234D01*
X4753221Y-7265154D01*
X4763635Y-7254740D01*
X4768969Y-7244326D01*
X4865489Y-7176762D02*
G01*
X4860409Y-7166348D01*
X4844661Y-7161268D01*
X4834501Y-7161268D01*
X4818753Y-7166348D01*
X4808339Y-7182096D01*
X4803259Y-7208004D01*
X4803259Y-7233912D01*
X4808339Y-7254740D01*
X4818753Y-7265154D01*
X4834501Y-7270234D01*
X4839581Y-7270234D01*
X4855075Y-7265154D01*
X4865489Y-7254740D01*
X4870823Y-7239246D01*
X4870823Y-7233912D01*
X4865489Y-7218418D01*
X4855075Y-7208004D01*
X4839581Y-7202924D01*
X4834501Y-7202924D01*
X4818753Y-7208004D01*
X4808339Y-7218418D01*
X4803259Y-7233912D01*
X541083Y-3052993D02*
G01*
X650049Y-3052993D01*
X541083Y-3052993D02*
G01*
X541083Y-3006257D01*
X546163Y-2990763D01*
X551497Y-2985429D01*
X561911Y-2980349D01*
X577405Y-2980349D01*
X587819Y-2985429D01*
X592899Y-2990763D01*
X598233Y-3006257D01*
X598233Y-3052993D01*
X561911Y-2946059D02*
G01*
X556577Y-2935645D01*
X541083Y-2919897D01*
X650049Y-2919897D01*
X780026Y-6030630D02*
G01*
X774692Y-6020216D01*
X764278Y-6009802D01*
X753864Y-6004722D01*
X733290Y-6004722D01*
X722876Y-6009802D01*
X712462Y-6020216D01*
X707128Y-6030630D01*
X702048Y-6046124D01*
X702048Y-6072286D01*
X707128Y-6087780D01*
X712462Y-6098194D01*
X722876Y-6108608D01*
X733290Y-6113688D01*
X753864Y-6113688D01*
X764278Y-6108608D01*
X774692Y-6098194D01*
X780026Y-6087780D01*
X866132Y-6004722D02*
G01*
X814316Y-6077366D01*
X892040Y-6077366D01*
X866132Y-6004722D02*
G01*
X866132Y-6113688D01*
X5150660Y-6086660D02*
G01*
X5161074Y-6081326D01*
X5171488Y-6070912D01*
X5176568Y-6060498D01*
X5176568Y-6039924D01*
X5171488Y-6029510D01*
X5161074Y-6019096D01*
X5150660Y-6013762D01*
X5135166Y-6008682D01*
X5109258Y-6008682D01*
X5093510Y-6013762D01*
X5083096Y-6019096D01*
X5072682Y-6029510D01*
X5067602Y-6039924D01*
X5067602Y-6060498D01*
X5072682Y-6070912D01*
X5083096Y-6081326D01*
X5093510Y-6086660D01*
X5176568Y-6183180D02*
G01*
X5176568Y-6131364D01*
X5129832Y-6126030D01*
X5135166Y-6131364D01*
X5140246Y-6146858D01*
X5140246Y-6162352D01*
X5135166Y-6178100D01*
X5124752Y-6188514D01*
X5109258Y-6193594D01*
X5098844Y-6193594D01*
X5083096Y-6188514D01*
X5072682Y-6178100D01*
X5067602Y-6162352D01*
X5067602Y-6146858D01*
X5072682Y-6131364D01*
X5078016Y-6126030D01*
X5088430Y-6120950D01*
X4406021Y-4299734D02*
G01*
X4400687Y-4289320D01*
X4390273Y-4278906D01*
X4379859Y-4273572D01*
X4359285Y-4273572D01*
X4348871Y-4278906D01*
X4338457Y-4289320D01*
X4333123Y-4299734D01*
X4328043Y-4315228D01*
X4328043Y-4341136D01*
X4333123Y-4356884D01*
X4338457Y-4367044D01*
X4348871Y-4377458D01*
X4359285Y-4382792D01*
X4379859Y-4382792D01*
X4390273Y-4377458D01*
X4400687Y-4367044D01*
X4406021Y-4356884D01*
X4512955Y-4273572D02*
G01*
X4460885Y-4382792D01*
X4440311Y-4273572D02*
G01*
X4512955Y-4273572D01*
X5074993Y-4389658D02*
G01*
X5069659Y-4379244D01*
X5059245Y-4368830D01*
X5048831Y-4363750D01*
X5028257Y-4363750D01*
X5017843Y-4368830D01*
X5007429Y-4379244D01*
X5002095Y-4389658D01*
X4997015Y-4405152D01*
X4997015Y-4431314D01*
X5002095Y-4446808D01*
X5007429Y-4457222D01*
X5017843Y-4467636D01*
X5028257Y-4472716D01*
X5048831Y-4472716D01*
X5059245Y-4467636D01*
X5069659Y-4457222D01*
X5074993Y-4446808D01*
X5135191Y-4363750D02*
G01*
X5119697Y-4368830D01*
X5114363Y-4379244D01*
X5114363Y-4389658D01*
X5119697Y-4400072D01*
X5130111Y-4405152D01*
X5150685Y-4410486D01*
X5166433Y-4415566D01*
X5176847Y-4425980D01*
X5181927Y-4436394D01*
X5181927Y-4451888D01*
X5176847Y-4462302D01*
X5171513Y-4467636D01*
X5156019Y-4472716D01*
X5135191Y-4472716D01*
X5119697Y-4467636D01*
X5114363Y-4462302D01*
X5109283Y-4451888D01*
X5109283Y-4436394D01*
X5114363Y-4425980D01*
X5124777Y-4415566D01*
X5140271Y-4410486D01*
X5161099Y-4405152D01*
X5171513Y-4400072D01*
X5176847Y-4389658D01*
X5176847Y-4379244D01*
X5171513Y-4368830D01*
X5156019Y-4363750D01*
X5135191Y-4363750D01*
X5816800Y-2792531D02*
G01*
X5811720Y-2782117D01*
X5801306Y-2771703D01*
X5790892Y-2766623D01*
X5770064Y-2766623D01*
X5759650Y-2771703D01*
X5749490Y-2782117D01*
X5744156Y-2792531D01*
X5739076Y-2808025D01*
X5739076Y-2834187D01*
X5744156Y-2849681D01*
X5749490Y-2860095D01*
X5759650Y-2870509D01*
X5770064Y-2875589D01*
X5790892Y-2875589D01*
X5801306Y-2870509D01*
X5811720Y-2860095D01*
X5816800Y-2849681D01*
X5851090Y-2787197D02*
G01*
X5861504Y-2782117D01*
X5877252Y-2766623D01*
X5877252Y-2875589D01*
X5942530Y-2766623D02*
G01*
X5927036Y-2771703D01*
X5916622Y-2787197D01*
X5911542Y-2813359D01*
X5911542Y-2828853D01*
X5916622Y-2854761D01*
X5927036Y-2870509D01*
X5942530Y-2875589D01*
X5952944Y-2875589D01*
X5968692Y-2870509D01*
X5979106Y-2854761D01*
X5984186Y-2828853D01*
X5984186Y-2813359D01*
X5979106Y-2787197D01*
X5968692Y-2771703D01*
X5952944Y-2766623D01*
X5942530Y-2766623D01*
X11079398Y-2055312D02*
G01*
X11068984Y-2060392D01*
X11058570Y-2070806D01*
X11053490Y-2081220D01*
X11053490Y-2102048D01*
X11058570Y-2112462D01*
X11068984Y-2122876D01*
X11079398Y-2127956D01*
X11094892Y-2133290D01*
X11121054Y-2133290D01*
X11136548Y-2127956D01*
X11146962Y-2122876D01*
X11157376Y-2112462D01*
X11162456Y-2102048D01*
X11162456Y-2081220D01*
X11157376Y-2070806D01*
X11146962Y-2060392D01*
X11136548Y-2055312D01*
X11074318Y-2021022D02*
G01*
X11068984Y-2010608D01*
X11053490Y-1995114D01*
X11162456Y-1995114D01*
X11079398Y-1955490D02*
G01*
X11074318Y-1955490D01*
X11063904Y-1950410D01*
X11058570Y-1945076D01*
X11053490Y-1934662D01*
X11053490Y-1914088D01*
X11058570Y-1903674D01*
X11063904Y-1898340D01*
X11074318Y-1893260D01*
X11084478Y-1893260D01*
X11094892Y-1898340D01*
X11110640Y-1908754D01*
X11162456Y-1960824D01*
X11162456Y-1887926D01*
X5929967Y-3529584D02*
G01*
X5924633Y-3519170D01*
X5914219Y-3508755D01*
X5904059Y-3503676D01*
X5883231Y-3503676D01*
X5872817Y-3508755D01*
X5862403Y-3519170D01*
X5857069Y-3529584D01*
X5851989Y-3545331D01*
X5851989Y-3571239D01*
X5857069Y-3586734D01*
X5862403Y-3597147D01*
X5872817Y-3607562D01*
X5883231Y-3612642D01*
X5904059Y-3612642D01*
X5914219Y-3607562D01*
X5924633Y-3597147D01*
X5929967Y-3586734D01*
X6031821Y-3539997D02*
G01*
X6026487Y-3555492D01*
X6016073Y-3565905D01*
X6000579Y-3571239D01*
X5995499Y-3571239D01*
X5979751Y-3565905D01*
X5969337Y-3555492D01*
X5964257Y-3539997D01*
X5964257Y-3534918D01*
X5969337Y-3519170D01*
X5979751Y-3508755D01*
X5995499Y-3503676D01*
X6000579Y-3503676D01*
X6016073Y-3508755D01*
X6026487Y-3519170D01*
X6031821Y-3539997D01*
X6031821Y-3565905D01*
X6026487Y-3592068D01*
X6016073Y-3607562D01*
X6000579Y-3612642D01*
X5990165Y-3612642D01*
X5974671Y-3607562D01*
X5969337Y-3597147D01*
X11294955Y-2681185D02*
G01*
X11289621Y-2670771D01*
X11279207Y-2660357D01*
X11269047Y-2655277D01*
X11248219Y-2655277D01*
X11237805Y-2660357D01*
X11227391Y-2670771D01*
X11222057Y-2681185D01*
X11216977Y-2696933D01*
X11216977Y-2722841D01*
X11222057Y-2738335D01*
X11227391Y-2748749D01*
X11237805Y-2759163D01*
X11248219Y-2764243D01*
X11269047Y-2764243D01*
X11279207Y-2759163D01*
X11289621Y-2748749D01*
X11294955Y-2738335D01*
X11329245Y-2676105D02*
G01*
X11339659Y-2670771D01*
X11355153Y-2655277D01*
X11355153Y-2764243D01*
X11389443Y-2676105D02*
G01*
X11399857Y-2670771D01*
X11415351Y-2655277D01*
X11415351Y-2764243D01*
X258826Y-6050534D02*
G01*
X253745Y-6040120D01*
X243331Y-6029960D01*
X232918Y-6024626D01*
X212089Y-6024626D01*
X201676Y-6029960D01*
X191515Y-6040120D01*
X186181Y-6050534D01*
X181102Y-6066281D01*
X181102Y-6092189D01*
X186181Y-6107684D01*
X191515Y-6118097D01*
X201676Y-6128512D01*
X212089Y-6133845D01*
X232918Y-6133845D01*
X243331Y-6128512D01*
X253745Y-6118097D01*
X258826Y-6107684D01*
X303529Y-6024626D02*
G01*
X360679Y-6024626D01*
X329692Y-6066281D01*
X345186Y-6066281D01*
X355600Y-6071362D01*
X360679Y-6076695D01*
X366013Y-6092189D01*
X366013Y-6102604D01*
X360679Y-6118097D01*
X350265Y-6128512D01*
X334771Y-6133845D01*
X319278Y-6133845D01*
X303529Y-6128512D01*
X298450Y-6123431D01*
X293115Y-6113018D01*
G36*
X2599893Y-1406855D02*
G01*
X2599893Y-1437741D01*
X2805887Y-1437741D01*
X2805887Y-1406855D01*
G37*
G36*
X2687421Y-1360474D02*
G01*
X2687421Y-1484122D01*
X2718358Y-1484122D01*
X2718358Y-1360474D01*
G37*
G36*
X2687421Y-515874D02*
G01*
X2687421Y-639521D01*
X2718358Y-639521D01*
X2718358Y-515874D01*
G37*
G36*
X1038301Y-4972862D02*
G01*
X1038301Y-5099862D01*
X1292301Y-5099862D01*
X1292301Y-4972862D01*
G37*
G36*
X4001262Y-6504889D02*
G01*
X4001262Y-6710883D01*
X4032148Y-6710883D01*
X4032148Y-6504889D01*
G37*
G36*
X3954881Y-6592417D02*
G01*
X3954881Y-6623303D01*
X4078478Y-6623303D01*
X4078478Y-6592417D01*
G37*
G36*
X4799482Y-6592417D02*
G01*
X4799482Y-6623303D01*
X4923078Y-6623303D01*
X4923078Y-6592417D01*
G37*
G36*
X4109974Y-5129987D02*
G01*
X4123944Y-5142738D01*
X4138472Y-5154879D01*
X4153509Y-5166360D01*
X4169054Y-5177180D01*
X4185005Y-5187289D01*
X4201414Y-5196738D01*
X4218178Y-5205425D01*
X4235348Y-5213400D01*
X4252823Y-5220614D01*
X4270603Y-5227066D01*
X4279595Y-5230012D01*
X4297781Y-5235244D01*
X4306925Y-5237632D01*
X4325416Y-5241696D01*
X4344060Y-5244947D01*
X4353407Y-5246319D01*
X4372203Y-5248351D01*
X4391101Y-5249570D01*
X4409998Y-5249976D01*
X4428896Y-5249570D01*
X4447794Y-5248351D01*
X4466590Y-5246319D01*
X4485284Y-5243423D01*
X4503826Y-5239766D01*
X4522216Y-5235244D01*
X4540351Y-5230012D01*
X4558284Y-5223916D01*
X4575911Y-5217109D01*
X4593234Y-5209489D01*
X4610252Y-5201158D01*
X4626813Y-5192115D01*
X4643018Y-5182311D01*
X4658766Y-5171846D01*
X4674057Y-5160670D01*
X4688840Y-5148884D01*
X4703064Y-5136438D01*
X4709972Y-5129987D01*
G37*
G36*
X5690565Y-3021888D02*
G01*
X5681014Y-3031642D01*
X5671972Y-3041904D01*
X5663641Y-3052724D01*
X5655919Y-3064002D01*
X5648909Y-3075736D01*
X5642610Y-3087878D01*
X5637072Y-3100374D01*
X5632246Y-3113176D01*
X5628233Y-3126232D01*
X5624982Y-3139490D01*
X5622544Y-3152952D01*
X5620918Y-3166516D01*
X5620105Y-3180181D01*
X5620105Y-3193846D01*
X5620918Y-3207461D01*
X5622544Y-3221024D01*
X5624982Y-3234486D01*
X5628233Y-3247745D01*
X5632246Y-3260852D01*
X5637072Y-3273602D01*
X5642610Y-3286099D01*
X5648909Y-3298240D01*
X5655919Y-3309975D01*
X5663641Y-3321253D01*
X5671972Y-3332073D01*
X5681014Y-3342335D01*
X5690565Y-3352088D01*
G37*
G36*
X11333581Y-1828901D02*
G01*
X11323980Y-1838655D01*
X11314988Y-1848916D01*
X11306606Y-1859737D01*
X11298936Y-1871014D01*
X11291925Y-1882749D01*
X11285626Y-1894890D01*
X11280038Y-1907387D01*
X11275263Y-1920138D01*
X11271199Y-1933244D01*
X11267948Y-1946503D01*
X11265509Y-1959965D01*
X11263884Y-1973529D01*
X11263071Y-1987143D01*
X11263071Y-2000808D01*
X11263884Y-2014474D01*
X11265509Y-2028037D01*
X11267948Y-2041499D01*
X11271199Y-2054758D01*
X11275263Y-2067814D01*
X11280038Y-2080615D01*
X11285626Y-2093112D01*
X11291925Y-2105253D01*
X11298936Y-2116988D01*
X11306606Y-2128266D01*
X11314988Y-2139086D01*
X11323980Y-2149348D01*
X11333581Y-2159101D01*
G37*
D12*
X5852988Y-6682986D02*
G01*
X5852988Y-6809986D01*
X5852988Y-6437317D01*
X6868048Y-6437317D01*
X6868048Y-7029188D01*
X5852988Y-7029188D01*
X5852988Y-6809986D01*
X5852988Y-6936986D01*
X7476985Y-6697987D02*
G01*
X7476985Y-6824987D01*
X7476985Y-6452318D01*
X8492045Y-6452318D01*
X8492045Y-7044189D01*
X7476985Y-7044189D01*
X7476985Y-6824987D01*
X7476985Y-6951987D01*
X9080980Y-6690987D02*
G01*
X9080980Y-6817987D01*
X9080980Y-6445318D01*
X10096040Y-6445318D01*
X10096040Y-7037189D01*
X9080980Y-7037189D01*
X9080980Y-6817987D01*
X9080980Y-6944987D01*
X10611977Y-6658985D02*
G01*
X10611977Y-6785985D01*
X10611977Y-6413317D01*
X11627037Y-6413317D01*
X11627037Y-7005187D01*
X10611977Y-7005187D01*
X10611977Y-6785985D01*
X10611977Y-6912985D01*
X10648977Y-1139997D02*
G01*
X10648977Y-1266997D01*
X10648977Y-894328D01*
X11664038Y-894328D01*
X11664038Y-1486199D01*
X10648977Y-1486199D01*
X10648977Y-1266997D01*
X10648977Y-1393997D01*
X9308980Y-1133998D02*
G01*
X9308980Y-1260998D01*
X9308980Y-888329D01*
X10324040Y-888329D01*
X10324040Y-1480200D01*
X9308980Y-1480200D01*
X9308980Y-1260998D01*
X9308980Y-1387998D01*
X7838983Y-1137998D02*
G01*
X7838983Y-1264998D01*
X7838983Y-892329D01*
X8854043Y-892329D01*
X8854043Y-1484200D01*
X7838983Y-1484200D01*
X7838983Y-1264998D01*
X7838983Y-1391998D01*
X6025987Y-1161996D02*
G01*
X6025987Y-1288996D01*
X6025987Y-916327D01*
X7041047Y-916327D01*
X7041047Y-1508198D01*
X6025987Y-1508198D01*
X6025987Y-1288996D01*
X6025987Y-1415996D01*
X11714977Y-3360994D02*
G01*
X11740377Y-3360994D01*
X11740377Y-3614994D01*
X10190977Y-3614994D01*
X10190977Y-3360994D01*
X11714977Y-3360994D01*
D13*
X2365481Y-477375D02*
G01*
X1943371Y-477375D01*
X2988617Y-477375D02*
G01*
X2566507Y-477375D01*
X2566507Y-1522620D02*
G01*
X2774993Y-1522620D01*
X2156995Y-1522620D02*
G01*
X2365481Y-1522620D01*
D10*
X1943371Y-477375D02*
G01*
X1943371Y-1308996D01*
X2156995Y-1522620D01*
X2988617Y-477375D02*
G01*
X2988617Y-1308996D01*
X2774993Y-1522620D01*
X1590258Y-1532117D02*
G01*
X1590258Y-1383619D01*
X1371737Y-1383619D02*
G01*
X1371737Y-1532117D01*
X1386977Y-1547357D02*
G01*
X1575018Y-1547357D01*
X1590258Y-1049878D02*
G01*
X1590258Y-1198377D01*
X1371737Y-1198377D02*
G01*
X1371737Y-1049878D01*
X1386977Y-1034638D02*
G01*
X1575018Y-1034638D01*
D14*
X10193980Y-3018200D02*
G01*
X10447980Y-3018200D01*
X10447980Y-2510995D01*
X10187980Y-2510995D01*
X10187980Y-3018200D01*
X1015997Y-2557200D02*
G01*
X1269997Y-2557200D01*
X1269997Y-2049995D01*
X1009997Y-2049995D01*
X1009997Y-2557200D01*
D15*
X215392Y-215392D02*
G01*
X785368Y-215392D01*
X215392Y-785368D02*
G01*
X215392Y-215392D01*
X785368Y-785368D02*
G01*
X215392Y-785368D01*
X785368Y-215392D02*
G01*
X785368Y-785368D01*
X11214745Y-215392D02*
G01*
X11784721Y-215392D01*
X11214745Y-785368D02*
G01*
X11214745Y-215392D01*
X11784721Y-785368D02*
G01*
X11214745Y-785368D01*
X11784721Y-215392D02*
G01*
X11784721Y-785368D01*
X215392Y-7214707D02*
G01*
X785368Y-7214707D01*
X215392Y-7784683D02*
G01*
X215392Y-7214707D01*
X785368Y-7784683D02*
G01*
X215392Y-7784683D01*
X785368Y-7214707D02*
G01*
X785368Y-7784683D01*
X11214745Y-7215708D02*
G01*
X11784721Y-7215708D01*
X11214745Y-7785684D02*
G01*
X11214745Y-7215708D01*
X11784721Y-7785684D02*
G01*
X11214745Y-7785684D01*
X11784721Y-7215708D02*
G01*
X11784721Y-7785684D01*
D12*
X5414289Y-5520987D02*
G01*
X5414289Y-4758987D01*
X5795289Y-4758987D01*
X5795289Y-5520987D01*
X5414289Y-5520987D01*
X5414289Y-6028987D02*
G01*
X5414289Y-4250987D01*
X11510289Y-4250987D01*
X11510289Y-6028987D01*
X5414289Y-6028987D01*
X1264795Y-7746235D02*
G01*
X1264795Y-6044435D01*
X3703195Y-6044435D01*
X3703195Y-7746235D01*
X1264795Y-7746235D01*
X2125601Y-7657335D02*
G01*
X2125601Y-7289035D01*
X3001901Y-7289035D01*
X3001901Y-7657335D01*
X2125601Y-7657335D01*
X12110Y-5335468D02*
G01*
X1292118Y-5335468D01*
X2582108Y-5335468D01*
X2742107Y-5335468D01*
X2742107Y-5135468D01*
X2582108Y-5135646D01*
X2582108Y-3804914D01*
X2742102Y-3805473D01*
X2742102Y-3605474D01*
X2582108Y-3605474D01*
X12110Y-3605474D01*
X12110Y-5335468D01*
X-54742Y-4121221D02*
G01*
X-54742Y-4161886D01*
X-54742Y-4761326D02*
G01*
X-54742Y-4801966D01*
X-54742Y-4121221D02*
G01*
X16352Y-4121221D01*
X16352Y-4121221D02*
G01*
X445612Y-4121221D01*
X445612Y-4801966D02*
G01*
X16352Y-4801966D01*
X16352Y-4801966D02*
G01*
X-54742Y-4801966D01*
X-54742Y-4121221D02*
G01*
X-113187Y-4062826D01*
X-54742Y-4801966D02*
G01*
X-113187Y-4860386D01*
X-54742Y-4161886D02*
G01*
X-92842Y-4161886D01*
X-118242Y-4182206D02*
G01*
X-118242Y-4735926D01*
X-97947Y-4761326D02*
G01*
X-54742Y-4761326D01*
X285592Y-4121221D02*
G01*
X445612Y-4121221D01*
X445612Y-4121221D02*
G01*
X445612Y-4240626D01*
X445612Y-4801966D02*
G01*
X445612Y-4682586D01*
X285592Y-4801966D02*
G01*
X445612Y-4801966D01*
X16352Y-4121221D02*
G01*
X16352Y-4801966D01*
X445612Y-4240626D02*
G01*
X305912Y-4240626D01*
X305912Y-4240626D02*
G01*
X305912Y-4682586D01*
X305912Y-4682586D02*
G01*
X445612Y-4682586D01*
X1419321Y-4147383D02*
G01*
X1419321Y-4718883D01*
X657321Y-4718883D01*
X657321Y-4147383D01*
X1419321Y-4147383D01*
X1990821Y-4464883D02*
G01*
X1990821Y-4994879D01*
X1673321Y-4994879D01*
X1673321Y-4464883D01*
X1990821Y-4464883D01*
X1990821Y-3956883D02*
G01*
X1990821Y-4210883D01*
X1673321Y-4210883D01*
X1673321Y-3956883D01*
X1990821Y-3956883D01*
X3362993Y-11996D02*
G01*
X3962991Y-11996D01*
X3362993Y-11996D02*
G01*
X3362993Y-771999D01*
X3962991Y-771999D02*
G01*
X3962991Y-16095D01*
X3362993Y-771999D02*
G01*
X3462992Y-771999D01*
X3462992Y-611997D01*
X3962986Y-771994D02*
G01*
X3862986Y-771994D01*
X3862986Y-611997D01*
X3462992Y-611997D02*
G01*
X3462992Y-231995D01*
X3522995Y-231995D01*
X3522995Y-611997D01*
X3802989Y-611997D02*
G01*
X3802989Y-231995D01*
X3862992Y-231995D01*
X3862992Y-611997D01*
X3562992Y-11996D02*
G01*
X3562992Y-441998D01*
X3762992Y-441998D01*
X3762992Y-21993D01*
X3462992Y-611997D02*
G01*
X3464877Y-611997D01*
X3661107Y-611997D02*
G01*
X3664877Y-611997D01*
X3861107Y-611997D02*
G01*
X3862986Y-611997D01*
D10*
X4932111Y-7319723D02*
G01*
X4783612Y-7319723D01*
X4783612Y-7538245D02*
G01*
X4932111Y-7538245D01*
X4947351Y-7523005D02*
G01*
X4947351Y-7334963D01*
X4449871Y-7319723D02*
G01*
X4598370Y-7319723D01*
X4598370Y-7538245D02*
G01*
X4449871Y-7538245D01*
X4434631Y-7523005D02*
G01*
X4434631Y-7334963D01*
D14*
X1265204Y-3179993D02*
G01*
X1265204Y-2925993D01*
X757999Y-2925993D01*
X757999Y-3185993D01*
X1265204Y-3185993D01*
D10*
X911258Y-6764106D02*
G01*
X911258Y-6615607D01*
X692736Y-6615607D02*
G01*
X692736Y-6764106D01*
X707976Y-6779346D02*
G01*
X896018Y-6779346D01*
X911258Y-6281867D02*
G01*
X911258Y-6430365D01*
X692736Y-6430365D02*
G01*
X692736Y-6281867D01*
X707976Y-6266627D02*
G01*
X896018Y-6266627D01*
X4961610Y-6285732D02*
G01*
X4961610Y-5848352D01*
X4129989Y-5848352D01*
X3916365Y-6061976D01*
X3916365Y-6285732D01*
X4961610Y-6456217D02*
G01*
X4961610Y-6893598D01*
X4129989Y-6893598D01*
X3916365Y-6679973D01*
X3916365Y-6456217D01*
D12*
X4529990Y-4634992D02*
G01*
X4529990Y-4510531D01*
X4462680Y-4572762D02*
G01*
X4597300Y-4572762D01*
D10*
X4974729Y-4603871D02*
G01*
X4974729Y-4752370D01*
X5193250Y-4752370D02*
G01*
X5193250Y-4603871D01*
X5178010Y-4588631D02*
G01*
X4989969Y-4588631D01*
X4974729Y-5086111D02*
G01*
X4974729Y-4937612D01*
X5193250Y-4937612D02*
G01*
X5193250Y-5086111D01*
X5178010Y-5101351D02*
G01*
X4989969Y-5101351D01*
D12*
X6021600Y-3336980D02*
G01*
X5920000Y-3336980D01*
X5969988Y-3386993D02*
G01*
X5969988Y-3285393D01*
X11664589Y-2143983D02*
G01*
X11562989Y-2143983D01*
X11612976Y-2193996D02*
G01*
X11612976Y-2092396D01*
D10*
X5686869Y-3906253D02*
G01*
X5835368Y-3906253D01*
X5835368Y-3687732D02*
G01*
X5686869Y-3687732D01*
X5671629Y-3702972D02*
G01*
X5671629Y-3891013D01*
X6169108Y-3906253D02*
G01*
X6020610Y-3906253D01*
X6020610Y-3687732D02*
G01*
X6169108Y-3687732D01*
X6184348Y-3702972D02*
G01*
X6184348Y-3891013D01*
X11458097Y-2813733D02*
G01*
X11309598Y-2813733D01*
X11309598Y-3032254D02*
G01*
X11458097Y-3032254D01*
X11473337Y-3017014D02*
G01*
X11473337Y-2828973D01*
X10975858Y-2813733D02*
G01*
X11124356Y-2813733D01*
X11124356Y-3032254D02*
G01*
X10975858Y-3032254D01*
X10960618Y-3017014D02*
G01*
X10960618Y-2828973D01*
X382310Y-6766125D02*
G01*
X382310Y-6617627D01*
X163789Y-6617627D02*
G01*
X163789Y-6766125D01*
X179029Y-6781365D02*
G01*
X367070Y-6781365D01*
X382310Y-6283886D02*
G01*
X382310Y-6432384D01*
X163789Y-6432384D02*
G01*
X163789Y-6283886D01*
X179029Y-6268646D02*
G01*
X367070Y-6268646D01*
G75*
G01*
X1371737Y-1532118D02*
G03*
X1386977Y-1547358I15240J0D01*
G75*
G01*
X1575018Y-1547358D02*
G03*
X1590258Y-1532118I0J15240D01*
G75*
G01*
X1371737Y-1049879D02*
G02*
X1386977Y-1034639I15240J0D01*
G75*
G01*
X1575018Y-1034639D02*
G02*
X1590258Y-1049879I0J-15240D01*
D12*
G75*
G01*
X-94264Y-4161302D02*
G03*
X-119156Y-4181368I-1317J-23840D01*
G75*
G01*
X-119156Y-4736358D02*
G03*
X-99344Y-4761250I23837J-1358D01*
D10*
G75*
G01*
X4932111Y-7538245D02*
G03*
X4947351Y-7523005I0J15240D01*
G75*
G01*
X4947351Y-7334964D02*
G03*
X4932111Y-7319724I-15240J0D01*
G75*
G01*
X4449872Y-7538245D02*
G02*
X4434632Y-7523005I0J15240D01*
G75*
G01*
X4434632Y-7334964D02*
G02*
X4449872Y-7319724I15240J0D01*
G75*
G01*
X692737Y-6764106D02*
G03*
X707977Y-6779346I15240J0D01*
G75*
G01*
X896018Y-6779346D02*
G03*
X911258Y-6764106I0J15240D01*
G75*
G01*
X692737Y-6281867D02*
G02*
X707977Y-6266627I15240J0D01*
G75*
G01*
X896018Y-6266627D02*
G02*
X911258Y-6281867I0J-15240D01*
D12*
G75*
G01*
X4810041Y-4855246D02*
G03*
X4810041Y-4862358I-399984J-3556D01*
D10*
G75*
G01*
X5193251Y-4603872D02*
G03*
X5178011Y-4588632I-15240J0D01*
G75*
G01*
X4989970Y-4588632D02*
G03*
X4974730Y-4603872I0J-15240D01*
G75*
G01*
X5193251Y-5086111D02*
G02*
X5178011Y-5101351I-15240J0D01*
G75*
G01*
X4989970Y-5101351D02*
G02*
X4974730Y-5086111I0J15240D01*
G75*
G01*
X5686869Y-3687732D02*
G03*
X5671629Y-3702972I0J-15240D01*
G75*
G01*
X5671629Y-3891013D02*
G03*
X5686869Y-3906253I15240J0D01*
G75*
G01*
X6169109Y-3687732D02*
G02*
X6184349Y-3702972I0J-15240D01*
G75*
G01*
X6184349Y-3891013D02*
G02*
X6169109Y-3906253I-15240J0D01*
G75*
G01*
X11458097Y-3032255D02*
G03*
X11473337Y-3017015I0J15240D01*
G75*
G01*
X11473337Y-2828973D02*
G03*
X11458097Y-2813733I-15240J0D01*
G75*
G01*
X10975858Y-3032255D02*
G02*
X10960618Y-3017015I0J15240D01*
G75*
G01*
X10960618Y-2828973D02*
G02*
X10975858Y-2813733I15240J0D01*
G75*
G01*
X163789Y-6766126D02*
G03*
X179029Y-6781366I15240J0D01*
G75*
G01*
X367071Y-6781366D02*
G03*
X382311Y-6766126I0J15240D01*
G75*
G01*
X163789Y-6283886D02*
G02*
X179029Y-6268646I15240J0D01*
G75*
G01*
X367071Y-6268646D02*
G02*
X382311Y-6283886I0J-15240D01*
D12*
G75*
G01
X2426843Y-7460488D02*
G03X2426843Y-7460488I-117094J0D01*
D16*
G75*
G01
X6120003Y-3187014D02*
G03X6120003Y-3187014I-250012J0D01*
G75*
G01
X11762994Y-1994002D02*
G03X11762994Y-1994002I-250012J0D01*
M02*
