G04 Layer: BottomSolderMaskLayer*
G04 EasyEDA v6.5.48, 2025-01-21 18:12:01*
G04 3cc8b20af66c43ca95afa0c2ca323a4b,765c05e22f3a42938d5e8e897a1d4f6f,10*
G04 Gerber Generator version 0.2*
G04 Scale: 100 percent, Rotated: No, Reflected: No *
G04 Dimensions in millimeters *
G04 leading zeros omitted , absolute positions ,4 integer and 5 decimal *
%FSLAX45Y45*%
%MOMM*%

%AMMACRO1*4,1,8,-0.8466,-0.8763,-0.8763,-0.8465,-0.8763,0.8466,-0.8466,0.8763,0.8465,0.8763,0.8763,0.8466,0.8763,-0.8465,0.8465,-0.8763,-0.8466,-0.8763,0*%
%AMMACRO2*4,1,8,-1.0428,-1.1024,-1.1024,-1.0428,-1.1024,1.0428,-1.0428,1.1024,1.0428,1.1024,1.1024,1.0428,1.1024,-1.0428,1.0428,-1.1024,-1.0428,-1.1024,0*%
%AMMACRO3*4,1,8,-0.8711,-0.9008,-0.9008,-0.871,-0.9008,0.8711,-0.8711,0.9008,0.871,0.9008,0.9008,0.8711,0.9008,-0.871,0.871,-0.9008,-0.8711,-0.9008,0*%
%AMMACRO4*4,1,8,-1.5211,-1.5508,-1.5508,-1.521,-1.5508,1.5211,-1.5211,1.5508,1.521,1.5508,1.5508,1.5211,1.5508,-1.521,1.521,-1.5508,-1.5211,-1.5508,0*%
%AMMACRO5*4,1,8,-0.9421,-1.0516,-1.0016,-0.9921,-1.0016,0.9921,-0.9421,1.0516,0.9421,1.0516,1.0016,0.9921,1.0016,-0.9921,0.9421,-1.0516,-0.9421,-1.0516,0*%
%AMMACRO6*4,1,8,-0.7711,-0.7508,-0.8008,-0.721,-0.8008,0.7211,-0.7711,0.7508,0.771,0.7508,0.8008,0.7211,0.8008,-0.721,0.771,-0.7508,-0.7711,-0.7508,0*%
%ADD10MACRO1*%
%ADD11C,1.7526*%
%ADD12MACRO2*%
%ADD13C,2.2032*%
%ADD14C,1.8016*%
%ADD15MACRO3*%
%ADD16C,1.6256*%
%ADD17MACRO4*%
%ADD18C,3.1016*%
%ADD19MACRO5*%
%ADD20MACRO6*%
%ADD21C,1.5016*%
%ADD22C,1.7016*%
%ADD23C,1.4016*%

%LPD*%
D10*
G01*
X6106988Y-6682986D03*
D11*
G01*
X6360998Y-6682994D03*
G01*
X6614998Y-6682994D03*
D10*
G01*
X7730985Y-6697987D03*
D11*
G01*
X7984997Y-6697979D03*
G01*
X8238997Y-6697979D03*
D10*
G01*
X9334980Y-6690987D03*
D11*
G01*
X9588982Y-6690995D03*
G01*
X9842982Y-6690995D03*
D10*
G01*
X10865977Y-6658985D03*
D11*
G01*
X11119967Y-6658990D03*
G01*
X11373967Y-6658990D03*
D10*
G01*
X10902977Y-1139997D03*
D11*
G01*
X11156975Y-1140002D03*
G01*
X11410975Y-1140002D03*
D10*
G01*
X9562980Y-1133998D03*
D11*
G01*
X9816972Y-1134008D03*
G01*
X10070972Y-1134008D03*
D10*
G01*
X8092983Y-1137998D03*
D11*
G01*
X8346973Y-1137996D03*
G01*
X8600973Y-1137996D03*
D10*
G01*
X6279987Y-1161996D03*
D11*
G01*
X6533997Y-1161999D03*
G01*
X6787997Y-1161999D03*
D12*
G01*
X11587977Y-3487994D03*
D13*
G01*
X11333962Y-3488004D03*
G01*
X11079962Y-3488004D03*
G01*
X10825962Y-3488004D03*
G01*
X10571962Y-3488004D03*
G01*
X10317962Y-3488004D03*
D14*
G01*
X10320985Y-2892018D03*
D15*
G01*
X10320981Y-2637997D03*
D14*
G01*
X1143000Y-2431008D03*
D15*
G01*
X1142998Y-2176997D03*
D16*
G01*
X11383289Y-5902020D03*
G01*
X10875289Y-5902020D03*
G01*
X10621289Y-5902020D03*
G01*
X11129289Y-5902020D03*
G01*
X10367289Y-5902020D03*
G01*
X11129289Y-4378020D03*
G01*
X11383289Y-4378020D03*
G01*
X10113289Y-5902020D03*
G01*
X10113289Y-4378020D03*
G01*
X10367289Y-4378020D03*
G01*
X10621289Y-4378020D03*
G01*
X10875289Y-4378020D03*
G01*
X9859289Y-5902020D03*
G01*
X9351289Y-5902020D03*
G01*
X9097289Y-5902020D03*
G01*
X8843289Y-5902020D03*
G01*
X8589289Y-5902020D03*
G01*
X8335289Y-5902020D03*
G01*
X8081289Y-5902020D03*
G01*
X7827289Y-5902020D03*
G01*
X7573289Y-5902020D03*
G01*
X7319289Y-5902020D03*
G01*
X7065289Y-5902020D03*
G01*
X6811289Y-5902020D03*
G01*
X6557289Y-5902020D03*
G01*
X6303289Y-5902020D03*
G01*
X6049289Y-5902020D03*
G01*
X5795289Y-5902020D03*
G01*
X5541289Y-5902020D03*
G01*
X5541289Y-4378020D03*
G01*
X5795289Y-4378020D03*
G01*
X6049289Y-4378020D03*
G01*
X6303289Y-4378020D03*
G01*
X6557289Y-4378020D03*
G01*
X6811289Y-4378020D03*
G01*
X7065289Y-4378020D03*
G01*
X7319289Y-4378020D03*
G01*
X7573289Y-4378020D03*
G01*
X7827289Y-4378020D03*
G01*
X8081289Y-4378020D03*
G01*
X8335289Y-4378020D03*
G01*
X8589289Y-4378020D03*
G01*
X8843289Y-4378020D03*
G01*
X9097289Y-4378020D03*
G01*
X9351289Y-4378020D03*
G01*
X9859289Y-4378020D03*
G01*
X9605289Y-4378020D03*
G01*
X9605289Y-5902020D03*
D17*
G01*
X1582295Y-7416035D03*
D18*
G01*
X1582318Y-6361937D03*
G01*
X3385718Y-7416037D03*
G01*
X3385718Y-6361937D03*
D19*
G01*
X152115Y-3764859D03*
G01*
X152115Y-5164907D03*
G01*
X2438115Y-3764859D03*
G01*
X2438115Y-5161859D03*
G01*
X2438115Y-4082359D03*
G01*
X2438115Y-4844359D03*
D20*
G01*
X3762993Y-631997D03*
D21*
G01*
X3562984Y-632002D03*
D14*
G01*
X1139012Y-3053003D03*
D15*
G01*
X885000Y-3052992D03*
D22*
G01*
X4409998Y-5029987D03*
G01*
X4409998Y-4679975D03*
D23*
G01*
X5969990Y-3187014D03*
G01*
X5769990Y-3187014D03*
G01*
X11612981Y-1994001D03*
G01*
X11412981Y-1994001D03*
M02*
