G04 Layer: TopLayer*
G04 EasyEDA v6.5.48, 2025-01-21 18:12:01*
G04 3cc8b20af66c43ca95afa0c2ca323a4b,765c05e22f3a42938d5e8e897a1d4f6f,10*
G04 Gerber Generator version 0.2*
G04 Scale: 100 percent, Rotated: No, Reflected: No *
G04 Dimensions in millimeters *
G04 leading zeros omitted , absolute positions ,4 integer and 5 decimal *
%FSLAX45Y45*%
%MOMM*%

%AMMACRO1*21,1,$1,$2,0,0,$3*%
%ADD10C,0.2032*%
%ADD11C,1.0000*%
%ADD12C,1.3000*%
%ADD13C,1.7000*%
%ADD14C,1.5000*%
%ADD15C,2.0000*%
%ADD16R,1.6500X4.5000*%
%ADD17MACRO1,1.728X1.485X0.0000*%
%ADD18R,1.7280X1.4850*%
%ADD19MACRO1,1.728X1.485X90.0000*%
%ADD20R,4.5000X1.6500*%
%ADD21MACRO1,1.728X1.485X-90.0000*%
%ADD22R,1.6510X1.6510*%
%ADD23C,1.6510*%
%ADD24MACRO1,2.0015X2.0015X-90.0000*%
%ADD25R,1.7000X1.7000*%
%ADD26C,1.5240*%
%ADD27R,3.0000X3.0000*%
%ADD28C,3.0000*%
%ADD29R,1.8000X1.9000*%
%ADD30R,1.5000X1.4000*%
%ADD31C,1.4000*%
%ADD32C,1.6000*%
%ADD33C,0.0143*%

%LPD*%
G36*
X36068Y-7974075D02*
G01*
X32156Y-7973314D01*
X28905Y-7971078D01*
X26670Y-7967827D01*
X25908Y-7963916D01*
X25908Y-5284571D01*
X26670Y-5280660D01*
X28905Y-5277358D01*
X32156Y-5275173D01*
X36068Y-5274411D01*
X39979Y-5275173D01*
X43230Y-5277358D01*
X46024Y-5280101D01*
X50901Y-5283200D01*
X56388Y-5285079D01*
X62687Y-5285790D01*
X241554Y-5285790D01*
X247853Y-5285079D01*
X253339Y-5283200D01*
X258216Y-5280101D01*
X262331Y-5276037D01*
X265379Y-5271109D01*
X267309Y-5265674D01*
X268020Y-5259324D01*
X268020Y-5070500D01*
X267309Y-5064150D01*
X265379Y-5058714D01*
X262331Y-5053787D01*
X258216Y-5049723D01*
X253339Y-5046624D01*
X247853Y-5044694D01*
X241554Y-5043982D01*
X62687Y-5043982D01*
X56388Y-5044694D01*
X50901Y-5046624D01*
X46024Y-5049723D01*
X43230Y-5052466D01*
X39979Y-5054650D01*
X36068Y-5055412D01*
X32156Y-5054650D01*
X28905Y-5052466D01*
X26670Y-5049164D01*
X25908Y-5045252D01*
X25908Y-3884523D01*
X26670Y-3880612D01*
X28905Y-3877310D01*
X32156Y-3875125D01*
X36068Y-3874363D01*
X39979Y-3875125D01*
X43230Y-3877310D01*
X46024Y-3880053D01*
X50901Y-3883151D01*
X56388Y-3885031D01*
X62687Y-3885742D01*
X241554Y-3885742D01*
X247853Y-3885031D01*
X253339Y-3883151D01*
X258216Y-3880053D01*
X262331Y-3875989D01*
X265379Y-3871061D01*
X267309Y-3865626D01*
X268020Y-3859276D01*
X268020Y-3670452D01*
X267309Y-3664102D01*
X265379Y-3658666D01*
X262331Y-3653739D01*
X258216Y-3649675D01*
X253339Y-3646576D01*
X247853Y-3644646D01*
X241554Y-3643934D01*
X62687Y-3643934D01*
X56388Y-3644646D01*
X50901Y-3646576D01*
X46024Y-3649675D01*
X43230Y-3652418D01*
X39979Y-3654602D01*
X36068Y-3655364D01*
X32156Y-3654602D01*
X28905Y-3652418D01*
X26670Y-3649116D01*
X25908Y-3645204D01*
X25908Y-36068D01*
X26670Y-32156D01*
X28905Y-28905D01*
X32156Y-26670D01*
X36068Y-25908D01*
X11963908Y-25908D01*
X11967768Y-26670D01*
X11971070Y-28905D01*
X11973306Y-32156D01*
X11974068Y-36068D01*
X11974068Y-7963916D01*
X11973306Y-7967827D01*
X11971070Y-7971078D01*
X11967768Y-7973314D01*
X11963908Y-7974075D01*
G37*

%LPC*%
G36*
X11494973Y-7691526D02*
G01*
X11513972Y-7691069D01*
X11532870Y-7688681D01*
X11551412Y-7684465D01*
X11569446Y-7678420D01*
X11586819Y-7670546D01*
X11603278Y-7661046D01*
X11618722Y-7649921D01*
X11632996Y-7637373D01*
X11645950Y-7623403D01*
X11657431Y-7608214D01*
X11667388Y-7592009D01*
X11675618Y-7574838D01*
X11682120Y-7556957D01*
X11686844Y-7538516D01*
X11689689Y-7519720D01*
X11690604Y-7500721D01*
X11689689Y-7481671D01*
X11686844Y-7462875D01*
X11682120Y-7444435D01*
X11675618Y-7426553D01*
X11667388Y-7409383D01*
X11657431Y-7393178D01*
X11645950Y-7377988D01*
X11632996Y-7364018D01*
X11618722Y-7351471D01*
X11603278Y-7340346D01*
X11586819Y-7330846D01*
X11569446Y-7322972D01*
X11551412Y-7316927D01*
X11532870Y-7312710D01*
X11513972Y-7310323D01*
X11494973Y-7309866D01*
X11475974Y-7311288D01*
X11457228Y-7314590D01*
X11438940Y-7319721D01*
X11421211Y-7326680D01*
X11404295Y-7335367D01*
X11388293Y-7345680D01*
X11373408Y-7357567D01*
X11359794Y-7370876D01*
X11347551Y-7385456D01*
X11336832Y-7401153D01*
X11327739Y-7417866D01*
X11320322Y-7435392D01*
X11314734Y-7453579D01*
X11310975Y-7472222D01*
X11309045Y-7491171D01*
X11309045Y-7510221D01*
X11310975Y-7529169D01*
X11314734Y-7547813D01*
X11320322Y-7565999D01*
X11327739Y-7583525D01*
X11336832Y-7600238D01*
X11347551Y-7615936D01*
X11359794Y-7630515D01*
X11373408Y-7643825D01*
X11388293Y-7655712D01*
X11404295Y-7666024D01*
X11421211Y-7674711D01*
X11438940Y-7681671D01*
X11457228Y-7686802D01*
X11475974Y-7690103D01*
G37*
G36*
X495604Y-7690561D02*
G01*
X514654Y-7690053D01*
X533552Y-7687716D01*
X552094Y-7683449D01*
X570128Y-7677403D01*
X587451Y-7669580D01*
X603961Y-7660081D01*
X619404Y-7648956D01*
X633679Y-7636357D01*
X646633Y-7622387D01*
X658114Y-7607249D01*
X668020Y-7590993D01*
X676300Y-7573873D01*
X682802Y-7555992D01*
X687476Y-7537551D01*
X690321Y-7518704D01*
X691286Y-7499705D01*
X690321Y-7480706D01*
X687476Y-7461859D01*
X682802Y-7443419D01*
X676300Y-7425537D01*
X668020Y-7408418D01*
X658114Y-7392162D01*
X646633Y-7377023D01*
X633679Y-7363053D01*
X619404Y-7350455D01*
X603961Y-7339330D01*
X587451Y-7329830D01*
X570128Y-7322007D01*
X552094Y-7315962D01*
X533552Y-7311694D01*
X514654Y-7309358D01*
X495604Y-7308850D01*
X476656Y-7310272D01*
X457911Y-7313574D01*
X439572Y-7318756D01*
X421843Y-7325715D01*
X404926Y-7334402D01*
X388924Y-7344714D01*
X374091Y-7356551D01*
X360426Y-7369860D01*
X348234Y-7384440D01*
X337515Y-7400188D01*
X328371Y-7416901D01*
X321005Y-7434427D01*
X315366Y-7452614D01*
X311607Y-7471257D01*
X309727Y-7490206D01*
X309727Y-7509205D01*
X311607Y-7528153D01*
X315366Y-7546797D01*
X321005Y-7564983D01*
X328371Y-7582509D01*
X337515Y-7599222D01*
X348234Y-7614970D01*
X360426Y-7629550D01*
X374091Y-7642859D01*
X388924Y-7654696D01*
X404926Y-7665008D01*
X421843Y-7673695D01*
X439572Y-7680655D01*
X457911Y-7685836D01*
X476656Y-7689138D01*
G37*
G36*
X1812798Y-7677759D02*
G01*
X2025751Y-7677759D01*
X2032101Y-7677048D01*
X2037537Y-7675118D01*
X2042464Y-7672070D01*
X2046528Y-7667955D01*
X2049627Y-7663078D01*
X2051557Y-7657592D01*
X2052269Y-7651292D01*
X2052269Y-7112914D01*
X2051557Y-7106615D01*
X2049627Y-7101128D01*
X2046528Y-7096252D01*
X2042464Y-7092137D01*
X2037537Y-7089089D01*
X2032101Y-7087158D01*
X2025751Y-7086447D01*
X1812798Y-7086447D01*
X1806448Y-7087158D01*
X1801012Y-7089089D01*
X1796084Y-7092137D01*
X1792020Y-7096252D01*
X1788922Y-7101128D01*
X1787042Y-7106615D01*
X1786331Y-7112914D01*
X1786331Y-7651292D01*
X1787042Y-7657592D01*
X1788922Y-7663078D01*
X1792020Y-7667955D01*
X1796084Y-7672070D01*
X1801012Y-7675118D01*
X1806448Y-7677048D01*
G37*
G36*
X2982772Y-7659725D02*
G01*
X3195777Y-7659725D01*
X3202076Y-7659014D01*
X3207512Y-7657134D01*
X3212439Y-7654036D01*
X3216503Y-7649972D01*
X3219602Y-7645044D01*
X3221532Y-7639608D01*
X3222244Y-7633258D01*
X3222244Y-7521346D01*
X3223107Y-7517231D01*
X3225546Y-7513828D01*
X3229152Y-7511694D01*
X3233369Y-7511237D01*
X3237382Y-7512456D01*
X3240532Y-7515250D01*
X3250641Y-7528712D01*
X3262934Y-7542022D01*
X3276549Y-7553959D01*
X3291281Y-7564475D01*
X3304336Y-7571841D01*
X3304336Y-7497368D01*
X3232404Y-7497368D01*
X3228492Y-7496606D01*
X3225190Y-7494422D01*
X3223006Y-7491120D01*
X3222244Y-7487208D01*
X3222244Y-7344867D01*
X3223006Y-7340955D01*
X3225190Y-7337653D01*
X3228492Y-7335469D01*
X3232404Y-7334707D01*
X3304336Y-7334707D01*
X3304336Y-7260336D01*
X3299053Y-7262977D01*
X3283762Y-7272680D01*
X3269589Y-7283907D01*
X3256584Y-7296556D01*
X3245002Y-7310475D01*
X3240836Y-7316673D01*
X3237738Y-7319670D01*
X3233674Y-7321092D01*
X3229406Y-7320737D01*
X3225698Y-7318654D01*
X3223158Y-7315200D01*
X3222244Y-7311034D01*
X3222244Y-7094931D01*
X3221532Y-7088581D01*
X3219602Y-7083145D01*
X3216503Y-7078218D01*
X3212439Y-7074153D01*
X3207512Y-7071055D01*
X3202076Y-7069124D01*
X3195777Y-7068413D01*
X2982772Y-7068413D01*
X2976473Y-7069124D01*
X2970987Y-7071055D01*
X2966110Y-7074153D01*
X2961995Y-7078218D01*
X2958896Y-7083145D01*
X2957017Y-7088581D01*
X2956306Y-7094931D01*
X2956306Y-7633258D01*
X2957017Y-7639608D01*
X2958896Y-7645044D01*
X2961995Y-7649972D01*
X2966110Y-7654036D01*
X2970987Y-7657134D01*
X2976473Y-7659014D01*
G37*
G36*
X1663649Y-7591958D02*
G01*
X1731721Y-7591958D01*
X1738071Y-7591247D01*
X1743506Y-7589316D01*
X1748383Y-7586218D01*
X1752498Y-7582153D01*
X1755597Y-7577226D01*
X1757476Y-7571790D01*
X1758188Y-7565440D01*
X1758188Y-7497368D01*
X1663649Y-7497368D01*
G37*
G36*
X1432864Y-7591958D02*
G01*
X1500936Y-7591958D01*
X1500936Y-7497368D01*
X1406398Y-7497368D01*
X1406398Y-7565440D01*
X1407109Y-7571790D01*
X1408988Y-7577226D01*
X1412087Y-7582153D01*
X1416202Y-7586218D01*
X1421079Y-7589316D01*
X1426565Y-7591247D01*
G37*
G36*
X3467049Y-7571841D02*
G01*
X3480104Y-7564475D01*
X3494836Y-7553959D01*
X3508451Y-7542022D01*
X3520744Y-7528712D01*
X3531615Y-7514234D01*
X3540963Y-7498689D01*
X3541572Y-7497368D01*
X3467049Y-7497368D01*
G37*
G36*
X4893716Y-7541310D02*
G01*
X4923942Y-7541310D01*
X4930241Y-7540599D01*
X4935728Y-7538669D01*
X4940604Y-7535570D01*
X4944719Y-7531506D01*
X4947767Y-7526578D01*
X4949698Y-7521143D01*
X4950409Y-7514793D01*
X4950409Y-7478522D01*
X4893716Y-7478522D01*
G37*
G36*
X4776571Y-7541310D02*
G01*
X4806746Y-7541310D01*
X4806746Y-7478522D01*
X4750104Y-7478522D01*
X4750104Y-7514793D01*
X4750816Y-7521143D01*
X4752695Y-7526578D01*
X4755794Y-7531506D01*
X4759858Y-7535570D01*
X4764786Y-7538669D01*
X4770221Y-7540599D01*
G37*
G36*
X4458055Y-7541310D02*
G01*
X4605426Y-7541310D01*
X4611725Y-7540599D01*
X4617212Y-7538669D01*
X4622088Y-7535570D01*
X4626203Y-7531506D01*
X4629251Y-7526578D01*
X4631182Y-7521143D01*
X4631893Y-7514793D01*
X4631893Y-7478572D01*
X4632604Y-7474813D01*
X4637176Y-7463231D01*
X4640630Y-7449769D01*
X4642408Y-7435951D01*
X4642408Y-7422032D01*
X4640630Y-7408214D01*
X4637176Y-7394702D01*
X4632604Y-7383170D01*
X4631893Y-7379411D01*
X4631893Y-7343140D01*
X4631182Y-7336840D01*
X4629251Y-7331354D01*
X4626203Y-7326477D01*
X4622088Y-7322362D01*
X4617212Y-7319314D01*
X4611725Y-7317384D01*
X4605426Y-7316673D01*
X4509719Y-7316673D01*
X4505858Y-7315911D01*
X4502556Y-7313675D01*
X4132884Y-6944004D01*
X4130649Y-6940753D01*
X4129887Y-6936841D01*
X4129887Y-6489547D01*
X4130649Y-6485636D01*
X4132884Y-6482384D01*
X4136186Y-6480149D01*
X4140047Y-6479387D01*
X4243425Y-6479387D01*
X4249724Y-6478676D01*
X4255211Y-6476746D01*
X4260088Y-6473698D01*
X4264202Y-6469583D01*
X4267250Y-6464706D01*
X4269181Y-6459220D01*
X4269892Y-6452920D01*
X4269892Y-6289040D01*
X4269181Y-6282740D01*
X4267250Y-6277254D01*
X4264202Y-6272377D01*
X4260088Y-6268262D01*
X4255211Y-6265214D01*
X4249724Y-6263284D01*
X4243425Y-6262573D01*
X4043019Y-6262573D01*
X4032808Y-6260947D01*
X4025950Y-6260287D01*
X4018838Y-6260084D01*
X3534257Y-6260084D01*
X3529939Y-6259118D01*
X3526434Y-6256426D01*
X3514090Y-6241694D01*
X3512312Y-6238646D01*
X3511702Y-6235192D01*
X3511702Y-5191455D01*
X3512515Y-5187594D01*
X3514699Y-5184292D01*
X4482236Y-4216755D01*
X4485538Y-4214571D01*
X4489399Y-4213758D01*
X5194757Y-4213758D01*
X5198668Y-4214571D01*
X5201970Y-4216755D01*
X5356047Y-4370832D01*
X5358231Y-4374134D01*
X5359044Y-4378045D01*
X5358231Y-4381906D01*
X5356047Y-4385208D01*
X5184394Y-4556861D01*
X5181092Y-4559046D01*
X5177231Y-4559858D01*
X4448860Y-4559858D01*
X4446422Y-4559554D01*
X4432706Y-4556150D01*
X4417618Y-4554321D01*
X4402378Y-4554321D01*
X4387291Y-4556150D01*
X4372559Y-4559808D01*
X4358335Y-4565192D01*
X4344873Y-4572254D01*
X4332376Y-4580890D01*
X4320997Y-4590948D01*
X4310888Y-4602327D01*
X4302252Y-4614824D01*
X4295190Y-4628286D01*
X4289806Y-4642510D01*
X4286199Y-4657293D01*
X4284319Y-4672380D01*
X4284319Y-4687570D01*
X4286199Y-4702657D01*
X4289806Y-4717440D01*
X4295190Y-4731664D01*
X4302252Y-4745126D01*
X4310888Y-4757623D01*
X4321200Y-4769205D01*
X4332274Y-4779975D01*
X4338116Y-4784852D01*
X4344263Y-4789373D01*
X4350613Y-4793488D01*
X4357268Y-4797247D01*
X4364075Y-4800549D01*
X4371136Y-4803444D01*
X4378299Y-4805934D01*
X4385614Y-4807966D01*
X4393082Y-4809591D01*
X4400600Y-4810709D01*
X4408170Y-4811420D01*
X4415942Y-4811674D01*
X5233416Y-4811674D01*
X5241188Y-4811420D01*
X5248757Y-4810709D01*
X5256276Y-4809591D01*
X5263692Y-4807966D01*
X5271008Y-4805934D01*
X5278221Y-4803444D01*
X5285232Y-4800549D01*
X5292090Y-4797247D01*
X5298694Y-4793488D01*
X5305094Y-4789373D01*
X5311190Y-4784852D01*
X5317032Y-4779975D01*
X5322722Y-4774641D01*
X5630113Y-4467250D01*
X5640374Y-4455668D01*
X5649010Y-4443171D01*
X5656072Y-4429709D01*
X5661456Y-4415485D01*
X5665114Y-4400702D01*
X5666943Y-4385614D01*
X5666943Y-4370425D01*
X5665114Y-4355338D01*
X5661456Y-4340555D01*
X5656072Y-4326331D01*
X5649010Y-4312869D01*
X5640374Y-4300372D01*
X5630113Y-4288790D01*
X5340299Y-3998976D01*
X5334609Y-3993642D01*
X5328767Y-3988765D01*
X5322671Y-3984244D01*
X5316270Y-3980129D01*
X5309666Y-3976370D01*
X5302808Y-3973068D01*
X5295798Y-3970172D01*
X5288584Y-3967683D01*
X5281269Y-3965651D01*
X5273852Y-3964025D01*
X5266334Y-3962908D01*
X5258765Y-3962196D01*
X5250992Y-3961942D01*
X4433214Y-3961942D01*
X4425442Y-3962196D01*
X4417872Y-3962908D01*
X4410354Y-3964025D01*
X4402937Y-3965651D01*
X4395622Y-3967683D01*
X4388408Y-3970172D01*
X4381398Y-3973068D01*
X4374540Y-3976370D01*
X4367936Y-3980129D01*
X4361535Y-3984244D01*
X4355388Y-3988765D01*
X4349546Y-3993642D01*
X4343908Y-3998976D01*
X3296869Y-5045964D01*
X3291586Y-5051602D01*
X3286709Y-5057444D01*
X3282187Y-5063591D01*
X3278073Y-5069992D01*
X3274314Y-5076596D01*
X3271012Y-5083454D01*
X3268116Y-5090464D01*
X3265627Y-5097678D01*
X3263595Y-5104993D01*
X3261969Y-5112410D01*
X3260852Y-5119928D01*
X3260140Y-5127498D01*
X3259886Y-5135270D01*
X3259886Y-6160058D01*
X3258972Y-6164275D01*
X3256381Y-6167780D01*
X3252571Y-6169812D01*
X3248253Y-6170117D01*
X3244189Y-6168542D01*
X3241141Y-6165443D01*
X3238550Y-6161278D01*
X3234436Y-6157214D01*
X3229559Y-6154115D01*
X3224072Y-6152235D01*
X3217773Y-6151524D01*
X3004769Y-6151524D01*
X2998470Y-6152235D01*
X2992983Y-6154115D01*
X2988106Y-6157214D01*
X2983992Y-6161278D01*
X2980893Y-6166205D01*
X2979013Y-6171641D01*
X2978302Y-6177991D01*
X2978302Y-6934250D01*
X2979013Y-6940600D01*
X2980893Y-6946036D01*
X2983992Y-6950964D01*
X2988106Y-6955028D01*
X2992983Y-6958126D01*
X2998470Y-6960057D01*
X3004769Y-6960768D01*
X3217773Y-6960768D01*
X3224072Y-6960057D01*
X3229559Y-6958126D01*
X3234436Y-6955028D01*
X3238550Y-6950964D01*
X3241598Y-6946036D01*
X3243529Y-6940600D01*
X3244240Y-6934250D01*
X3244240Y-6493611D01*
X3245053Y-6489700D01*
X3247288Y-6486347D01*
X3250692Y-6484162D01*
X3254654Y-6483451D01*
X3258565Y-6484366D01*
X3262934Y-6487922D01*
X3276549Y-6499860D01*
X3291281Y-6510375D01*
X3307029Y-6519265D01*
X3323640Y-6526530D01*
X3340912Y-6532016D01*
X3358642Y-6535724D01*
X3376625Y-6537604D01*
X3394760Y-6537604D01*
X3412744Y-6535724D01*
X3430473Y-6532016D01*
X3447745Y-6526530D01*
X3464356Y-6519265D01*
X3480104Y-6510375D01*
X3494836Y-6499860D01*
X3508451Y-6487922D01*
X3510991Y-6485128D01*
X3514394Y-6482740D01*
X3518458Y-6481876D01*
X3897934Y-6481876D01*
X3901795Y-6482638D01*
X3905097Y-6484874D01*
X3907332Y-6488176D01*
X3908094Y-6492036D01*
X3908145Y-6990334D01*
X3908958Y-7001052D01*
X3909415Y-7004202D01*
X3911600Y-7014718D01*
X3915918Y-7027976D01*
X3917137Y-7030872D01*
X3921861Y-7040575D01*
X3923436Y-7043318D01*
X3929379Y-7052309D01*
X3931259Y-7054850D01*
X3938270Y-7063028D01*
X4384954Y-7509713D01*
X4393133Y-7516723D01*
X4395673Y-7518603D01*
X4404664Y-7524546D01*
X4417110Y-7530846D01*
X4420006Y-7532065D01*
X4433265Y-7536383D01*
X4447082Y-7539075D01*
X4451654Y-7540548D01*
G37*
G36*
X4750104Y-7379411D02*
G01*
X4806746Y-7379411D01*
X4806746Y-7316673D01*
X4776571Y-7316673D01*
X4770221Y-7317384D01*
X4764786Y-7319314D01*
X4759858Y-7322362D01*
X4755794Y-7326477D01*
X4752695Y-7331354D01*
X4750816Y-7336840D01*
X4750104Y-7343140D01*
G37*
G36*
X4893716Y-7379411D02*
G01*
X4950409Y-7379411D01*
X4950409Y-7343140D01*
X4949698Y-7336840D01*
X4947767Y-7331354D01*
X4944719Y-7326477D01*
X4940604Y-7322362D01*
X4935728Y-7319314D01*
X4930241Y-7317384D01*
X4923942Y-7316673D01*
X4893716Y-7316673D01*
G37*
G36*
X3467049Y-7334707D02*
G01*
X3541369Y-7334707D01*
X3536492Y-7325461D01*
X3526383Y-7310475D01*
X3514801Y-7296556D01*
X3501796Y-7283907D01*
X3487623Y-7272680D01*
X3472332Y-7262977D01*
X3467049Y-7260336D01*
G37*
G36*
X1663649Y-7334707D02*
G01*
X1758188Y-7334707D01*
X1758188Y-7266584D01*
X1757476Y-7260285D01*
X1755597Y-7254798D01*
X1752498Y-7249922D01*
X1748383Y-7245807D01*
X1743506Y-7242759D01*
X1738071Y-7240828D01*
X1731721Y-7240117D01*
X1663649Y-7240117D01*
G37*
G36*
X1406398Y-7334707D02*
G01*
X1500936Y-7334707D01*
X1500936Y-7240117D01*
X1432864Y-7240117D01*
X1426565Y-7240828D01*
X1421079Y-7242759D01*
X1416202Y-7245807D01*
X1412087Y-7249922D01*
X1408988Y-7254798D01*
X1407109Y-7260285D01*
X1406398Y-7266584D01*
G37*
G36*
X2635859Y-7182256D02*
G01*
X2848864Y-7182256D01*
X2855163Y-7181545D01*
X2860649Y-7179614D01*
X2865526Y-7176566D01*
X2869641Y-7172452D01*
X2872689Y-7167575D01*
X2874619Y-7162088D01*
X2875330Y-7155789D01*
X2875330Y-6139129D01*
X2874619Y-6132830D01*
X2872689Y-6127343D01*
X2869641Y-6122466D01*
X2865526Y-6118352D01*
X2860649Y-6115253D01*
X2855163Y-6113373D01*
X2848864Y-6112662D01*
X2635859Y-6112662D01*
X2629560Y-6113373D01*
X2624074Y-6115253D01*
X2619197Y-6118352D01*
X2615082Y-6122466D01*
X2612034Y-6127343D01*
X2610104Y-6132830D01*
X2609392Y-6139129D01*
X2609392Y-7155789D01*
X2610104Y-7162088D01*
X2612034Y-7167575D01*
X2615082Y-7172452D01*
X2619197Y-7176566D01*
X2624074Y-7179614D01*
X2629560Y-7181545D01*
G37*
G36*
X8238998Y-6806438D02*
G01*
X8253120Y-6805472D01*
X8267039Y-6802729D01*
X8280501Y-6798157D01*
X8293201Y-6791909D01*
X8304987Y-6784035D01*
X8315655Y-6774688D01*
X8325002Y-6764020D01*
X8332876Y-6752183D01*
X8339175Y-6739483D01*
X8343747Y-6726072D01*
X8346490Y-6712153D01*
X8347405Y-6697980D01*
X8346490Y-6683857D01*
X8343747Y-6669938D01*
X8339175Y-6656476D01*
X8332876Y-6643776D01*
X8325002Y-6631990D01*
X8315655Y-6621322D01*
X8304987Y-6611975D01*
X8293201Y-6604101D01*
X8280501Y-6597802D01*
X8267039Y-6593230D01*
X8253120Y-6590487D01*
X8238998Y-6589572D01*
X8224824Y-6590487D01*
X8210905Y-6593230D01*
X8197494Y-6597802D01*
X8184743Y-6604101D01*
X8172958Y-6611975D01*
X8162290Y-6621322D01*
X8152942Y-6631990D01*
X8145068Y-6643776D01*
X8138820Y-6656476D01*
X8134248Y-6669938D01*
X8131454Y-6683857D01*
X8130540Y-6697980D01*
X8131454Y-6712153D01*
X8134248Y-6726072D01*
X8138820Y-6739483D01*
X8145068Y-6752183D01*
X8152942Y-6764020D01*
X8162290Y-6774688D01*
X8172958Y-6784035D01*
X8184743Y-6791909D01*
X8197494Y-6798157D01*
X8210905Y-6802729D01*
X8224824Y-6805472D01*
G37*
G36*
X7649006Y-6806438D02*
G01*
X7812989Y-6806438D01*
X7819288Y-6805726D01*
X7824724Y-6803847D01*
X7829651Y-6800748D01*
X7833715Y-6796633D01*
X7836814Y-6791756D01*
X7838744Y-6786270D01*
X7839456Y-6779971D01*
X7839456Y-6702094D01*
X7840218Y-6698132D01*
X7842503Y-6694830D01*
X7860131Y-6677507D01*
X7863535Y-6675272D01*
X7867497Y-6674561D01*
X7871459Y-6675475D01*
X7874762Y-6677914D01*
X7876844Y-6681368D01*
X7877352Y-6685381D01*
X7876540Y-6697980D01*
X7877454Y-6712153D01*
X7880248Y-6726072D01*
X7884820Y-6739483D01*
X7891068Y-6752183D01*
X7898942Y-6764020D01*
X7908290Y-6774688D01*
X7918958Y-6784035D01*
X7930743Y-6791909D01*
X7943494Y-6798157D01*
X7956905Y-6802729D01*
X7970824Y-6805472D01*
X7984998Y-6806438D01*
X7999120Y-6805472D01*
X8013039Y-6802729D01*
X8026501Y-6798157D01*
X8039201Y-6791909D01*
X8050987Y-6784035D01*
X8061655Y-6774688D01*
X8071002Y-6764020D01*
X8078876Y-6752183D01*
X8085175Y-6739483D01*
X8089747Y-6726072D01*
X8092490Y-6712153D01*
X8093405Y-6697980D01*
X8092490Y-6683857D01*
X8089747Y-6669938D01*
X8085175Y-6656476D01*
X8078876Y-6643776D01*
X8071002Y-6631990D01*
X8061655Y-6621322D01*
X8050987Y-6611975D01*
X8039201Y-6604101D01*
X8026501Y-6597802D01*
X8013039Y-6593230D01*
X7999120Y-6590487D01*
X7984998Y-6589572D01*
X7974330Y-6590233D01*
X7970266Y-6589674D01*
X7966760Y-6587591D01*
X7964373Y-6584289D01*
X7963509Y-6580276D01*
X7964271Y-6576263D01*
X7966506Y-6572859D01*
X8211210Y-6332321D01*
X8214512Y-6330137D01*
X8218322Y-6329375D01*
X9371584Y-6329375D01*
X9375444Y-6330137D01*
X9378746Y-6332372D01*
X9380982Y-6335674D01*
X9381744Y-6339535D01*
X9380982Y-6343446D01*
X9378746Y-6346748D01*
X9279483Y-6446113D01*
X9273794Y-6452920D01*
X9272371Y-6454952D01*
X9267799Y-6462572D01*
X9266682Y-6464757D01*
X9263278Y-6472986D01*
X9262516Y-6475323D01*
X9260382Y-6483908D01*
X9259976Y-6486347D01*
X9259112Y-6495186D01*
X9259062Y-6572758D01*
X9258401Y-6576364D01*
X9256471Y-6579514D01*
X9253575Y-6581800D01*
X9250070Y-6582867D01*
X9246666Y-6583222D01*
X9241231Y-6585153D01*
X9236303Y-6588252D01*
X9232239Y-6592316D01*
X9229140Y-6597243D01*
X9227210Y-6602679D01*
X9226499Y-6609029D01*
X9226499Y-6772960D01*
X9227210Y-6779310D01*
X9229140Y-6784746D01*
X9232239Y-6789674D01*
X9236303Y-6793738D01*
X9241231Y-6796836D01*
X9246666Y-6798716D01*
X9253016Y-6799427D01*
X9416948Y-6799427D01*
X9423298Y-6798716D01*
X9428734Y-6796836D01*
X9433661Y-6793738D01*
X9437725Y-6789674D01*
X9440824Y-6784746D01*
X9442704Y-6779310D01*
X9443415Y-6772960D01*
X9443415Y-6609029D01*
X9442704Y-6602679D01*
X9440824Y-6597243D01*
X9437725Y-6592316D01*
X9433661Y-6588252D01*
X9428734Y-6585153D01*
X9423298Y-6583222D01*
X9419894Y-6582867D01*
X9416389Y-6581800D01*
X9413494Y-6579514D01*
X9411563Y-6576364D01*
X9410903Y-6572758D01*
X9410903Y-6533489D01*
X9411665Y-6529628D01*
X9413849Y-6526326D01*
X9607296Y-6332880D01*
X9610598Y-6330645D01*
X9614509Y-6329883D01*
X10950295Y-6329883D01*
X10954207Y-6330645D01*
X10957509Y-6332880D01*
X10959693Y-6336182D01*
X10960455Y-6340043D01*
X10959693Y-6343954D01*
X10957509Y-6347256D01*
X10811357Y-6493306D01*
X10805718Y-6500114D01*
X10804296Y-6502146D01*
X10798556Y-6511950D01*
X10794390Y-6522516D01*
X10792256Y-6531102D01*
X10791850Y-6533540D01*
X10791139Y-6541566D01*
X10790224Y-6544919D01*
X10788243Y-6547764D01*
X10785449Y-6549796D01*
X10782147Y-6550761D01*
X10777677Y-6551218D01*
X10772190Y-6553149D01*
X10767314Y-6556248D01*
X10763199Y-6560312D01*
X10760151Y-6565239D01*
X10758220Y-6570675D01*
X10757509Y-6577025D01*
X10757509Y-6740956D01*
X10758220Y-6747306D01*
X10760151Y-6752742D01*
X10763199Y-6757670D01*
X10767314Y-6761734D01*
X10772190Y-6764832D01*
X10777677Y-6766712D01*
X10783976Y-6767423D01*
X10947958Y-6767423D01*
X10954258Y-6766712D01*
X10959744Y-6764832D01*
X10964621Y-6761734D01*
X10968736Y-6757670D01*
X10971834Y-6752742D01*
X10973714Y-6747306D01*
X10974425Y-6740956D01*
X10974425Y-6577025D01*
X10973714Y-6570675D01*
X10971834Y-6565239D01*
X10969294Y-6561226D01*
X10967974Y-6558076D01*
X10967821Y-6554673D01*
X10968736Y-6551422D01*
X10970717Y-6548628D01*
X11186668Y-6332880D01*
X11189970Y-6330645D01*
X11193830Y-6329883D01*
X11304676Y-6329883D01*
X11311839Y-6329375D01*
X11389461Y-6329324D01*
X11398605Y-6328511D01*
X11400739Y-6328156D01*
X11409629Y-6325971D01*
X11420195Y-6321755D01*
X11422126Y-6320790D01*
X11430000Y-6316065D01*
X11438839Y-6309004D01*
X11644528Y-6104585D01*
X11651640Y-6095746D01*
X11657330Y-6085890D01*
X11660632Y-6077966D01*
X11661495Y-6075375D01*
X11663578Y-6066993D01*
X11664035Y-6064300D01*
X11664848Y-6055715D01*
X11664848Y-5605627D01*
X11664035Y-5596839D01*
X11663629Y-5594350D01*
X11661495Y-5585764D01*
X11657330Y-5575198D01*
X11651589Y-5565394D01*
X11650167Y-5563362D01*
X11644528Y-5556554D01*
X11167567Y-5080355D01*
X11160658Y-5074666D01*
X11158728Y-5073294D01*
X11148923Y-5067554D01*
X11140643Y-5064150D01*
X11138357Y-5063388D01*
X11129670Y-5061254D01*
X11127282Y-5060848D01*
X11118392Y-5060035D01*
X6388455Y-5059984D01*
X6384544Y-5059222D01*
X6381242Y-5056987D01*
X6128156Y-4803902D01*
X6125921Y-4800600D01*
X6125159Y-4796688D01*
X6125159Y-4449775D01*
X6125718Y-4446422D01*
X6127343Y-4443476D01*
X6133439Y-4435754D01*
X6140399Y-4424019D01*
X6145733Y-4411472D01*
X6149340Y-4398314D01*
X6151168Y-4384802D01*
X6151473Y-4381144D01*
X6152489Y-4378706D01*
X6155791Y-4372965D01*
X6158992Y-4365244D01*
X6159855Y-4362653D01*
X6161938Y-4354271D01*
X6162395Y-4351578D01*
X6163208Y-4342993D01*
X6163259Y-3917187D01*
X6164122Y-3913124D01*
X6166510Y-3909720D01*
X6170066Y-3907586D01*
X6172708Y-3906672D01*
X6177584Y-3903573D01*
X6181699Y-3899509D01*
X6184798Y-3894582D01*
X6186678Y-3889146D01*
X6187389Y-3882796D01*
X6187389Y-3711143D01*
X6186678Y-3704844D01*
X6184798Y-3699357D01*
X6181699Y-3694480D01*
X6177584Y-3690365D01*
X6172708Y-3687318D01*
X6169964Y-3686352D01*
X6166408Y-3684219D01*
X6164021Y-3680815D01*
X6163157Y-3676751D01*
X6163106Y-3301593D01*
X6162294Y-3292754D01*
X6159754Y-3281934D01*
X6157772Y-3276701D01*
X6157112Y-3272840D01*
X6157976Y-3269030D01*
X6160211Y-3265830D01*
X6163462Y-3263646D01*
X6167272Y-3262934D01*
X9113621Y-3262782D01*
X9122460Y-3261969D01*
X9124899Y-3261563D01*
X9133535Y-3259429D01*
X9135872Y-3258667D01*
X9144101Y-3255264D01*
X9146286Y-3254146D01*
X9153906Y-3249523D01*
X9162745Y-3242462D01*
X10800334Y-1604924D01*
X10803636Y-1602689D01*
X10807547Y-1601927D01*
X11274196Y-1601927D01*
X11278108Y-1602689D01*
X11281410Y-1604924D01*
X11533987Y-1857502D01*
X11536222Y-1860804D01*
X11536984Y-1864715D01*
X11536984Y-1941271D01*
X11536680Y-1943760D01*
X11535765Y-1946046D01*
X11529974Y-1957019D01*
X11525605Y-1968906D01*
X11522811Y-1982368D01*
X11521236Y-1986076D01*
X11518290Y-1988870D01*
X11514531Y-1990343D01*
X11510518Y-1990191D01*
X11506860Y-1988515D01*
X11504168Y-1985518D01*
X11502796Y-1981707D01*
X11501882Y-1975104D01*
X11498376Y-1962912D01*
X11493246Y-1951329D01*
X11486489Y-1940560D01*
X11478361Y-1930857D01*
X11468912Y-1922373D01*
X11458397Y-1915312D01*
X11447018Y-1909724D01*
X11434978Y-1905812D01*
X11422481Y-1903628D01*
X11409781Y-1903171D01*
X11397183Y-1904492D01*
X11384889Y-1907539D01*
X11373154Y-1912315D01*
X11362131Y-1918665D01*
X11352174Y-1926437D01*
X11343335Y-1935581D01*
X11335918Y-1945843D01*
X11329974Y-1957019D01*
X11325606Y-1968957D01*
X11324844Y-1972462D01*
X11323878Y-1975205D01*
X11322100Y-1977542D01*
X11002213Y-2297480D01*
X10996523Y-2304338D01*
X10995101Y-2306370D01*
X10990529Y-2313990D01*
X10989411Y-2316175D01*
X10986008Y-2324404D01*
X10985246Y-2326741D01*
X10983112Y-2335326D01*
X10982706Y-2337765D01*
X10981842Y-2346604D01*
X10981791Y-2802737D01*
X10980978Y-2806801D01*
X10978540Y-2810205D01*
X10974984Y-2812338D01*
X10972241Y-2813304D01*
X10967364Y-2816402D01*
X10963249Y-2820466D01*
X10960201Y-2825394D01*
X10958271Y-2830830D01*
X10957560Y-2837180D01*
X10957560Y-3008833D01*
X10958271Y-3015132D01*
X10960201Y-3020618D01*
X10963249Y-3025495D01*
X10967364Y-3029610D01*
X10972241Y-3032658D01*
X10974984Y-3033623D01*
X10978540Y-3035757D01*
X10980978Y-3039160D01*
X10981791Y-3043224D01*
X10981791Y-3406038D01*
X10981232Y-3409340D01*
X10979658Y-3412286D01*
X10976356Y-3416503D01*
X10968532Y-3429508D01*
X10962233Y-3443427D01*
X10959998Y-3446576D01*
X10956747Y-3448659D01*
X10952988Y-3449421D01*
X10949178Y-3448659D01*
X10945926Y-3446576D01*
X10943691Y-3443427D01*
X10937443Y-3429508D01*
X10929569Y-3416503D01*
X10920222Y-3404514D01*
X10909452Y-3393744D01*
X10897514Y-3384397D01*
X10884458Y-3376523D01*
X10870641Y-3370275D01*
X10856112Y-3365754D01*
X10841177Y-3363010D01*
X10825988Y-3362096D01*
X10810798Y-3363010D01*
X10795863Y-3365754D01*
X10781334Y-3370275D01*
X10767466Y-3376523D01*
X10754461Y-3384397D01*
X10742472Y-3393744D01*
X10731754Y-3404514D01*
X10722356Y-3416503D01*
X10714532Y-3429508D01*
X10708233Y-3443427D01*
X10705998Y-3446576D01*
X10702747Y-3448659D01*
X10698988Y-3449421D01*
X10695178Y-3448659D01*
X10691926Y-3446576D01*
X10689691Y-3443427D01*
X10683443Y-3429508D01*
X10675569Y-3416503D01*
X10666222Y-3404514D01*
X10655452Y-3393744D01*
X10643514Y-3384397D01*
X10630458Y-3376523D01*
X10616641Y-3370275D01*
X10602112Y-3365754D01*
X10587177Y-3363010D01*
X10571988Y-3362096D01*
X10556798Y-3363010D01*
X10541863Y-3365754D01*
X10527334Y-3370275D01*
X10513466Y-3376523D01*
X10500461Y-3384397D01*
X10488472Y-3393744D01*
X10477754Y-3404514D01*
X10468356Y-3416503D01*
X10460532Y-3429508D01*
X10454233Y-3443427D01*
X10451998Y-3446576D01*
X10448747Y-3448659D01*
X10444988Y-3449421D01*
X10441178Y-3448659D01*
X10437926Y-3446576D01*
X10435691Y-3443427D01*
X10429443Y-3429508D01*
X10421569Y-3416503D01*
X10412222Y-3404514D01*
X10398760Y-3391052D01*
X10397388Y-3388309D01*
X10396931Y-3385261D01*
X10396931Y-2976981D01*
X10397794Y-2972866D01*
X10400639Y-2969158D01*
X10409834Y-2958338D01*
X10417606Y-2946400D01*
X10423753Y-2933598D01*
X10428224Y-2920136D01*
X10430967Y-2906166D01*
X10431881Y-2891993D01*
X10430967Y-2877820D01*
X10428224Y-2863850D01*
X10423753Y-2850388D01*
X10417606Y-2837586D01*
X10409834Y-2825648D01*
X10400639Y-2814878D01*
X10390124Y-2805277D01*
X10378440Y-2797149D01*
X10365841Y-2790596D01*
X10352532Y-2785668D01*
X10338663Y-2782519D01*
X10324541Y-2781147D01*
X10310317Y-2781604D01*
X10296296Y-2783890D01*
X10282682Y-2787954D01*
X10269677Y-2793695D01*
X10257536Y-2801061D01*
X10246410Y-2809900D01*
X10236555Y-2820111D01*
X10228072Y-2831490D01*
X10221061Y-2843885D01*
X10215727Y-2857042D01*
X10212120Y-2870809D01*
X10210342Y-2884881D01*
X10210342Y-2899105D01*
X10212120Y-2913176D01*
X10215727Y-2926943D01*
X10221061Y-2940100D01*
X10228072Y-2952496D01*
X10236555Y-2963875D01*
X10242245Y-2969768D01*
X10244378Y-2973019D01*
X10245140Y-2976829D01*
X10245140Y-3380486D01*
X10244683Y-3383534D01*
X10243312Y-3386277D01*
X10241229Y-3388512D01*
X10234472Y-3393744D01*
X10223754Y-3404514D01*
X10214356Y-3416503D01*
X10206532Y-3429508D01*
X10200284Y-3443376D01*
X10195763Y-3457854D01*
X10193020Y-3472840D01*
X10192105Y-3487978D01*
X10193020Y-3503168D01*
X10195763Y-3518103D01*
X10200284Y-3532632D01*
X10206532Y-3546500D01*
X10214356Y-3559505D01*
X10223754Y-3571494D01*
X10234472Y-3582212D01*
X10246461Y-3591610D01*
X10259466Y-3599484D01*
X10273334Y-3605682D01*
X10287863Y-3610203D01*
X10302798Y-3612946D01*
X10317988Y-3613861D01*
X10333177Y-3612946D01*
X10348112Y-3610203D01*
X10362641Y-3605682D01*
X10376458Y-3599484D01*
X10389514Y-3591610D01*
X10401452Y-3582212D01*
X10412222Y-3571494D01*
X10421569Y-3559505D01*
X10429443Y-3546500D01*
X10435691Y-3532581D01*
X10437926Y-3529431D01*
X10441178Y-3527298D01*
X10444988Y-3526586D01*
X10448747Y-3527298D01*
X10451998Y-3529431D01*
X10454233Y-3532581D01*
X10460532Y-3546500D01*
X10468356Y-3559505D01*
X10477754Y-3571494D01*
X10488472Y-3582212D01*
X10500461Y-3591610D01*
X10513466Y-3599484D01*
X10527334Y-3605682D01*
X10541863Y-3610203D01*
X10556798Y-3612946D01*
X10571988Y-3613861D01*
X10587177Y-3612946D01*
X10602112Y-3610203D01*
X10616641Y-3605682D01*
X10630458Y-3599484D01*
X10643514Y-3591610D01*
X10655452Y-3582212D01*
X10666222Y-3571494D01*
X10675569Y-3559505D01*
X10683443Y-3546500D01*
X10689691Y-3532581D01*
X10691926Y-3529431D01*
X10695178Y-3527298D01*
X10698988Y-3526586D01*
X10702747Y-3527298D01*
X10705998Y-3529431D01*
X10708233Y-3532581D01*
X10714532Y-3546500D01*
X10722356Y-3559505D01*
X10731754Y-3571494D01*
X10742472Y-3582212D01*
X10754461Y-3591610D01*
X10767466Y-3599484D01*
X10781334Y-3605682D01*
X10795863Y-3610203D01*
X10810798Y-3612946D01*
X10825988Y-3613861D01*
X10841177Y-3612946D01*
X10856112Y-3610203D01*
X10870641Y-3605682D01*
X10884458Y-3599484D01*
X10897514Y-3591610D01*
X10909452Y-3582212D01*
X10920222Y-3571494D01*
X10929569Y-3559505D01*
X10937443Y-3546500D01*
X10943691Y-3532581D01*
X10945926Y-3529431D01*
X10949178Y-3527298D01*
X10952988Y-3526586D01*
X10956747Y-3527298D01*
X10959998Y-3529431D01*
X10962233Y-3532581D01*
X10968532Y-3546500D01*
X10976356Y-3559505D01*
X10985754Y-3571494D01*
X10996472Y-3582212D01*
X11008461Y-3591610D01*
X11021466Y-3599484D01*
X11035334Y-3605682D01*
X11049863Y-3610203D01*
X11064798Y-3612946D01*
X11079988Y-3613861D01*
X11095177Y-3612946D01*
X11110112Y-3610203D01*
X11124641Y-3605682D01*
X11138458Y-3599484D01*
X11151514Y-3591610D01*
X11163452Y-3582212D01*
X11174222Y-3571494D01*
X11183569Y-3559505D01*
X11191443Y-3546500D01*
X11197691Y-3532581D01*
X11199926Y-3529431D01*
X11203178Y-3527298D01*
X11206988Y-3526586D01*
X11210747Y-3527298D01*
X11213998Y-3529431D01*
X11216233Y-3532581D01*
X11222532Y-3546500D01*
X11230356Y-3559505D01*
X11239754Y-3571494D01*
X11250472Y-3582212D01*
X11262461Y-3591610D01*
X11275466Y-3599484D01*
X11289334Y-3605682D01*
X11303863Y-3610203D01*
X11318798Y-3612946D01*
X11333988Y-3613861D01*
X11349177Y-3612946D01*
X11364112Y-3610203D01*
X11378641Y-3605682D01*
X11392458Y-3599484D01*
X11405514Y-3591610D01*
X11417452Y-3582212D01*
X11428222Y-3571494D01*
X11437569Y-3559505D01*
X11443208Y-3550208D01*
X11446205Y-3547008D01*
X11450269Y-3545433D01*
X11454638Y-3545636D01*
X11458498Y-3547719D01*
X11461140Y-3551174D01*
X11462054Y-3555441D01*
X11462054Y-3587445D01*
X11462766Y-3593744D01*
X11464696Y-3599230D01*
X11467795Y-3604107D01*
X11471859Y-3608222D01*
X11476786Y-3611270D01*
X11482222Y-3613200D01*
X11488572Y-3613912D01*
X11687403Y-3613912D01*
X11693753Y-3613200D01*
X11699189Y-3611270D01*
X11704066Y-3608222D01*
X11708180Y-3604107D01*
X11711279Y-3599230D01*
X11713159Y-3593744D01*
X11713870Y-3587445D01*
X11713870Y-3388563D01*
X11713159Y-3382264D01*
X11711279Y-3376777D01*
X11708180Y-3371900D01*
X11704066Y-3367786D01*
X11699189Y-3364687D01*
X11693753Y-3362807D01*
X11687403Y-3362096D01*
X11488572Y-3362096D01*
X11482222Y-3362807D01*
X11476786Y-3364687D01*
X11471859Y-3367786D01*
X11469471Y-3370173D01*
X11466169Y-3372358D01*
X11462308Y-3373120D01*
X11458397Y-3372358D01*
X11455095Y-3370173D01*
X11452910Y-3366871D01*
X11452148Y-3362960D01*
X11452148Y-3043224D01*
X11453012Y-3039160D01*
X11455400Y-3035757D01*
X11458956Y-3033623D01*
X11461699Y-3032658D01*
X11466576Y-3029610D01*
X11470690Y-3025495D01*
X11473738Y-3020618D01*
X11475669Y-3015132D01*
X11476380Y-3008833D01*
X11476380Y-2934360D01*
X11477142Y-2930448D01*
X11479377Y-2927146D01*
X11852554Y-2553919D01*
X11859615Y-2545080D01*
X11864238Y-2537460D01*
X11865356Y-2535275D01*
X11868759Y-2527046D01*
X11869521Y-2524709D01*
X11871655Y-2516073D01*
X11872061Y-2513634D01*
X11872874Y-2504795D01*
X11872874Y-2175408D01*
X11872061Y-2166569D01*
X11871655Y-2164130D01*
X11869521Y-2155494D01*
X11868759Y-2153158D01*
X11865356Y-2144928D01*
X11864238Y-2142744D01*
X11859615Y-2135124D01*
X11852554Y-2126284D01*
X11703913Y-1977593D01*
X11702338Y-1975561D01*
X11701322Y-1973173D01*
X11698376Y-1962912D01*
X11693245Y-1951329D01*
X11690350Y-1946706D01*
X11689181Y-1944116D01*
X11688775Y-1941322D01*
X11688724Y-1826412D01*
X11687911Y-1817573D01*
X11687505Y-1815134D01*
X11685371Y-1806498D01*
X11684609Y-1804162D01*
X11681206Y-1795932D01*
X11680088Y-1793748D01*
X11675465Y-1786128D01*
X11668404Y-1777288D01*
X11361623Y-1470507D01*
X11352784Y-1463446D01*
X11345164Y-1458823D01*
X11342979Y-1457706D01*
X11334750Y-1454302D01*
X11332413Y-1453540D01*
X11323777Y-1451406D01*
X11321338Y-1451000D01*
X11312499Y-1450187D01*
X10769244Y-1450187D01*
X10760405Y-1451000D01*
X10757966Y-1451406D01*
X10749330Y-1453540D01*
X10746994Y-1454302D01*
X10738764Y-1457706D01*
X10736580Y-1458823D01*
X10728960Y-1463446D01*
X10720120Y-1470507D01*
X9082532Y-3108045D01*
X9079230Y-3110280D01*
X9075318Y-3111042D01*
X8757818Y-3111042D01*
X8753957Y-3110280D01*
X8750655Y-3108045D01*
X8748471Y-3104743D01*
X8747658Y-3100882D01*
X8748471Y-3096971D01*
X8750655Y-3093669D01*
X10625429Y-1218895D01*
X10628731Y-1216660D01*
X10632643Y-1215898D01*
X10784738Y-1215898D01*
X10788396Y-1216558D01*
X10791545Y-1218488D01*
X10793780Y-1221384D01*
X10794847Y-1224940D01*
X10795254Y-1228293D01*
X10797133Y-1233779D01*
X10800232Y-1238656D01*
X10804296Y-1242771D01*
X10809224Y-1245819D01*
X10814659Y-1247749D01*
X10821009Y-1248460D01*
X10984941Y-1248460D01*
X10991291Y-1247749D01*
X10996726Y-1245819D01*
X11001654Y-1242771D01*
X11005718Y-1238656D01*
X11008817Y-1233779D01*
X11010747Y-1228293D01*
X11011458Y-1221994D01*
X11011458Y-1058011D01*
X11010747Y-1051712D01*
X11008817Y-1046226D01*
X11005718Y-1041349D01*
X11001654Y-1037234D01*
X10996726Y-1034186D01*
X10991291Y-1032256D01*
X10984941Y-1031544D01*
X10821009Y-1031544D01*
X10814659Y-1032256D01*
X10809224Y-1034186D01*
X10804296Y-1037234D01*
X10800232Y-1041349D01*
X10797133Y-1046226D01*
X10795254Y-1051712D01*
X10794847Y-1055065D01*
X10793780Y-1058621D01*
X10791545Y-1061516D01*
X10788396Y-1063447D01*
X10784738Y-1064107D01*
X10594340Y-1064158D01*
X10585500Y-1064971D01*
X10583062Y-1065377D01*
X10574426Y-1067511D01*
X10572089Y-1068273D01*
X10563860Y-1071676D01*
X10561675Y-1072794D01*
X10554055Y-1077417D01*
X10545216Y-1084478D01*
X8521598Y-3108045D01*
X8518296Y-3110280D01*
X8514384Y-3111042D01*
X7717840Y-3111042D01*
X7713929Y-3110280D01*
X7710627Y-3108045D01*
X7708442Y-3104743D01*
X7707680Y-3100882D01*
X7708442Y-3096971D01*
X7710627Y-3093669D01*
X9558883Y-1245412D01*
X9562185Y-1243228D01*
X9566097Y-1242466D01*
X9644938Y-1242466D01*
X9651288Y-1241755D01*
X9656724Y-1239824D01*
X9661652Y-1236776D01*
X9665716Y-1232662D01*
X9668814Y-1227785D01*
X9670745Y-1222298D01*
X9671456Y-1215999D01*
X9671456Y-1052017D01*
X9670745Y-1045718D01*
X9668814Y-1040231D01*
X9665716Y-1035354D01*
X9661652Y-1031240D01*
X9656724Y-1028141D01*
X9651288Y-1026261D01*
X9644938Y-1025550D01*
X9481007Y-1025550D01*
X9474657Y-1026261D01*
X9469221Y-1028141D01*
X9464294Y-1031240D01*
X9460230Y-1035354D01*
X9457131Y-1040231D01*
X9455251Y-1045718D01*
X9454540Y-1052017D01*
X9454540Y-1130909D01*
X9453727Y-1134770D01*
X9451543Y-1138072D01*
X7481570Y-3108045D01*
X7478268Y-3110280D01*
X7474407Y-3111042D01*
X6177788Y-3111042D01*
X6173927Y-3110280D01*
X6170625Y-3108045D01*
X6168440Y-3104743D01*
X6167628Y-3100882D01*
X6168440Y-3096971D01*
X6170625Y-3093669D01*
X8014868Y-1249426D01*
X8018170Y-1247241D01*
X8022031Y-1246479D01*
X8174939Y-1246479D01*
X8181289Y-1245768D01*
X8186724Y-1243838D01*
X8191652Y-1240739D01*
X8195716Y-1236675D01*
X8198815Y-1231747D01*
X8200745Y-1226312D01*
X8201456Y-1219962D01*
X8201456Y-1056030D01*
X8200745Y-1049680D01*
X8198815Y-1044244D01*
X8195716Y-1039317D01*
X8191652Y-1035253D01*
X8186724Y-1032154D01*
X8181289Y-1030274D01*
X8174939Y-1029563D01*
X8011007Y-1029563D01*
X8004657Y-1030274D01*
X7999222Y-1032154D01*
X7994345Y-1035253D01*
X7990230Y-1039317D01*
X7987131Y-1044244D01*
X7985252Y-1049680D01*
X7984540Y-1056030D01*
X7984540Y-1064615D01*
X7983931Y-1068070D01*
X7982153Y-1071118D01*
X7979460Y-1073404D01*
X7974126Y-1076756D01*
X7967268Y-1082395D01*
X6373266Y-2676347D01*
X6369964Y-2678531D01*
X6366052Y-2679344D01*
X6362192Y-2678531D01*
X6358890Y-2676347D01*
X6356654Y-2673045D01*
X6355892Y-2669184D01*
X6355892Y-1280210D01*
X6356553Y-1276604D01*
X6358483Y-1273454D01*
X6361379Y-1271168D01*
X6364935Y-1270101D01*
X6368288Y-1269746D01*
X6373774Y-1267815D01*
X6378651Y-1264767D01*
X6382766Y-1260652D01*
X6385814Y-1255776D01*
X6387744Y-1250289D01*
X6388455Y-1243990D01*
X6388455Y-1080008D01*
X6387744Y-1073708D01*
X6385814Y-1068222D01*
X6382766Y-1063345D01*
X6378651Y-1059230D01*
X6373774Y-1056182D01*
X6368288Y-1054252D01*
X6361988Y-1053541D01*
X6198006Y-1053541D01*
X6191707Y-1054252D01*
X6186220Y-1056182D01*
X6181344Y-1059230D01*
X6177229Y-1063345D01*
X6174130Y-1068222D01*
X6172250Y-1073708D01*
X6171539Y-1080008D01*
X6171539Y-1243990D01*
X6172250Y-1250289D01*
X6174130Y-1255776D01*
X6177229Y-1260652D01*
X6181344Y-1264767D01*
X6186220Y-1267815D01*
X6191707Y-1269746D01*
X6195060Y-1270101D01*
X6198616Y-1271168D01*
X6201511Y-1273454D01*
X6203442Y-1276604D01*
X6204102Y-1280210D01*
X6204102Y-2841294D01*
X6203340Y-2845206D01*
X6201105Y-2848508D01*
X5953404Y-3096209D01*
X5951220Y-3097834D01*
X5948680Y-3098850D01*
X5941923Y-3100578D01*
X5930138Y-3105302D01*
X5919165Y-3111652D01*
X5909157Y-3119475D01*
X5900369Y-3128568D01*
X5892901Y-3138830D01*
X5886958Y-3150006D01*
X5882640Y-3161944D01*
X5879846Y-3175406D01*
X5878220Y-3179064D01*
X5875324Y-3181858D01*
X5871565Y-3183331D01*
X5867552Y-3183178D01*
X5863894Y-3181502D01*
X5861151Y-3178505D01*
X5859830Y-3174695D01*
X5858865Y-3168091D01*
X5855411Y-3155899D01*
X5850229Y-3144316D01*
X5843524Y-3133598D01*
X5835345Y-3123844D01*
X5825947Y-3115360D01*
X5815431Y-3108299D01*
X5804052Y-3102711D01*
X5791962Y-3098800D01*
X5779465Y-3096615D01*
X5766816Y-3096158D01*
X5754217Y-3097479D01*
X5741924Y-3100578D01*
X5730138Y-3105302D01*
X5719165Y-3111652D01*
X5709158Y-3119475D01*
X5700369Y-3128568D01*
X5692902Y-3138830D01*
X5686958Y-3150006D01*
X5682640Y-3161944D01*
X5679998Y-3174339D01*
X5679084Y-3186988D01*
X5679998Y-3199638D01*
X5682640Y-3212033D01*
X5686958Y-3223971D01*
X5691632Y-3232759D01*
X5692495Y-3235045D01*
X5692800Y-3237484D01*
X5692800Y-3676751D01*
X5691987Y-3680815D01*
X5689549Y-3684219D01*
X5685993Y-3686352D01*
X5683250Y-3687318D01*
X5678373Y-3690365D01*
X5674258Y-3694480D01*
X5671210Y-3699357D01*
X5669280Y-3704844D01*
X5668568Y-3711143D01*
X5668568Y-3882796D01*
X5669280Y-3889146D01*
X5671210Y-3894582D01*
X5674258Y-3899509D01*
X5678373Y-3903573D01*
X5683250Y-3906672D01*
X5685993Y-3907637D01*
X5689549Y-3909771D01*
X5691987Y-3913174D01*
X5692800Y-3917238D01*
X5692851Y-4354017D01*
X5694019Y-4366056D01*
X5693206Y-4377994D01*
X5694121Y-4391609D01*
X5696813Y-4404969D01*
X5701284Y-4417822D01*
X5707430Y-4430014D01*
X5715152Y-4441240D01*
X5724296Y-4451350D01*
X5734710Y-4460189D01*
X5746242Y-4467504D01*
X5758586Y-4473244D01*
X5771642Y-4477308D01*
X5785053Y-4479544D01*
X5798718Y-4480001D01*
X5812282Y-4478629D01*
X5825540Y-4475480D01*
X5838240Y-4470603D01*
X5850229Y-4464050D01*
X5861202Y-4455922D01*
X5871006Y-4446473D01*
X5879439Y-4435754D01*
X5886399Y-4424019D01*
X5891733Y-4411472D01*
X5895340Y-4398314D01*
X5897168Y-4384802D01*
X5897168Y-4371187D01*
X5895340Y-4357674D01*
X5891733Y-4344517D01*
X5886399Y-4331970D01*
X5879439Y-4320235D01*
X5871006Y-4309516D01*
X5861202Y-4300016D01*
X5849924Y-4291787D01*
X5847130Y-4289501D01*
X5845251Y-4286402D01*
X5844641Y-4282846D01*
X5844641Y-3917238D01*
X5845505Y-3913174D01*
X5847892Y-3909771D01*
X5851448Y-3907637D01*
X5854192Y-3906672D01*
X5859119Y-3903573D01*
X5863183Y-3899509D01*
X5866282Y-3894582D01*
X5868162Y-3889146D01*
X5868873Y-3882796D01*
X5868873Y-3711143D01*
X5868162Y-3704844D01*
X5866282Y-3699357D01*
X5863183Y-3694480D01*
X5859119Y-3690365D01*
X5854192Y-3687318D01*
X5851448Y-3686352D01*
X5847892Y-3684219D01*
X5845505Y-3680815D01*
X5844641Y-3676751D01*
X5844641Y-3241548D01*
X5845048Y-3238754D01*
X5846165Y-3236163D01*
X5850229Y-3229660D01*
X5855411Y-3218078D01*
X5858916Y-3205835D01*
X5859881Y-3199536D01*
X5861253Y-3195777D01*
X5863945Y-3192830D01*
X5867603Y-3191154D01*
X5871616Y-3191052D01*
X5875375Y-3192475D01*
X5878271Y-3195269D01*
X5879846Y-3198926D01*
X5882640Y-3212033D01*
X5886958Y-3223971D01*
X5892901Y-3235147D01*
X5900369Y-3245408D01*
X5909157Y-3254552D01*
X5919165Y-3262325D01*
X5930138Y-3268675D01*
X5941923Y-3273450D01*
X5948730Y-3275126D01*
X5951270Y-3276142D01*
X5953455Y-3277819D01*
X6008370Y-3332734D01*
X6010554Y-3336036D01*
X6011316Y-3339896D01*
X6011316Y-3676751D01*
X6010503Y-3680815D01*
X6008065Y-3684219D01*
X6004560Y-3686352D01*
X6001766Y-3687318D01*
X5996889Y-3690365D01*
X5992774Y-3694480D01*
X5989726Y-3699357D01*
X5987796Y-3704844D01*
X5987084Y-3711143D01*
X5987084Y-3882796D01*
X5987796Y-3889146D01*
X5989726Y-3894582D01*
X5992774Y-3899509D01*
X5996889Y-3903573D01*
X6001766Y-3906672D01*
X6004661Y-3907688D01*
X6008217Y-3909822D01*
X6010605Y-3913225D01*
X6011468Y-3917289D01*
X6011468Y-4276750D01*
X6010757Y-4280509D01*
X6008674Y-4283760D01*
X6005576Y-4285996D01*
X6000242Y-4288485D01*
X5988710Y-4295800D01*
X5978296Y-4304588D01*
X5969152Y-4314698D01*
X5961430Y-4325975D01*
X5955284Y-4338116D01*
X5950813Y-4351020D01*
X5948121Y-4364380D01*
X5947206Y-4377994D01*
X5948121Y-4391609D01*
X5950813Y-4404969D01*
X5955284Y-4417822D01*
X5961430Y-4430014D01*
X5969152Y-4441240D01*
X5970727Y-4442968D01*
X5972657Y-4446117D01*
X5973368Y-4449775D01*
X5973419Y-4834991D01*
X5974232Y-4843830D01*
X5974638Y-4846269D01*
X5976772Y-4854905D01*
X5977534Y-4857242D01*
X5980938Y-4865471D01*
X5982055Y-4867656D01*
X5986678Y-4875276D01*
X5993739Y-4884115D01*
X6301028Y-5191404D01*
X6309868Y-5198465D01*
X6317488Y-5203088D01*
X6319672Y-5204206D01*
X6327902Y-5207609D01*
X6330238Y-5208371D01*
X6338874Y-5210505D01*
X6341313Y-5210911D01*
X6350152Y-5211724D01*
X11080191Y-5211775D01*
X11084052Y-5212537D01*
X11087354Y-5214772D01*
X11510111Y-5636818D01*
X11512296Y-5640120D01*
X11513108Y-5644032D01*
X11513108Y-6017006D01*
X11512296Y-6020917D01*
X11510111Y-6024219D01*
X11358727Y-6174638D01*
X11355476Y-6176822D01*
X11351564Y-6177584D01*
X6363258Y-6177635D01*
X6354521Y-6178448D01*
X6343446Y-6180988D01*
X6332880Y-6185154D01*
X6323076Y-6190894D01*
X6320993Y-6192367D01*
X6314236Y-6197955D01*
X6052413Y-6460286D01*
X6046724Y-6467195D01*
X6045352Y-6469126D01*
X6039612Y-6478930D01*
X6035446Y-6489496D01*
X6033312Y-6498183D01*
X6032906Y-6500571D01*
X6032093Y-6509461D01*
X6032042Y-6564680D01*
X6031382Y-6568287D01*
X6029452Y-6571437D01*
X6026556Y-6573672D01*
X6023000Y-6574739D01*
X6018682Y-6575247D01*
X6013246Y-6577126D01*
X6008319Y-6580225D01*
X6004255Y-6584340D01*
X6001156Y-6589217D01*
X5999226Y-6594703D01*
X5998514Y-6601002D01*
X5998514Y-6764985D01*
X5999226Y-6771284D01*
X6001156Y-6776770D01*
X6004255Y-6781647D01*
X6008319Y-6785762D01*
X6013246Y-6788810D01*
X6018682Y-6790740D01*
X6025032Y-6791452D01*
X6188964Y-6791452D01*
X6195314Y-6790740D01*
X6200749Y-6788810D01*
X6205626Y-6785762D01*
X6209741Y-6781647D01*
X6212840Y-6776770D01*
X6214719Y-6771284D01*
X6215430Y-6764985D01*
X6215430Y-6601002D01*
X6214719Y-6594703D01*
X6212840Y-6589217D01*
X6209741Y-6584340D01*
X6205626Y-6580225D01*
X6200749Y-6577126D01*
X6195314Y-6575247D01*
X6192875Y-6574993D01*
X6189319Y-6573875D01*
X6186424Y-6571640D01*
X6184493Y-6568490D01*
X6183833Y-6564884D01*
X6183833Y-6547662D01*
X6184595Y-6543751D01*
X6186830Y-6540500D01*
X6394500Y-6332372D01*
X6397802Y-6330188D01*
X6401714Y-6329375D01*
X7972806Y-6329375D01*
X7976717Y-6330188D01*
X7980019Y-6332372D01*
X7982203Y-6335725D01*
X7982966Y-6339586D01*
X7982153Y-6343497D01*
X7979918Y-6346799D01*
X7735976Y-6586626D01*
X7732725Y-6588759D01*
X7728864Y-6589522D01*
X7649006Y-6589522D01*
X7642707Y-6590233D01*
X7637221Y-6592163D01*
X7632344Y-6595211D01*
X7628229Y-6599326D01*
X7625130Y-6604203D01*
X7623251Y-6609689D01*
X7622540Y-6615988D01*
X7622540Y-6779971D01*
X7623251Y-6786270D01*
X7625130Y-6791756D01*
X7628229Y-6796633D01*
X7632344Y-6800748D01*
X7637221Y-6803847D01*
X7642707Y-6805726D01*
G37*
G36*
X9588957Y-6799427D02*
G01*
X9603130Y-6798513D01*
X9617049Y-6795719D01*
X9630460Y-6791147D01*
X9643211Y-6784898D01*
X9654997Y-6777024D01*
X9665665Y-6767677D01*
X9675012Y-6757009D01*
X9682886Y-6745224D01*
X9689185Y-6732473D01*
X9693706Y-6719062D01*
X9696500Y-6705142D01*
X9697415Y-6690969D01*
X9696500Y-6676847D01*
X9693706Y-6662928D01*
X9689185Y-6649466D01*
X9682886Y-6636766D01*
X9675012Y-6624980D01*
X9665665Y-6614312D01*
X9654997Y-6604965D01*
X9643211Y-6597091D01*
X9630460Y-6590792D01*
X9617049Y-6586270D01*
X9603130Y-6583476D01*
X9588957Y-6582562D01*
X9574834Y-6583476D01*
X9560915Y-6586270D01*
X9547504Y-6590792D01*
X9534753Y-6597091D01*
X9522968Y-6604965D01*
X9512300Y-6614312D01*
X9502952Y-6624980D01*
X9495078Y-6636766D01*
X9488779Y-6649466D01*
X9484258Y-6662928D01*
X9481464Y-6676847D01*
X9480550Y-6690969D01*
X9481464Y-6705142D01*
X9484258Y-6719062D01*
X9488779Y-6732473D01*
X9495078Y-6745224D01*
X9502952Y-6757009D01*
X9512300Y-6767677D01*
X9522968Y-6777024D01*
X9534753Y-6784898D01*
X9547504Y-6791147D01*
X9560915Y-6795719D01*
X9574834Y-6798513D01*
G37*
G36*
X9842957Y-6799427D02*
G01*
X9857130Y-6798513D01*
X9871049Y-6795719D01*
X9884460Y-6791147D01*
X9897211Y-6784898D01*
X9908997Y-6777024D01*
X9919665Y-6767677D01*
X9929012Y-6757009D01*
X9936886Y-6745224D01*
X9943185Y-6732473D01*
X9947706Y-6719062D01*
X9950500Y-6705142D01*
X9951415Y-6690969D01*
X9950500Y-6676847D01*
X9947706Y-6662928D01*
X9943185Y-6649466D01*
X9936886Y-6636766D01*
X9929012Y-6624980D01*
X9919665Y-6614312D01*
X9908997Y-6604965D01*
X9897211Y-6597091D01*
X9884460Y-6590792D01*
X9871049Y-6586270D01*
X9857130Y-6583476D01*
X9842957Y-6582562D01*
X9828834Y-6583476D01*
X9814915Y-6586270D01*
X9801504Y-6590792D01*
X9788753Y-6597091D01*
X9776968Y-6604965D01*
X9766300Y-6614312D01*
X9756952Y-6624980D01*
X9749078Y-6636766D01*
X9742779Y-6649466D01*
X9738258Y-6662928D01*
X9735464Y-6676847D01*
X9734550Y-6690969D01*
X9735464Y-6705142D01*
X9738258Y-6719062D01*
X9742779Y-6732473D01*
X9749078Y-6745224D01*
X9756952Y-6757009D01*
X9766300Y-6767677D01*
X9776968Y-6777024D01*
X9788753Y-6784898D01*
X9801504Y-6791147D01*
X9814915Y-6795719D01*
X9828834Y-6798513D01*
G37*
G36*
X6614972Y-6791401D02*
G01*
X6629146Y-6790486D01*
X6643065Y-6787743D01*
X6656476Y-6783171D01*
X6669227Y-6776872D01*
X6681012Y-6768998D01*
X6691680Y-6759651D01*
X6701028Y-6748983D01*
X6708902Y-6737197D01*
X6715150Y-6724497D01*
X6719722Y-6711035D01*
X6722516Y-6697116D01*
X6723430Y-6682994D01*
X6722516Y-6668820D01*
X6719722Y-6654901D01*
X6715150Y-6641490D01*
X6708902Y-6628790D01*
X6701028Y-6616953D01*
X6691680Y-6606286D01*
X6681012Y-6596938D01*
X6669227Y-6589064D01*
X6656476Y-6582816D01*
X6643065Y-6578244D01*
X6629146Y-6575501D01*
X6614972Y-6574536D01*
X6600850Y-6575501D01*
X6586931Y-6578244D01*
X6573469Y-6582816D01*
X6560769Y-6589064D01*
X6548983Y-6596938D01*
X6538315Y-6606286D01*
X6528968Y-6616953D01*
X6521094Y-6628790D01*
X6514795Y-6641490D01*
X6510223Y-6654901D01*
X6507480Y-6668820D01*
X6506565Y-6682994D01*
X6507480Y-6697116D01*
X6510223Y-6711035D01*
X6514795Y-6724497D01*
X6521094Y-6737197D01*
X6528968Y-6748983D01*
X6538315Y-6759651D01*
X6548983Y-6768998D01*
X6560769Y-6776872D01*
X6573469Y-6783171D01*
X6586931Y-6787743D01*
X6600850Y-6790486D01*
G37*
G36*
X6360972Y-6791401D02*
G01*
X6375146Y-6790486D01*
X6389065Y-6787743D01*
X6402476Y-6783171D01*
X6415227Y-6776872D01*
X6427012Y-6768998D01*
X6437680Y-6759651D01*
X6447028Y-6748983D01*
X6454902Y-6737197D01*
X6461150Y-6724497D01*
X6465722Y-6711035D01*
X6468516Y-6697116D01*
X6469430Y-6682994D01*
X6468516Y-6668820D01*
X6465722Y-6654901D01*
X6461150Y-6641490D01*
X6454902Y-6628790D01*
X6447028Y-6616953D01*
X6437680Y-6606286D01*
X6427012Y-6596938D01*
X6415227Y-6589064D01*
X6402476Y-6582816D01*
X6389065Y-6578244D01*
X6375146Y-6575501D01*
X6360972Y-6574536D01*
X6346850Y-6575501D01*
X6332931Y-6578244D01*
X6319469Y-6582816D01*
X6306769Y-6589064D01*
X6294983Y-6596938D01*
X6284315Y-6606286D01*
X6274968Y-6616953D01*
X6267094Y-6628790D01*
X6260795Y-6641490D01*
X6256223Y-6654901D01*
X6253480Y-6668820D01*
X6252565Y-6682994D01*
X6253480Y-6697116D01*
X6256223Y-6711035D01*
X6260795Y-6724497D01*
X6267094Y-6737197D01*
X6274968Y-6748983D01*
X6284315Y-6759651D01*
X6294983Y-6768998D01*
X6306769Y-6776872D01*
X6319469Y-6783171D01*
X6332931Y-6787743D01*
X6346850Y-6790486D01*
G37*
G36*
X187198Y-6784390D02*
G01*
X223520Y-6784390D01*
X223520Y-6727748D01*
X160731Y-6727748D01*
X160731Y-6757924D01*
X161442Y-6764274D01*
X163372Y-6769709D01*
X166420Y-6774637D01*
X170535Y-6778701D01*
X175412Y-6781800D01*
X180898Y-6783679D01*
G37*
G36*
X322580Y-6784390D02*
G01*
X358902Y-6784390D01*
X365201Y-6783679D01*
X370687Y-6781800D01*
X375564Y-6778701D01*
X379679Y-6774637D01*
X382727Y-6769709D01*
X384657Y-6764274D01*
X385368Y-6757924D01*
X385368Y-6727748D01*
X322580Y-6727748D01*
G37*
G36*
X851560Y-6782409D02*
G01*
X887831Y-6782409D01*
X894130Y-6781698D01*
X899617Y-6779768D01*
X904494Y-6776669D01*
X908608Y-6772605D01*
X911656Y-6767677D01*
X913587Y-6762242D01*
X914298Y-6755892D01*
X914298Y-6725716D01*
X851560Y-6725716D01*
G37*
G36*
X716178Y-6782409D02*
G01*
X752449Y-6782409D01*
X752449Y-6725716D01*
X689711Y-6725716D01*
X689711Y-6755892D01*
X690422Y-6762242D01*
X692302Y-6767677D01*
X695401Y-6772605D01*
X699465Y-6776669D01*
X704392Y-6779768D01*
X709828Y-6781698D01*
G37*
G36*
X11119967Y-6767423D02*
G01*
X11134140Y-6766509D01*
X11148060Y-6763715D01*
X11161471Y-6759143D01*
X11174171Y-6752894D01*
X11186007Y-6745020D01*
X11196675Y-6735673D01*
X11206022Y-6725005D01*
X11213896Y-6713220D01*
X11220145Y-6700469D01*
X11224717Y-6687058D01*
X11227511Y-6673138D01*
X11228425Y-6658965D01*
X11227511Y-6644843D01*
X11224717Y-6630924D01*
X11220145Y-6617512D01*
X11213896Y-6604762D01*
X11206022Y-6592976D01*
X11196675Y-6582308D01*
X11186007Y-6572961D01*
X11174171Y-6565087D01*
X11161471Y-6558788D01*
X11148060Y-6554266D01*
X11134140Y-6551472D01*
X11119967Y-6550558D01*
X11105845Y-6551472D01*
X11091926Y-6554266D01*
X11078464Y-6558788D01*
X11065764Y-6565087D01*
X11053978Y-6572961D01*
X11043310Y-6582308D01*
X11033963Y-6592976D01*
X11026089Y-6604762D01*
X11019790Y-6617512D01*
X11015218Y-6630924D01*
X11012474Y-6644843D01*
X11011560Y-6658965D01*
X11012474Y-6673138D01*
X11015218Y-6687058D01*
X11019790Y-6700469D01*
X11026089Y-6713220D01*
X11033963Y-6725005D01*
X11043310Y-6735673D01*
X11053978Y-6745020D01*
X11065764Y-6752894D01*
X11078464Y-6759143D01*
X11091926Y-6763715D01*
X11105845Y-6766509D01*
G37*
G36*
X11373967Y-6767423D02*
G01*
X11388140Y-6766509D01*
X11402060Y-6763715D01*
X11415471Y-6759143D01*
X11428171Y-6752894D01*
X11440007Y-6745020D01*
X11450675Y-6735673D01*
X11460022Y-6725005D01*
X11467896Y-6713220D01*
X11474145Y-6700469D01*
X11478717Y-6687058D01*
X11481511Y-6673138D01*
X11482425Y-6658965D01*
X11481511Y-6644843D01*
X11478717Y-6630924D01*
X11474145Y-6617512D01*
X11467896Y-6604762D01*
X11460022Y-6592976D01*
X11450675Y-6582308D01*
X11440007Y-6572961D01*
X11428171Y-6565087D01*
X11415471Y-6558788D01*
X11402060Y-6554266D01*
X11388140Y-6551472D01*
X11373967Y-6550558D01*
X11359845Y-6551472D01*
X11345926Y-6554266D01*
X11332464Y-6558788D01*
X11319764Y-6565087D01*
X11307978Y-6572961D01*
X11297310Y-6582308D01*
X11287963Y-6592976D01*
X11280089Y-6604762D01*
X11273790Y-6617512D01*
X11269218Y-6630924D01*
X11266474Y-6644843D01*
X11265560Y-6658965D01*
X11266474Y-6673138D01*
X11269218Y-6687058D01*
X11273790Y-6700469D01*
X11280089Y-6713220D01*
X11287963Y-6725005D01*
X11297310Y-6735673D01*
X11307978Y-6745020D01*
X11319764Y-6752894D01*
X11332464Y-6759143D01*
X11345926Y-6763715D01*
X11359845Y-6766509D01*
G37*
G36*
X322580Y-6640779D02*
G01*
X385368Y-6640779D01*
X385368Y-6610553D01*
X384657Y-6604253D01*
X382727Y-6598767D01*
X379679Y-6593890D01*
X375564Y-6589775D01*
X370687Y-6586728D01*
X365201Y-6584797D01*
X358902Y-6584086D01*
X322580Y-6584086D01*
G37*
G36*
X160731Y-6640779D02*
G01*
X223520Y-6640779D01*
X223520Y-6584086D01*
X187198Y-6584086D01*
X180898Y-6584797D01*
X175412Y-6586728D01*
X170535Y-6589775D01*
X166420Y-6593890D01*
X163372Y-6598767D01*
X161442Y-6604253D01*
X160731Y-6610553D01*
G37*
G36*
X851560Y-6638747D02*
G01*
X914298Y-6638747D01*
X914298Y-6608572D01*
X913587Y-6602222D01*
X911656Y-6596786D01*
X908608Y-6591858D01*
X904494Y-6587794D01*
X899617Y-6584696D01*
X894130Y-6582765D01*
X887831Y-6582054D01*
X851560Y-6582054D01*
G37*
G36*
X689711Y-6638747D02*
G01*
X752449Y-6638747D01*
X752449Y-6582054D01*
X716178Y-6582054D01*
X709828Y-6582765D01*
X704392Y-6584696D01*
X699465Y-6587794D01*
X695401Y-6591858D01*
X692302Y-6596786D01*
X690422Y-6602222D01*
X689711Y-6608572D01*
G37*
G36*
X1773224Y-6620814D02*
G01*
X1986178Y-6620814D01*
X1992528Y-6620103D01*
X1997964Y-6618224D01*
X2002891Y-6615125D01*
X2006955Y-6611010D01*
X2010054Y-6606133D01*
X2011984Y-6600647D01*
X2012696Y-6594348D01*
X2012696Y-6176111D01*
X2011984Y-6169812D01*
X2010054Y-6164326D01*
X2006955Y-6159449D01*
X2002891Y-6155334D01*
X1997964Y-6152286D01*
X1992528Y-6150356D01*
X1986178Y-6149644D01*
X1773224Y-6149644D01*
X1766874Y-6150356D01*
X1761439Y-6152286D01*
X1756511Y-6155334D01*
X1752447Y-6159449D01*
X1749348Y-6164326D01*
X1747469Y-6169812D01*
X1746757Y-6176111D01*
X1746757Y-6258356D01*
X1745843Y-6262573D01*
X1743303Y-6265976D01*
X1739544Y-6268059D01*
X1735277Y-6268415D01*
X1731213Y-6266992D01*
X1728165Y-6264046D01*
X1722983Y-6256375D01*
X1711401Y-6242456D01*
X1698396Y-6229807D01*
X1684223Y-6218580D01*
X1668525Y-6208674D01*
X1665528Y-6206388D01*
X1663598Y-6203238D01*
X1662887Y-6199581D01*
X1662836Y-5569661D01*
X1662023Y-5558942D01*
X1661566Y-5555792D01*
X1659382Y-5545226D01*
X1655064Y-5532018D01*
X1653844Y-5529072D01*
X1649120Y-5519420D01*
X1647545Y-5516676D01*
X1641652Y-5507685D01*
X1639722Y-5505145D01*
X1632712Y-5496966D01*
X1252880Y-5117033D01*
X1250696Y-5113731D01*
X1249883Y-5109870D01*
X1249883Y-3079750D01*
X1250137Y-3077616D01*
X1252575Y-3066186D01*
X1253032Y-3063087D01*
X1253845Y-3052318D01*
X1253896Y-2431338D01*
X1253032Y-2417114D01*
X1250391Y-2403398D01*
X1246124Y-2390190D01*
X1240180Y-2377592D01*
X1231849Y-2364638D01*
X1222654Y-2353868D01*
X1212138Y-2344318D01*
X1200454Y-2336139D01*
X1190040Y-2330551D01*
X1174750Y-2324709D01*
X1163624Y-2322017D01*
X1149807Y-2320290D01*
X1146708Y-2320137D01*
X1135888Y-2320340D01*
X1132484Y-2320594D01*
X1122070Y-2322068D01*
X1118463Y-2322830D01*
X1108608Y-2325573D01*
X1104798Y-2326894D01*
X1095654Y-2330704D01*
X1091793Y-2332634D01*
X1083462Y-2337409D01*
X1079652Y-2340000D01*
X1072235Y-2345588D01*
X1068476Y-2348839D01*
X1062126Y-2355138D01*
X1058621Y-2359050D01*
X1053236Y-2365857D01*
X1050086Y-2370429D01*
X1045768Y-2377592D01*
X1043076Y-2382824D01*
X1039876Y-2390190D01*
X1037742Y-2396032D01*
X1035558Y-2403449D01*
X1034135Y-2409799D01*
X1032967Y-2417114D01*
X1032306Y-2423871D01*
X1032103Y-2431135D01*
X1032103Y-3022295D01*
X1031849Y-3024428D01*
X1029512Y-3035452D01*
X1029004Y-3038957D01*
X1028141Y-3049574D01*
X1028141Y-5163312D01*
X1029411Y-5177180D01*
X1031595Y-5187746D01*
X1032459Y-5190794D01*
X1037132Y-5203901D01*
X1041908Y-5213553D01*
X1043482Y-5216296D01*
X1049375Y-5225288D01*
X1051255Y-5227828D01*
X1058265Y-5236006D01*
X1438097Y-5615940D01*
X1440332Y-5619242D01*
X1441094Y-5623153D01*
X1441094Y-6242659D01*
X1440332Y-6246571D01*
X1438097Y-6249873D01*
X1434795Y-6252057D01*
X1430934Y-6252819D01*
X271678Y-6252870D01*
X260908Y-6253734D01*
X257810Y-6254191D01*
X247243Y-6256375D01*
X244195Y-6257188D01*
X233984Y-6260693D01*
X231140Y-6261862D01*
X225958Y-6264503D01*
X223723Y-6265316D01*
X221335Y-6265621D01*
X187198Y-6265621D01*
X180898Y-6266332D01*
X175412Y-6268212D01*
X170535Y-6271310D01*
X166420Y-6275374D01*
X163372Y-6280302D01*
X161442Y-6285738D01*
X160731Y-6292088D01*
X160731Y-6439458D01*
X161442Y-6445758D01*
X163372Y-6451244D01*
X166420Y-6456121D01*
X170535Y-6460236D01*
X175412Y-6463284D01*
X180898Y-6465214D01*
X187198Y-6465925D01*
X223774Y-6465925D01*
X227787Y-6466738D01*
X235458Y-6470040D01*
X248818Y-6473952D01*
X262585Y-6476136D01*
X276504Y-6476542D01*
X290322Y-6475222D01*
X294132Y-6474663D01*
X1442821Y-6474663D01*
X1446885Y-6475476D01*
X1450289Y-6477914D01*
X1459534Y-6487922D01*
X1473149Y-6499860D01*
X1487881Y-6510375D01*
X1503629Y-6519265D01*
X1520240Y-6526530D01*
X1537512Y-6532016D01*
X1555242Y-6535724D01*
X1573225Y-6537604D01*
X1591360Y-6537604D01*
X1609344Y-6535724D01*
X1627073Y-6532016D01*
X1644345Y-6526530D01*
X1660956Y-6519265D01*
X1676704Y-6510375D01*
X1691436Y-6499860D01*
X1705051Y-6487922D01*
X1717344Y-6474612D01*
X1728470Y-6459829D01*
X1731619Y-6457086D01*
X1735632Y-6455816D01*
X1739798Y-6456273D01*
X1743405Y-6458407D01*
X1745843Y-6461810D01*
X1746757Y-6465925D01*
X1746757Y-6594348D01*
X1747469Y-6600647D01*
X1749348Y-6606133D01*
X1752447Y-6611010D01*
X1756511Y-6615125D01*
X1761439Y-6618224D01*
X1766874Y-6620103D01*
G37*
G36*
X4634534Y-6479387D02*
G01*
X4740148Y-6479387D01*
X4740148Y-6418580D01*
X4608068Y-6418580D01*
X4608068Y-6452920D01*
X4608779Y-6459220D01*
X4610709Y-6464706D01*
X4613757Y-6469583D01*
X4617872Y-6473698D01*
X4622749Y-6476746D01*
X4628235Y-6478676D01*
G37*
G36*
X4977841Y-6479387D02*
G01*
X5083403Y-6479387D01*
X5089753Y-6478676D01*
X5095189Y-6476746D01*
X5100116Y-6473698D01*
X5104180Y-6469583D01*
X5107279Y-6464706D01*
X5109159Y-6459220D01*
X5109870Y-6452920D01*
X5109870Y-6418580D01*
X4977841Y-6418580D01*
G37*
G36*
X4977841Y-6323380D02*
G01*
X5109870Y-6323380D01*
X5109870Y-6289040D01*
X5109159Y-6282740D01*
X5107279Y-6277254D01*
X5104180Y-6272377D01*
X5100116Y-6268262D01*
X5095189Y-6265214D01*
X5089753Y-6263284D01*
X5083403Y-6262573D01*
X4977841Y-6262573D01*
G37*
G36*
X4608068Y-6323380D02*
G01*
X4740148Y-6323380D01*
X4740148Y-6262573D01*
X4634534Y-6262573D01*
X4628235Y-6263284D01*
X4622749Y-6265214D01*
X4617872Y-6268262D01*
X4613757Y-6272377D01*
X4610709Y-6277254D01*
X4608779Y-6282740D01*
X4608068Y-6289040D01*
G37*
G36*
X8592718Y-6004001D02*
G01*
X8606282Y-6002629D01*
X8619540Y-5999480D01*
X8632240Y-5994603D01*
X8644229Y-5988050D01*
X8655202Y-5979922D01*
X8665006Y-5970473D01*
X8673439Y-5959754D01*
X8680399Y-5948019D01*
X8685733Y-5935472D01*
X8689340Y-5922314D01*
X8691168Y-5908802D01*
X8691168Y-5895187D01*
X8689340Y-5881674D01*
X8685733Y-5868517D01*
X8680399Y-5855970D01*
X8673439Y-5844235D01*
X8665006Y-5833516D01*
X8655202Y-5824016D01*
X8644229Y-5815939D01*
X8632240Y-5809386D01*
X8619540Y-5804509D01*
X8606282Y-5801309D01*
X8592718Y-5799937D01*
X8579053Y-5800394D01*
X8565642Y-5802680D01*
X8552586Y-5806744D01*
X8540242Y-5812485D01*
X8528710Y-5819800D01*
X8518296Y-5828588D01*
X8509152Y-5838698D01*
X8501430Y-5849975D01*
X8495284Y-5862116D01*
X8490813Y-5875020D01*
X8488121Y-5888380D01*
X8487206Y-5901994D01*
X8488121Y-5915609D01*
X8490813Y-5928969D01*
X8495284Y-5941822D01*
X8501430Y-5954014D01*
X8509152Y-5965240D01*
X8518296Y-5975350D01*
X8528710Y-5984189D01*
X8540242Y-5991504D01*
X8552586Y-5997244D01*
X8565642Y-6001308D01*
X8579053Y-6003544D01*
G37*
G36*
X8846718Y-6004001D02*
G01*
X8860282Y-6002629D01*
X8873540Y-5999480D01*
X8886240Y-5994603D01*
X8898229Y-5988050D01*
X8909202Y-5979922D01*
X8919006Y-5970473D01*
X8927439Y-5959754D01*
X8934399Y-5948019D01*
X8939733Y-5935472D01*
X8943340Y-5922314D01*
X8945168Y-5908802D01*
X8945168Y-5895187D01*
X8943340Y-5881674D01*
X8939733Y-5868517D01*
X8934399Y-5855970D01*
X8927439Y-5844235D01*
X8919006Y-5833516D01*
X8909202Y-5824016D01*
X8898229Y-5815939D01*
X8886240Y-5809386D01*
X8873540Y-5804509D01*
X8860282Y-5801309D01*
X8846718Y-5799937D01*
X8833053Y-5800394D01*
X8819642Y-5802680D01*
X8806586Y-5806744D01*
X8794242Y-5812485D01*
X8782710Y-5819800D01*
X8772296Y-5828588D01*
X8763152Y-5838698D01*
X8755430Y-5849975D01*
X8749284Y-5862116D01*
X8744813Y-5875020D01*
X8742121Y-5888380D01*
X8741206Y-5901994D01*
X8742121Y-5915609D01*
X8744813Y-5928969D01*
X8749284Y-5941822D01*
X8755430Y-5954014D01*
X8763152Y-5965240D01*
X8772296Y-5975350D01*
X8782710Y-5984189D01*
X8794242Y-5991504D01*
X8806586Y-5997244D01*
X8819642Y-6001308D01*
X8833053Y-6003544D01*
G37*
G36*
X8338718Y-6004001D02*
G01*
X8352281Y-6002629D01*
X8365540Y-5999480D01*
X8378240Y-5994603D01*
X8390229Y-5988050D01*
X8401202Y-5979922D01*
X8411006Y-5970473D01*
X8419439Y-5959754D01*
X8426399Y-5948019D01*
X8431733Y-5935472D01*
X8435340Y-5922314D01*
X8437168Y-5908802D01*
X8437168Y-5895187D01*
X8435340Y-5881674D01*
X8431733Y-5868517D01*
X8426399Y-5855970D01*
X8419439Y-5844235D01*
X8411006Y-5833516D01*
X8401202Y-5824016D01*
X8390229Y-5815939D01*
X8378240Y-5809386D01*
X8365540Y-5804509D01*
X8352281Y-5801309D01*
X8338718Y-5799937D01*
X8325053Y-5800394D01*
X8311642Y-5802680D01*
X8298586Y-5806744D01*
X8286242Y-5812485D01*
X8274710Y-5819800D01*
X8264296Y-5828588D01*
X8255152Y-5838698D01*
X8247430Y-5849975D01*
X8241284Y-5862116D01*
X8236813Y-5875020D01*
X8234121Y-5888380D01*
X8233206Y-5901994D01*
X8234121Y-5915609D01*
X8236813Y-5928969D01*
X8241284Y-5941822D01*
X8247430Y-5954014D01*
X8255152Y-5965240D01*
X8264296Y-5975350D01*
X8274710Y-5984189D01*
X8286242Y-5991504D01*
X8298586Y-5997244D01*
X8311642Y-6001308D01*
X8325053Y-6003544D01*
G37*
G36*
X9100718Y-6004001D02*
G01*
X9114282Y-6002629D01*
X9127540Y-5999480D01*
X9140240Y-5994603D01*
X9152229Y-5988050D01*
X9163202Y-5979922D01*
X9173006Y-5970473D01*
X9181439Y-5959754D01*
X9188399Y-5948019D01*
X9193733Y-5935472D01*
X9197340Y-5922314D01*
X9199168Y-5908802D01*
X9199168Y-5895187D01*
X9197340Y-5881674D01*
X9193733Y-5868517D01*
X9188399Y-5855970D01*
X9181439Y-5844235D01*
X9173006Y-5833516D01*
X9163202Y-5824016D01*
X9152229Y-5815939D01*
X9140240Y-5809386D01*
X9127540Y-5804509D01*
X9114282Y-5801309D01*
X9100718Y-5799937D01*
X9087053Y-5800394D01*
X9073642Y-5802680D01*
X9060586Y-5806744D01*
X9048242Y-5812485D01*
X9036710Y-5819800D01*
X9026296Y-5828588D01*
X9017152Y-5838698D01*
X9009430Y-5849975D01*
X9003284Y-5862116D01*
X8998813Y-5875020D01*
X8996121Y-5888380D01*
X8995206Y-5901994D01*
X8996121Y-5915609D01*
X8998813Y-5928969D01*
X9003284Y-5941822D01*
X9009430Y-5954014D01*
X9017152Y-5965240D01*
X9026296Y-5975350D01*
X9036710Y-5984189D01*
X9048242Y-5991504D01*
X9060586Y-5997244D01*
X9073642Y-6001308D01*
X9087053Y-6003544D01*
G37*
G36*
X8084718Y-6004001D02*
G01*
X8098281Y-6002629D01*
X8111540Y-5999480D01*
X8124240Y-5994603D01*
X8136229Y-5988050D01*
X8147202Y-5979922D01*
X8157006Y-5970473D01*
X8165439Y-5959754D01*
X8172399Y-5948019D01*
X8177733Y-5935472D01*
X8181340Y-5922314D01*
X8183168Y-5908802D01*
X8183168Y-5895187D01*
X8181340Y-5881674D01*
X8177733Y-5868517D01*
X8172399Y-5855970D01*
X8165439Y-5844235D01*
X8157006Y-5833516D01*
X8147202Y-5824016D01*
X8136229Y-5815939D01*
X8124240Y-5809386D01*
X8111540Y-5804509D01*
X8098281Y-5801309D01*
X8084718Y-5799937D01*
X8071053Y-5800394D01*
X8057642Y-5802680D01*
X8044586Y-5806744D01*
X8032242Y-5812485D01*
X8020710Y-5819800D01*
X8010296Y-5828588D01*
X8001152Y-5838698D01*
X7993430Y-5849975D01*
X7987284Y-5862116D01*
X7982813Y-5875020D01*
X7980121Y-5888380D01*
X7979206Y-5901994D01*
X7980121Y-5915609D01*
X7982813Y-5928969D01*
X7987284Y-5941822D01*
X7993430Y-5954014D01*
X8001152Y-5965240D01*
X8010296Y-5975350D01*
X8020710Y-5984189D01*
X8032242Y-5991504D01*
X8044586Y-5997244D01*
X8057642Y-6001308D01*
X8071053Y-6003544D01*
G37*
G36*
X9354718Y-6004001D02*
G01*
X9368282Y-6002629D01*
X9381540Y-5999480D01*
X9394240Y-5994603D01*
X9406229Y-5988050D01*
X9417202Y-5979922D01*
X9427006Y-5970473D01*
X9435439Y-5959754D01*
X9442399Y-5948019D01*
X9447733Y-5935472D01*
X9451340Y-5922314D01*
X9453168Y-5908802D01*
X9453168Y-5895187D01*
X9451340Y-5881674D01*
X9447733Y-5868517D01*
X9442399Y-5855970D01*
X9435439Y-5844235D01*
X9427006Y-5833516D01*
X9417202Y-5824016D01*
X9406229Y-5815939D01*
X9394240Y-5809386D01*
X9381540Y-5804509D01*
X9368282Y-5801309D01*
X9354718Y-5799937D01*
X9341053Y-5800394D01*
X9327642Y-5802680D01*
X9314586Y-5806744D01*
X9302242Y-5812485D01*
X9290710Y-5819800D01*
X9280296Y-5828588D01*
X9271152Y-5838698D01*
X9263430Y-5849975D01*
X9257284Y-5862116D01*
X9252813Y-5875020D01*
X9250121Y-5888380D01*
X9249206Y-5901994D01*
X9250121Y-5915609D01*
X9252813Y-5928969D01*
X9257284Y-5941822D01*
X9263430Y-5954014D01*
X9271152Y-5965240D01*
X9280296Y-5975350D01*
X9290710Y-5984189D01*
X9302242Y-5991504D01*
X9314586Y-5997244D01*
X9327642Y-6001308D01*
X9341053Y-6003544D01*
G37*
G36*
X7830718Y-6004001D02*
G01*
X7844281Y-6002629D01*
X7857540Y-5999480D01*
X7870240Y-5994603D01*
X7882229Y-5988050D01*
X7893202Y-5979922D01*
X7903006Y-5970473D01*
X7911439Y-5959754D01*
X7918399Y-5948019D01*
X7923733Y-5935472D01*
X7927340Y-5922314D01*
X7929168Y-5908802D01*
X7929168Y-5895187D01*
X7927340Y-5881674D01*
X7923733Y-5868517D01*
X7918399Y-5855970D01*
X7911439Y-5844235D01*
X7903006Y-5833516D01*
X7893202Y-5824016D01*
X7882229Y-5815939D01*
X7870240Y-5809386D01*
X7857540Y-5804509D01*
X7844281Y-5801309D01*
X7830718Y-5799937D01*
X7817053Y-5800394D01*
X7803642Y-5802680D01*
X7790586Y-5806744D01*
X7778242Y-5812485D01*
X7766710Y-5819800D01*
X7756296Y-5828588D01*
X7747152Y-5838698D01*
X7739430Y-5849975D01*
X7733284Y-5862116D01*
X7728813Y-5875020D01*
X7726121Y-5888380D01*
X7725206Y-5901994D01*
X7726121Y-5915609D01*
X7728813Y-5928969D01*
X7733284Y-5941822D01*
X7739430Y-5954014D01*
X7747152Y-5965240D01*
X7756296Y-5975350D01*
X7766710Y-5984189D01*
X7778242Y-5991504D01*
X7790586Y-5997244D01*
X7803642Y-6001308D01*
X7817053Y-6003544D01*
G37*
G36*
X9608718Y-6004001D02*
G01*
X9622282Y-6002629D01*
X9635540Y-5999480D01*
X9648240Y-5994603D01*
X9660229Y-5988050D01*
X9671202Y-5979922D01*
X9681006Y-5970473D01*
X9689439Y-5959754D01*
X9696399Y-5948019D01*
X9701733Y-5935472D01*
X9705340Y-5922314D01*
X9707168Y-5908802D01*
X9707168Y-5895187D01*
X9705340Y-5881674D01*
X9701733Y-5868517D01*
X9696399Y-5855970D01*
X9689439Y-5844235D01*
X9681006Y-5833516D01*
X9671202Y-5824016D01*
X9660229Y-5815939D01*
X9648240Y-5809386D01*
X9635540Y-5804509D01*
X9622282Y-5801309D01*
X9608718Y-5799937D01*
X9595053Y-5800394D01*
X9581642Y-5802680D01*
X9568586Y-5806744D01*
X9556242Y-5812485D01*
X9544710Y-5819800D01*
X9534296Y-5828588D01*
X9525152Y-5838698D01*
X9517430Y-5849975D01*
X9511284Y-5862116D01*
X9506813Y-5875020D01*
X9504121Y-5888380D01*
X9503206Y-5901994D01*
X9504121Y-5915609D01*
X9506813Y-5928969D01*
X9511284Y-5941822D01*
X9517430Y-5954014D01*
X9525152Y-5965240D01*
X9534296Y-5975350D01*
X9544710Y-5984189D01*
X9556242Y-5991504D01*
X9568586Y-5997244D01*
X9581642Y-6001308D01*
X9595053Y-6003544D01*
G37*
G36*
X7576718Y-6004001D02*
G01*
X7590281Y-6002629D01*
X7603540Y-5999480D01*
X7616240Y-5994603D01*
X7628229Y-5988050D01*
X7639202Y-5979922D01*
X7649006Y-5970473D01*
X7657439Y-5959754D01*
X7664399Y-5948019D01*
X7669733Y-5935472D01*
X7673340Y-5922314D01*
X7675168Y-5908802D01*
X7675168Y-5895187D01*
X7673340Y-5881674D01*
X7669733Y-5868517D01*
X7664399Y-5855970D01*
X7657439Y-5844235D01*
X7649006Y-5833516D01*
X7639202Y-5824016D01*
X7628229Y-5815939D01*
X7616240Y-5809386D01*
X7603540Y-5804509D01*
X7590281Y-5801309D01*
X7576718Y-5799937D01*
X7563053Y-5800394D01*
X7549642Y-5802680D01*
X7536586Y-5806744D01*
X7524242Y-5812485D01*
X7512710Y-5819800D01*
X7502296Y-5828588D01*
X7493152Y-5838698D01*
X7485430Y-5849975D01*
X7479284Y-5862116D01*
X7474813Y-5875020D01*
X7472121Y-5888380D01*
X7471206Y-5901994D01*
X7472121Y-5915609D01*
X7474813Y-5928969D01*
X7479284Y-5941822D01*
X7485430Y-5954014D01*
X7493152Y-5965240D01*
X7502296Y-5975350D01*
X7512710Y-5984189D01*
X7524242Y-5991504D01*
X7536586Y-5997244D01*
X7549642Y-6001308D01*
X7563053Y-6003544D01*
G37*
G36*
X6306718Y-6004001D02*
G01*
X6320282Y-6002629D01*
X6333540Y-5999480D01*
X6346240Y-5994603D01*
X6358229Y-5988050D01*
X6369202Y-5979922D01*
X6379006Y-5970473D01*
X6387439Y-5959754D01*
X6394399Y-5948019D01*
X6399733Y-5935472D01*
X6403340Y-5922314D01*
X6405168Y-5908802D01*
X6405168Y-5895187D01*
X6403340Y-5881674D01*
X6399733Y-5868517D01*
X6394399Y-5855970D01*
X6387439Y-5844235D01*
X6379006Y-5833516D01*
X6369202Y-5824016D01*
X6358229Y-5815939D01*
X6346240Y-5809386D01*
X6333540Y-5804509D01*
X6320282Y-5801309D01*
X6306718Y-5799937D01*
X6293053Y-5800394D01*
X6279642Y-5802680D01*
X6266586Y-5806744D01*
X6254242Y-5812485D01*
X6242710Y-5819800D01*
X6232296Y-5828588D01*
X6223152Y-5838698D01*
X6215430Y-5849975D01*
X6209284Y-5862116D01*
X6204813Y-5875020D01*
X6202121Y-5888380D01*
X6201206Y-5901994D01*
X6202121Y-5915609D01*
X6204813Y-5928969D01*
X6209284Y-5941822D01*
X6215430Y-5954014D01*
X6223152Y-5965240D01*
X6232296Y-5975350D01*
X6242710Y-5984189D01*
X6254242Y-5991504D01*
X6266586Y-5997244D01*
X6279642Y-6001308D01*
X6293053Y-6003544D01*
G37*
G36*
X9862718Y-6004001D02*
G01*
X9876282Y-6002629D01*
X9889540Y-5999480D01*
X9902240Y-5994603D01*
X9914229Y-5988050D01*
X9925202Y-5979922D01*
X9935006Y-5970473D01*
X9943439Y-5959754D01*
X9950399Y-5948019D01*
X9955733Y-5935472D01*
X9959340Y-5922314D01*
X9961168Y-5908802D01*
X9961168Y-5895187D01*
X9959340Y-5881674D01*
X9955733Y-5868517D01*
X9950399Y-5855970D01*
X9943439Y-5844235D01*
X9935006Y-5833516D01*
X9925202Y-5824016D01*
X9914229Y-5815939D01*
X9902240Y-5809386D01*
X9889540Y-5804509D01*
X9876282Y-5801309D01*
X9862718Y-5799937D01*
X9849053Y-5800394D01*
X9835642Y-5802680D01*
X9822586Y-5806744D01*
X9810242Y-5812485D01*
X9798710Y-5819800D01*
X9788296Y-5828588D01*
X9779152Y-5838698D01*
X9771430Y-5849975D01*
X9765284Y-5862116D01*
X9760813Y-5875020D01*
X9758121Y-5888380D01*
X9757206Y-5901994D01*
X9758121Y-5915609D01*
X9760813Y-5928969D01*
X9765284Y-5941822D01*
X9771430Y-5954014D01*
X9779152Y-5965240D01*
X9788296Y-5975350D01*
X9798710Y-5984189D01*
X9810242Y-5991504D01*
X9822586Y-5997244D01*
X9835642Y-6001308D01*
X9849053Y-6003544D01*
G37*
G36*
X11132718Y-6004001D02*
G01*
X11146282Y-6002629D01*
X11159540Y-5999480D01*
X11172240Y-5994603D01*
X11184229Y-5988050D01*
X11195202Y-5979922D01*
X11205006Y-5970473D01*
X11213439Y-5959754D01*
X11220399Y-5948019D01*
X11225733Y-5935472D01*
X11229340Y-5922314D01*
X11231168Y-5908802D01*
X11231168Y-5895187D01*
X11229340Y-5881674D01*
X11225733Y-5868517D01*
X11220399Y-5855970D01*
X11213439Y-5844235D01*
X11205006Y-5833516D01*
X11195202Y-5824016D01*
X11184229Y-5815939D01*
X11172240Y-5809386D01*
X11159540Y-5804509D01*
X11146282Y-5801309D01*
X11132718Y-5799937D01*
X11119053Y-5800394D01*
X11105642Y-5802680D01*
X11092586Y-5806744D01*
X11080242Y-5812485D01*
X11068710Y-5819800D01*
X11058296Y-5828588D01*
X11049152Y-5838698D01*
X11041430Y-5849975D01*
X11035284Y-5862116D01*
X11030813Y-5875020D01*
X11028121Y-5888380D01*
X11027206Y-5901994D01*
X11028121Y-5915609D01*
X11030813Y-5928969D01*
X11035284Y-5941822D01*
X11041430Y-5954014D01*
X11049152Y-5965240D01*
X11058296Y-5975350D01*
X11068710Y-5984189D01*
X11080242Y-5991504D01*
X11092586Y-5997244D01*
X11105642Y-6001308D01*
X11119053Y-6003544D01*
G37*
G36*
X7322718Y-6004001D02*
G01*
X7336281Y-6002629D01*
X7349540Y-5999480D01*
X7362240Y-5994603D01*
X7374229Y-5988050D01*
X7385202Y-5979922D01*
X7395006Y-5970473D01*
X7403439Y-5959754D01*
X7410399Y-5948019D01*
X7415733Y-5935472D01*
X7419340Y-5922314D01*
X7421168Y-5908802D01*
X7421168Y-5895187D01*
X7419340Y-5881674D01*
X7415733Y-5868517D01*
X7410399Y-5855970D01*
X7403439Y-5844235D01*
X7395006Y-5833516D01*
X7385202Y-5824016D01*
X7374229Y-5815939D01*
X7362240Y-5809386D01*
X7349540Y-5804509D01*
X7336281Y-5801309D01*
X7322718Y-5799937D01*
X7309053Y-5800394D01*
X7295642Y-5802680D01*
X7282586Y-5806744D01*
X7270242Y-5812485D01*
X7258710Y-5819800D01*
X7248296Y-5828588D01*
X7239152Y-5838698D01*
X7231430Y-5849975D01*
X7225284Y-5862116D01*
X7220813Y-5875020D01*
X7218121Y-5888380D01*
X7217206Y-5901994D01*
X7218121Y-5915609D01*
X7220813Y-5928969D01*
X7225284Y-5941822D01*
X7231430Y-5954014D01*
X7239152Y-5965240D01*
X7248296Y-5975350D01*
X7258710Y-5984189D01*
X7270242Y-5991504D01*
X7282586Y-5997244D01*
X7295642Y-6001308D01*
X7309053Y-6003544D01*
G37*
G36*
X6052718Y-6004001D02*
G01*
X6066282Y-6002629D01*
X6079540Y-5999480D01*
X6092240Y-5994603D01*
X6104229Y-5988050D01*
X6115202Y-5979922D01*
X6125006Y-5970473D01*
X6133439Y-5959754D01*
X6140399Y-5948019D01*
X6145733Y-5935472D01*
X6149340Y-5922314D01*
X6151168Y-5908802D01*
X6151168Y-5895187D01*
X6149340Y-5881674D01*
X6145733Y-5868517D01*
X6140399Y-5855970D01*
X6133439Y-5844235D01*
X6125006Y-5833516D01*
X6115202Y-5824016D01*
X6104229Y-5815939D01*
X6092240Y-5809386D01*
X6079540Y-5804509D01*
X6066282Y-5801309D01*
X6052718Y-5799937D01*
X6039053Y-5800394D01*
X6025642Y-5802680D01*
X6012586Y-5806744D01*
X6000242Y-5812485D01*
X5988710Y-5819800D01*
X5978296Y-5828588D01*
X5969152Y-5838698D01*
X5961430Y-5849975D01*
X5955284Y-5862116D01*
X5950813Y-5875020D01*
X5948121Y-5888380D01*
X5947206Y-5901994D01*
X5948121Y-5915609D01*
X5950813Y-5928969D01*
X5955284Y-5941822D01*
X5961430Y-5954014D01*
X5969152Y-5965240D01*
X5978296Y-5975350D01*
X5988710Y-5984189D01*
X6000242Y-5991504D01*
X6012586Y-5997244D01*
X6025642Y-6001308D01*
X6039053Y-6003544D01*
G37*
G36*
X6560718Y-6004001D02*
G01*
X6574281Y-6002629D01*
X6587540Y-5999480D01*
X6600240Y-5994603D01*
X6612229Y-5988050D01*
X6623202Y-5979922D01*
X6633006Y-5970473D01*
X6641439Y-5959754D01*
X6648399Y-5948019D01*
X6653733Y-5935472D01*
X6657340Y-5922314D01*
X6659168Y-5908802D01*
X6659168Y-5895187D01*
X6657340Y-5881674D01*
X6653733Y-5868517D01*
X6648399Y-5855970D01*
X6641439Y-5844235D01*
X6633006Y-5833516D01*
X6623202Y-5824016D01*
X6612229Y-5815939D01*
X6600240Y-5809386D01*
X6587540Y-5804509D01*
X6574281Y-5801309D01*
X6560718Y-5799937D01*
X6547053Y-5800394D01*
X6533642Y-5802680D01*
X6520586Y-5806744D01*
X6508242Y-5812485D01*
X6496710Y-5819800D01*
X6486296Y-5828588D01*
X6477152Y-5838698D01*
X6469430Y-5849975D01*
X6463284Y-5862116D01*
X6458813Y-5875020D01*
X6456121Y-5888380D01*
X6455206Y-5901994D01*
X6456121Y-5915609D01*
X6458813Y-5928969D01*
X6463284Y-5941822D01*
X6469430Y-5954014D01*
X6477152Y-5965240D01*
X6486296Y-5975350D01*
X6496710Y-5984189D01*
X6508242Y-5991504D01*
X6520586Y-5997244D01*
X6533642Y-6001308D01*
X6547053Y-6003544D01*
G37*
G36*
X10116718Y-6004001D02*
G01*
X10130282Y-6002629D01*
X10143540Y-5999480D01*
X10156240Y-5994603D01*
X10168229Y-5988050D01*
X10179202Y-5979922D01*
X10189006Y-5970473D01*
X10197439Y-5959754D01*
X10204399Y-5948019D01*
X10209733Y-5935472D01*
X10213340Y-5922314D01*
X10215168Y-5908802D01*
X10215168Y-5895187D01*
X10213340Y-5881674D01*
X10209733Y-5868517D01*
X10204399Y-5855970D01*
X10197439Y-5844235D01*
X10189006Y-5833516D01*
X10179202Y-5824016D01*
X10168229Y-5815939D01*
X10156240Y-5809386D01*
X10143540Y-5804509D01*
X10130282Y-5801309D01*
X10116718Y-5799937D01*
X10103053Y-5800394D01*
X10089642Y-5802680D01*
X10076586Y-5806744D01*
X10064242Y-5812485D01*
X10052710Y-5819800D01*
X10042296Y-5828588D01*
X10033152Y-5838698D01*
X10025430Y-5849975D01*
X10019284Y-5862116D01*
X10014813Y-5875020D01*
X10012121Y-5888380D01*
X10011206Y-5901994D01*
X10012121Y-5915609D01*
X10014813Y-5928969D01*
X10019284Y-5941822D01*
X10025430Y-5954014D01*
X10033152Y-5965240D01*
X10042296Y-5975350D01*
X10052710Y-5984189D01*
X10064242Y-5991504D01*
X10076586Y-5997244D01*
X10089642Y-6001308D01*
X10103053Y-6003544D01*
G37*
G36*
X10878718Y-6004001D02*
G01*
X10892282Y-6002629D01*
X10905540Y-5999480D01*
X10918240Y-5994603D01*
X10930229Y-5988050D01*
X10941202Y-5979922D01*
X10951006Y-5970473D01*
X10959439Y-5959754D01*
X10966399Y-5948019D01*
X10971733Y-5935472D01*
X10975340Y-5922314D01*
X10977168Y-5908802D01*
X10977168Y-5895187D01*
X10975340Y-5881674D01*
X10971733Y-5868517D01*
X10966399Y-5855970D01*
X10959439Y-5844235D01*
X10951006Y-5833516D01*
X10941202Y-5824016D01*
X10930229Y-5815939D01*
X10918240Y-5809386D01*
X10905540Y-5804509D01*
X10892282Y-5801309D01*
X10878718Y-5799937D01*
X10865053Y-5800394D01*
X10851642Y-5802680D01*
X10838586Y-5806744D01*
X10826242Y-5812485D01*
X10814710Y-5819800D01*
X10804296Y-5828588D01*
X10795152Y-5838698D01*
X10787430Y-5849975D01*
X10781284Y-5862116D01*
X10776813Y-5875020D01*
X10774121Y-5888380D01*
X10773206Y-5901994D01*
X10774121Y-5915609D01*
X10776813Y-5928969D01*
X10781284Y-5941822D01*
X10787430Y-5954014D01*
X10795152Y-5965240D01*
X10804296Y-5975350D01*
X10814710Y-5984189D01*
X10826242Y-5991504D01*
X10838586Y-5997244D01*
X10851642Y-6001308D01*
X10865053Y-6003544D01*
G37*
G36*
X7068718Y-6004001D02*
G01*
X7082281Y-6002629D01*
X7095540Y-5999480D01*
X7108240Y-5994603D01*
X7120229Y-5988050D01*
X7131202Y-5979922D01*
X7141006Y-5970473D01*
X7149439Y-5959754D01*
X7156399Y-5948019D01*
X7161733Y-5935472D01*
X7165340Y-5922314D01*
X7167168Y-5908802D01*
X7167168Y-5895187D01*
X7165340Y-5881674D01*
X7161733Y-5868517D01*
X7156399Y-5855970D01*
X7149439Y-5844235D01*
X7141006Y-5833516D01*
X7131202Y-5824016D01*
X7120229Y-5815939D01*
X7108240Y-5809386D01*
X7095540Y-5804509D01*
X7082281Y-5801309D01*
X7068718Y-5799937D01*
X7055053Y-5800394D01*
X7041642Y-5802680D01*
X7028586Y-5806744D01*
X7016242Y-5812485D01*
X7004710Y-5819800D01*
X6994296Y-5828588D01*
X6985152Y-5838698D01*
X6977430Y-5849975D01*
X6971284Y-5862116D01*
X6966813Y-5875020D01*
X6964121Y-5888380D01*
X6963206Y-5901994D01*
X6964121Y-5915609D01*
X6966813Y-5928969D01*
X6971284Y-5941822D01*
X6977430Y-5954014D01*
X6985152Y-5965240D01*
X6994296Y-5975350D01*
X7004710Y-5984189D01*
X7016242Y-5991504D01*
X7028586Y-5997244D01*
X7041642Y-6001308D01*
X7055053Y-6003544D01*
G37*
G36*
X10624718Y-6004001D02*
G01*
X10638282Y-6002629D01*
X10651540Y-5999480D01*
X10664240Y-5994603D01*
X10676229Y-5988050D01*
X10687202Y-5979922D01*
X10697006Y-5970473D01*
X10705439Y-5959754D01*
X10712399Y-5948019D01*
X10717733Y-5935472D01*
X10721340Y-5922314D01*
X10723168Y-5908802D01*
X10723168Y-5895187D01*
X10721340Y-5881674D01*
X10717733Y-5868517D01*
X10712399Y-5855970D01*
X10705439Y-5844235D01*
X10697006Y-5833516D01*
X10687202Y-5824016D01*
X10676229Y-5815939D01*
X10664240Y-5809386D01*
X10651540Y-5804509D01*
X10638282Y-5801309D01*
X10624718Y-5799937D01*
X10611053Y-5800394D01*
X10597642Y-5802680D01*
X10584586Y-5806744D01*
X10572242Y-5812485D01*
X10560710Y-5819800D01*
X10550296Y-5828588D01*
X10541152Y-5838698D01*
X10533430Y-5849975D01*
X10527284Y-5862116D01*
X10522813Y-5875020D01*
X10520121Y-5888380D01*
X10519206Y-5901994D01*
X10520121Y-5915609D01*
X10522813Y-5928969D01*
X10527284Y-5941822D01*
X10533430Y-5954014D01*
X10541152Y-5965240D01*
X10550296Y-5975350D01*
X10560710Y-5984189D01*
X10572242Y-5991504D01*
X10584586Y-5997244D01*
X10597642Y-6001308D01*
X10611053Y-6003544D01*
G37*
G36*
X10370718Y-6004001D02*
G01*
X10384282Y-6002629D01*
X10397540Y-5999480D01*
X10410240Y-5994603D01*
X10422229Y-5988050D01*
X10433202Y-5979922D01*
X10443006Y-5970473D01*
X10451439Y-5959754D01*
X10458399Y-5948019D01*
X10463733Y-5935472D01*
X10467340Y-5922314D01*
X10469168Y-5908802D01*
X10469168Y-5895187D01*
X10467340Y-5881674D01*
X10463733Y-5868517D01*
X10458399Y-5855970D01*
X10451439Y-5844235D01*
X10443006Y-5833516D01*
X10433202Y-5824016D01*
X10422229Y-5815939D01*
X10410240Y-5809386D01*
X10397540Y-5804509D01*
X10384282Y-5801309D01*
X10370718Y-5799937D01*
X10357053Y-5800394D01*
X10343642Y-5802680D01*
X10330586Y-5806744D01*
X10318242Y-5812485D01*
X10306710Y-5819800D01*
X10296296Y-5828588D01*
X10287152Y-5838698D01*
X10279430Y-5849975D01*
X10273284Y-5862116D01*
X10268813Y-5875020D01*
X10266121Y-5888380D01*
X10265206Y-5901994D01*
X10266121Y-5915609D01*
X10268813Y-5928969D01*
X10273284Y-5941822D01*
X10279430Y-5954014D01*
X10287152Y-5965240D01*
X10296296Y-5975350D01*
X10306710Y-5984189D01*
X10318242Y-5991504D01*
X10330586Y-5997244D01*
X10343642Y-6001308D01*
X10357053Y-6003544D01*
G37*
G36*
X6814718Y-6004001D02*
G01*
X6828281Y-6002629D01*
X6841540Y-5999480D01*
X6854240Y-5994603D01*
X6866229Y-5988050D01*
X6877202Y-5979922D01*
X6887006Y-5970473D01*
X6895439Y-5959754D01*
X6902399Y-5948019D01*
X6907733Y-5935472D01*
X6911340Y-5922314D01*
X6913168Y-5908802D01*
X6913168Y-5895187D01*
X6911340Y-5881674D01*
X6907733Y-5868517D01*
X6902399Y-5855970D01*
X6895439Y-5844235D01*
X6887006Y-5833516D01*
X6877202Y-5824016D01*
X6866229Y-5815939D01*
X6854240Y-5809386D01*
X6841540Y-5804509D01*
X6828281Y-5801309D01*
X6814718Y-5799937D01*
X6801053Y-5800394D01*
X6787642Y-5802680D01*
X6774586Y-5806744D01*
X6762242Y-5812485D01*
X6750710Y-5819800D01*
X6740296Y-5828588D01*
X6731152Y-5838698D01*
X6723430Y-5849975D01*
X6717284Y-5862116D01*
X6712813Y-5875020D01*
X6710121Y-5888380D01*
X6709206Y-5901994D01*
X6710121Y-5915609D01*
X6712813Y-5928969D01*
X6717284Y-5941822D01*
X6723430Y-5954014D01*
X6731152Y-5965240D01*
X6740296Y-5975350D01*
X6750710Y-5984189D01*
X6762242Y-5991504D01*
X6774586Y-5997244D01*
X6787642Y-6001308D01*
X6801053Y-6003544D01*
G37*
G36*
X11386718Y-6004001D02*
G01*
X11400282Y-6002629D01*
X11413540Y-5999480D01*
X11426240Y-5994603D01*
X11438229Y-5988050D01*
X11449202Y-5979922D01*
X11459006Y-5970473D01*
X11467439Y-5959754D01*
X11474399Y-5948019D01*
X11479733Y-5935472D01*
X11483340Y-5922314D01*
X11485168Y-5908802D01*
X11485168Y-5895187D01*
X11483340Y-5881674D01*
X11479733Y-5868517D01*
X11474399Y-5855970D01*
X11467439Y-5844235D01*
X11459006Y-5833516D01*
X11449202Y-5824016D01*
X11438229Y-5815939D01*
X11426240Y-5809386D01*
X11413540Y-5804509D01*
X11400282Y-5801309D01*
X11386718Y-5799937D01*
X11373053Y-5800394D01*
X11359642Y-5802680D01*
X11346586Y-5806744D01*
X11334242Y-5812485D01*
X11322710Y-5819800D01*
X11312296Y-5828588D01*
X11303152Y-5838698D01*
X11295430Y-5849975D01*
X11289284Y-5862116D01*
X11284813Y-5875020D01*
X11282121Y-5888380D01*
X11281206Y-5901994D01*
X11282121Y-5915609D01*
X11284813Y-5928969D01*
X11289284Y-5941822D01*
X11295430Y-5954014D01*
X11303152Y-5965240D01*
X11312296Y-5975350D01*
X11322710Y-5984189D01*
X11334242Y-5991504D01*
X11346586Y-5997244D01*
X11359642Y-6001308D01*
X11373053Y-6003544D01*
G37*
G36*
X5798718Y-6004001D02*
G01*
X5812282Y-6002629D01*
X5825540Y-5999480D01*
X5838240Y-5994603D01*
X5850229Y-5988050D01*
X5861202Y-5979922D01*
X5871006Y-5970473D01*
X5879439Y-5959754D01*
X5886399Y-5948019D01*
X5891733Y-5935472D01*
X5895340Y-5922314D01*
X5897168Y-5908802D01*
X5897168Y-5895187D01*
X5895340Y-5881674D01*
X5891733Y-5868517D01*
X5886399Y-5855970D01*
X5879439Y-5844235D01*
X5871006Y-5833516D01*
X5861202Y-5824016D01*
X5850229Y-5815939D01*
X5838240Y-5809386D01*
X5825540Y-5804509D01*
X5812282Y-5801309D01*
X5798718Y-5799937D01*
X5785053Y-5800394D01*
X5771642Y-5802680D01*
X5758586Y-5806744D01*
X5746242Y-5812485D01*
X5734710Y-5819800D01*
X5724296Y-5828588D01*
X5715152Y-5838698D01*
X5707430Y-5849975D01*
X5701284Y-5862116D01*
X5696813Y-5875020D01*
X5694121Y-5888380D01*
X5693206Y-5901994D01*
X5694121Y-5915609D01*
X5696813Y-5928969D01*
X5701284Y-5941822D01*
X5707430Y-5954014D01*
X5715152Y-5965240D01*
X5724296Y-5975350D01*
X5734710Y-5984189D01*
X5746242Y-5991504D01*
X5758586Y-5997244D01*
X5771642Y-6001308D01*
X5785053Y-6003544D01*
G37*
G36*
X5585764Y-5993790D02*
G01*
X5596229Y-5988050D01*
X5607202Y-5979922D01*
X5617006Y-5970473D01*
X5625439Y-5959754D01*
X5632399Y-5948019D01*
X5633059Y-5946444D01*
X5585764Y-5946444D01*
G37*
G36*
X5496864Y-5993638D02*
G01*
X5496864Y-5946444D01*
X5449620Y-5946444D01*
X5453430Y-5954014D01*
X5461152Y-5965240D01*
X5470296Y-5975350D01*
X5480710Y-5984189D01*
X5492242Y-5991504D01*
G37*
G36*
X5449620Y-5857544D02*
G01*
X5496864Y-5857544D01*
X5496864Y-5810300D01*
X5492242Y-5812485D01*
X5480710Y-5819800D01*
X5470296Y-5828588D01*
X5461152Y-5838698D01*
X5453430Y-5849975D01*
G37*
G36*
X5585764Y-5857544D02*
G01*
X5633059Y-5857544D01*
X5632399Y-5855970D01*
X5625439Y-5844235D01*
X5617006Y-5833516D01*
X5607202Y-5824016D01*
X5596229Y-5815939D01*
X5585764Y-5810199D01*
G37*
G36*
X2489454Y-5282742D02*
G01*
X2527554Y-5282742D01*
X2533853Y-5282031D01*
X2539339Y-5280152D01*
X2544216Y-5277053D01*
X2548331Y-5272989D01*
X2551379Y-5268061D01*
X2553309Y-5262626D01*
X2554020Y-5256276D01*
X2554020Y-5215686D01*
X2489454Y-5215686D01*
G37*
G36*
X2348687Y-5282742D02*
G01*
X2386787Y-5282742D01*
X2386787Y-5215686D01*
X2322220Y-5215686D01*
X2322220Y-5256276D01*
X2322931Y-5262626D01*
X2324811Y-5268061D01*
X2327910Y-5272989D01*
X2332024Y-5277053D01*
X2336901Y-5280152D01*
X2342388Y-5282031D01*
G37*
G36*
X4456328Y-5124958D02*
G01*
X4462932Y-5121706D01*
X4474464Y-5113985D01*
X4484878Y-5104892D01*
X4493971Y-5094478D01*
X4501692Y-5082946D01*
X4504944Y-5076342D01*
X4456328Y-5076342D01*
G37*
G36*
X4363618Y-5124958D02*
G01*
X4363618Y-5076342D01*
X4315053Y-5076342D01*
X4318304Y-5082946D01*
X4325975Y-5094478D01*
X4335119Y-5104892D01*
X4345533Y-5113985D01*
X4357065Y-5121706D01*
G37*
G36*
X2489454Y-5107990D02*
G01*
X2554020Y-5107990D01*
X2554020Y-5067452D01*
X2553309Y-5061102D01*
X2551379Y-5055666D01*
X2548331Y-5050739D01*
X2544216Y-5046675D01*
X2539339Y-5043576D01*
X2533853Y-5041646D01*
X2527554Y-5040934D01*
X2489454Y-5040934D01*
G37*
G36*
X2322220Y-5107990D02*
G01*
X2386787Y-5107990D01*
X2386787Y-5040934D01*
X2348687Y-5040934D01*
X2342388Y-5041646D01*
X2336901Y-5043576D01*
X2332024Y-5046675D01*
X2327910Y-5050739D01*
X2324811Y-5055666D01*
X2322931Y-5061102D01*
X2322220Y-5067452D01*
G37*
G36*
X4998161Y-5104384D02*
G01*
X5034432Y-5104384D01*
X5034432Y-5047742D01*
X4971694Y-5047742D01*
X4971694Y-5077917D01*
X4972405Y-5084267D01*
X4974285Y-5089702D01*
X4977384Y-5094630D01*
X4981498Y-5098694D01*
X4986375Y-5101793D01*
X4991862Y-5103672D01*
G37*
G36*
X5133543Y-5104384D02*
G01*
X5169814Y-5104384D01*
X5176164Y-5103672D01*
X5181600Y-5101793D01*
X5186527Y-5098694D01*
X5190591Y-5094630D01*
X5193690Y-5089702D01*
X5195570Y-5084267D01*
X5196281Y-5077917D01*
X5196281Y-5047742D01*
X5133543Y-5047742D01*
G37*
G36*
X4456328Y-4983632D02*
G01*
X4504944Y-4983632D01*
X4501692Y-4977079D01*
X4493971Y-4965547D01*
X4484878Y-4955133D01*
X4474464Y-4945989D01*
X4462932Y-4938318D01*
X4456328Y-4935067D01*
G37*
G36*
X4315053Y-4983632D02*
G01*
X4363618Y-4983632D01*
X4363618Y-4935067D01*
X4357065Y-4938318D01*
X4345533Y-4945989D01*
X4335119Y-4955133D01*
X4325975Y-4965547D01*
X4318304Y-4977079D01*
G37*
G36*
X2348687Y-4965242D02*
G01*
X2527554Y-4965242D01*
X2533853Y-4964531D01*
X2539339Y-4962652D01*
X2544216Y-4959553D01*
X2548331Y-4955489D01*
X2551379Y-4950561D01*
X2554478Y-4940706D01*
X2556713Y-4937760D01*
X2559862Y-4935880D01*
X2563520Y-4935220D01*
X2973324Y-4935220D01*
X2983026Y-4934712D01*
X2995269Y-4932578D01*
X2997962Y-4931867D01*
X3009646Y-4927752D01*
X3020669Y-4922062D01*
X3028645Y-4916627D01*
X3030829Y-4914900D01*
X3038043Y-4908397D01*
X4637125Y-3309569D01*
X4643628Y-3302355D01*
X4645355Y-3300171D01*
X4650790Y-3292195D01*
X4656480Y-3281172D01*
X4660595Y-3269437D01*
X4661306Y-3266795D01*
X4663440Y-3254603D01*
X4663948Y-3244850D01*
X4663948Y-1018286D01*
X4663440Y-1008583D01*
X4661306Y-996340D01*
X4660595Y-993698D01*
X4656480Y-981964D01*
X4650790Y-970940D01*
X4645355Y-962964D01*
X4643628Y-960780D01*
X4637125Y-953566D01*
X4251401Y-567842D01*
X4244187Y-561340D01*
X4242003Y-559612D01*
X4234027Y-554177D01*
X4223004Y-548487D01*
X4211269Y-544372D01*
X4208627Y-543661D01*
X4196384Y-541528D01*
X4186682Y-541020D01*
X3864101Y-541020D01*
X3860190Y-540258D01*
X3856888Y-538073D01*
X3854704Y-534771D01*
X3853942Y-530860D01*
X3853942Y-463296D01*
X3853434Y-453593D01*
X3851300Y-441350D01*
X3850589Y-438708D01*
X3846474Y-426974D01*
X3840784Y-415950D01*
X3835349Y-407974D01*
X3833622Y-405790D01*
X3827119Y-398576D01*
X3592525Y-163982D01*
X3585311Y-157480D01*
X3583127Y-155752D01*
X3575151Y-150317D01*
X3564128Y-144627D01*
X3552393Y-140512D01*
X3549751Y-139801D01*
X3537508Y-137668D01*
X3527806Y-137160D01*
X2788158Y-137160D01*
X2778455Y-137668D01*
X2766212Y-139801D01*
X2763570Y-140512D01*
X2751836Y-144627D01*
X2740812Y-150317D01*
X2732836Y-155752D01*
X2730652Y-157480D01*
X2723438Y-163982D01*
X2580792Y-306628D01*
X2577490Y-308813D01*
X2573629Y-309626D01*
X2569718Y-308813D01*
X2566416Y-306628D01*
X2564587Y-304800D01*
X2559710Y-301701D01*
X2554224Y-299821D01*
X2547924Y-299110D01*
X2384044Y-299110D01*
X2377744Y-299821D01*
X2372258Y-301701D01*
X2367381Y-304800D01*
X2363266Y-308864D01*
X2360218Y-313791D01*
X2358288Y-319227D01*
X2357577Y-325577D01*
X2357577Y-428955D01*
X2356815Y-432816D01*
X2354630Y-436118D01*
X2351328Y-438353D01*
X2347417Y-439115D01*
X2059381Y-439166D01*
X2048662Y-439978D01*
X2045512Y-440435D01*
X2034997Y-442620D01*
X2021738Y-446938D01*
X2018842Y-448157D01*
X2009139Y-452882D01*
X2006396Y-454456D01*
X1997405Y-460400D01*
X1994865Y-462280D01*
X1986686Y-469290D01*
X1438046Y-1017879D01*
X1434744Y-1020064D01*
X1430832Y-1020826D01*
X685952Y-1020876D01*
X675182Y-1021740D01*
X672084Y-1022197D01*
X661517Y-1024382D01*
X658469Y-1025194D01*
X648258Y-1028700D01*
X645363Y-1029919D01*
X635711Y-1034643D01*
X632917Y-1036218D01*
X623925Y-1042111D01*
X621385Y-1043990D01*
X613206Y-1051001D01*
X257606Y-1406499D01*
X248259Y-1417167D01*
X246379Y-1419707D01*
X240436Y-1428699D01*
X234137Y-1441094D01*
X232917Y-1444040D01*
X228600Y-1457248D01*
X226415Y-1467815D01*
X225145Y-1481683D01*
X225145Y-2522321D01*
X226415Y-2536190D01*
X228600Y-2546756D01*
X232917Y-2559964D01*
X234137Y-2562910D01*
X240436Y-2575306D01*
X246379Y-2584297D01*
X248259Y-2586837D01*
X255270Y-2595016D01*
X771093Y-3110941D01*
X773328Y-3114243D01*
X774090Y-3118154D01*
X774090Y-3137408D01*
X774801Y-3143758D01*
X776732Y-3149193D01*
X779780Y-3154121D01*
X783894Y-3158185D01*
X788771Y-3161284D01*
X794258Y-3163214D01*
X800557Y-3163925D01*
X969416Y-3163925D01*
X975766Y-3163214D01*
X981202Y-3161284D01*
X986129Y-3158185D01*
X990193Y-3154121D01*
X993292Y-3149193D01*
X995171Y-3143758D01*
X995883Y-3137408D01*
X995883Y-2968548D01*
X995171Y-2962249D01*
X993292Y-2956763D01*
X990193Y-2951886D01*
X986129Y-2947771D01*
X981202Y-2944723D01*
X975766Y-2942793D01*
X969416Y-2942082D01*
X920140Y-2942082D01*
X916279Y-2941320D01*
X912977Y-2939084D01*
X449884Y-2476042D01*
X447700Y-2472740D01*
X446887Y-2468829D01*
X446887Y-1535125D01*
X447700Y-1531264D01*
X449884Y-1527962D01*
X732231Y-1245616D01*
X735533Y-1243431D01*
X739394Y-1242669D01*
X1484325Y-1242618D01*
X1495044Y-1241755D01*
X1498193Y-1241298D01*
X1508709Y-1239113D01*
X1511808Y-1238300D01*
X1521866Y-1234846D01*
X1526489Y-1232763D01*
X1530604Y-1231900D01*
X1566824Y-1231900D01*
X1573123Y-1231188D01*
X1578610Y-1229258D01*
X1583486Y-1226210D01*
X1587601Y-1222095D01*
X1590700Y-1217218D01*
X1592580Y-1211732D01*
X1593291Y-1205433D01*
X1593291Y-1180490D01*
X1594104Y-1176578D01*
X1596288Y-1173327D01*
X2105710Y-663905D01*
X2109012Y-661670D01*
X2112873Y-660908D01*
X2347417Y-660908D01*
X2351328Y-661670D01*
X2354630Y-663905D01*
X2356815Y-667207D01*
X2357577Y-671068D01*
X2357577Y-774446D01*
X2358288Y-780745D01*
X2360218Y-786231D01*
X2363266Y-791108D01*
X2367381Y-795223D01*
X2372258Y-798271D01*
X2377744Y-800201D01*
X2384044Y-800912D01*
X2547924Y-800912D01*
X2554224Y-800201D01*
X2559710Y-798271D01*
X2564587Y-795223D01*
X2568702Y-791108D01*
X2571800Y-786231D01*
X2573680Y-780745D01*
X2574391Y-774446D01*
X2574391Y-574344D01*
X2575153Y-570484D01*
X2577388Y-567182D01*
X2822600Y-321970D01*
X2825902Y-319786D01*
X2829763Y-319024D01*
X3486200Y-319024D01*
X3490061Y-319786D01*
X3493363Y-321970D01*
X3669131Y-497738D01*
X3671315Y-501040D01*
X3672078Y-504901D01*
X3672078Y-537362D01*
X3671315Y-541274D01*
X3669131Y-544525D01*
X3667810Y-545896D01*
X3664712Y-550773D01*
X3662781Y-556260D01*
X3662070Y-562559D01*
X3662070Y-574497D01*
X3661206Y-578662D01*
X3658666Y-582066D01*
X3655009Y-584149D01*
X3650792Y-584555D01*
X3646728Y-583234D01*
X3643629Y-580339D01*
X3637381Y-571500D01*
X3628440Y-561898D01*
X3618280Y-553669D01*
X3607104Y-546862D01*
X3595115Y-541629D01*
X3582517Y-538124D01*
X3569512Y-536346D01*
X3556457Y-536346D01*
X3543503Y-538124D01*
X3530904Y-541629D01*
X3518865Y-546862D01*
X3507689Y-553669D01*
X3497529Y-561898D01*
X3488639Y-571500D01*
X3481070Y-582168D01*
X3478733Y-586689D01*
X3476853Y-589229D01*
X3359099Y-706120D01*
X3350260Y-716178D01*
X2710332Y-1356106D01*
X2707030Y-1358290D01*
X2703118Y-1359052D01*
X2584551Y-1359052D01*
X2580690Y-1358290D01*
X2577388Y-1356106D01*
X2575153Y-1352804D01*
X2574391Y-1348892D01*
X2574391Y-1225550D01*
X2573680Y-1219250D01*
X2571800Y-1213764D01*
X2568702Y-1208887D01*
X2564587Y-1204772D01*
X2559710Y-1201724D01*
X2554224Y-1199794D01*
X2547924Y-1199083D01*
X2384044Y-1199083D01*
X2377744Y-1199794D01*
X2372258Y-1201724D01*
X2367381Y-1204772D01*
X2363266Y-1208887D01*
X2360218Y-1213764D01*
X2358288Y-1219250D01*
X2357577Y-1225550D01*
X2357577Y-1329182D01*
X2356815Y-1333042D01*
X2354630Y-1336344D01*
X2351328Y-1338580D01*
X2347417Y-1339342D01*
X1477670Y-1339392D01*
X1466951Y-1340205D01*
X1463802Y-1340662D01*
X1453286Y-1342847D01*
X1450187Y-1343710D01*
X1440129Y-1347114D01*
X1435455Y-1349197D01*
X1431340Y-1350111D01*
X1395171Y-1350111D01*
X1388872Y-1350822D01*
X1383385Y-1352702D01*
X1378508Y-1355801D01*
X1374394Y-1359865D01*
X1371295Y-1364792D01*
X1369415Y-1370228D01*
X1368704Y-1376578D01*
X1368704Y-1401470D01*
X1367942Y-1405382D01*
X1365707Y-1408684D01*
X1062278Y-1712214D01*
X1055268Y-1720392D01*
X1053388Y-1722932D01*
X1047445Y-1731924D01*
X1045870Y-1734667D01*
X1041146Y-1744319D01*
X1039926Y-1747266D01*
X1036472Y-1757425D01*
X1035608Y-1760524D01*
X1033424Y-1771040D01*
X1032967Y-1774189D01*
X1032154Y-1784908D01*
X1032103Y-2261412D01*
X1032814Y-2267762D01*
X1034694Y-2273198D01*
X1037793Y-2278126D01*
X1041908Y-2282190D01*
X1046784Y-2285288D01*
X1052271Y-2287168D01*
X1058570Y-2287879D01*
X1227429Y-2287879D01*
X1233728Y-2287168D01*
X1239215Y-2285288D01*
X1244092Y-2282190D01*
X1248206Y-2278126D01*
X1251305Y-2273198D01*
X1253185Y-2267762D01*
X1253896Y-2261412D01*
X1253896Y-1838401D01*
X1254658Y-1834489D01*
X1256893Y-1831187D01*
X1523949Y-1564132D01*
X1527251Y-1561896D01*
X1531162Y-1561134D01*
X2347417Y-1561134D01*
X2351328Y-1561896D01*
X2354630Y-1564132D01*
X2356815Y-1567434D01*
X2357577Y-1571294D01*
X2357577Y-1674418D01*
X2358288Y-1680768D01*
X2360218Y-1686204D01*
X2363266Y-1691132D01*
X2367381Y-1695196D01*
X2372258Y-1698294D01*
X2377744Y-1700174D01*
X2384044Y-1700885D01*
X2547924Y-1700885D01*
X2554224Y-1700174D01*
X2559710Y-1698294D01*
X2564587Y-1695196D01*
X2568702Y-1691132D01*
X2571800Y-1686204D01*
X2573680Y-1680768D01*
X2574391Y-1674418D01*
X2574391Y-1551076D01*
X2575153Y-1547164D01*
X2577388Y-1543862D01*
X2580690Y-1541678D01*
X2584551Y-1540916D01*
X2744724Y-1540916D01*
X2754477Y-1540408D01*
X2766669Y-1538274D01*
X2769362Y-1537563D01*
X2781046Y-1533448D01*
X2789732Y-1529130D01*
X2792069Y-1527759D01*
X2800045Y-1522323D01*
X2802229Y-1520596D01*
X2809494Y-1514094D01*
X3314649Y-1008887D01*
X3317951Y-1006703D01*
X3321812Y-1005941D01*
X3325723Y-1006703D01*
X3329025Y-1008887D01*
X3331210Y-1012190D01*
X3331972Y-1016101D01*
X3331972Y-3690162D01*
X3331210Y-3694023D01*
X3329025Y-3697325D01*
X3037941Y-3988409D01*
X3034639Y-3990594D01*
X3030778Y-3991356D01*
X2563469Y-3991356D01*
X2559862Y-3990695D01*
X2556713Y-3988815D01*
X2554478Y-3985869D01*
X2553309Y-3981602D01*
X2551379Y-3976166D01*
X2548331Y-3971239D01*
X2544216Y-3967175D01*
X2539339Y-3964076D01*
X2533853Y-3962146D01*
X2527554Y-3961434D01*
X2348687Y-3961434D01*
X2342388Y-3962146D01*
X2336901Y-3964076D01*
X2332024Y-3967175D01*
X2327910Y-3971239D01*
X2324811Y-3976166D01*
X2322931Y-3981602D01*
X2322220Y-3987952D01*
X2322220Y-4176776D01*
X2322931Y-4183126D01*
X2324811Y-4188561D01*
X2327910Y-4193489D01*
X2332024Y-4197553D01*
X2336901Y-4200652D01*
X2342388Y-4202531D01*
X2348687Y-4203242D01*
X2527554Y-4203242D01*
X2533853Y-4202531D01*
X2539339Y-4200652D01*
X2544216Y-4197553D01*
X2548331Y-4193489D01*
X2551379Y-4188561D01*
X2554478Y-4178706D01*
X2556713Y-4175760D01*
X2559862Y-4173880D01*
X2563520Y-4173220D01*
X3072384Y-4173220D01*
X3082086Y-4172712D01*
X3094329Y-4170578D01*
X3096971Y-4169867D01*
X3108706Y-4165752D01*
X3119729Y-4160062D01*
X3127705Y-4154627D01*
X3129889Y-4152900D01*
X3137103Y-4146397D01*
X3487013Y-3796487D01*
X3493515Y-3789273D01*
X3495243Y-3787089D01*
X3500678Y-3779113D01*
X3506368Y-3768090D01*
X3510483Y-3756355D01*
X3511194Y-3753713D01*
X3513328Y-3741470D01*
X3513836Y-3731768D01*
X3513836Y-813968D01*
X3514598Y-810056D01*
X3516782Y-806754D01*
X3604514Y-719023D01*
X3606444Y-717499D01*
X3618280Y-710336D01*
X3628440Y-702056D01*
X3637381Y-692505D01*
X3643629Y-683666D01*
X3646728Y-680770D01*
X3650792Y-679399D01*
X3655009Y-679805D01*
X3658666Y-681939D01*
X3661206Y-685342D01*
X3662070Y-689508D01*
X3662070Y-701446D01*
X3662781Y-707745D01*
X3664712Y-713232D01*
X3667810Y-718108D01*
X3671874Y-722223D01*
X3676802Y-725271D01*
X3682237Y-727202D01*
X3688587Y-727913D01*
X3837432Y-727913D01*
X3843731Y-727202D01*
X3849217Y-725271D01*
X3853179Y-723239D01*
X3855974Y-722884D01*
X4145076Y-722884D01*
X4148937Y-723646D01*
X4152239Y-725830D01*
X4479137Y-1052728D01*
X4481322Y-1056030D01*
X4482084Y-1059891D01*
X4482084Y-3203244D01*
X4481322Y-3207105D01*
X4479137Y-3210407D01*
X2938881Y-4750409D01*
X2935630Y-4752594D01*
X2931718Y-4753356D01*
X2563469Y-4753356D01*
X2559862Y-4752695D01*
X2556713Y-4750816D01*
X2554478Y-4747869D01*
X2553309Y-4743602D01*
X2551379Y-4738166D01*
X2548331Y-4733239D01*
X2544216Y-4729175D01*
X2539339Y-4726076D01*
X2533853Y-4724146D01*
X2527554Y-4723434D01*
X2348687Y-4723434D01*
X2342388Y-4724146D01*
X2336901Y-4726076D01*
X2332024Y-4729175D01*
X2327910Y-4733239D01*
X2324811Y-4738166D01*
X2322931Y-4743602D01*
X2322220Y-4749952D01*
X2322220Y-4938776D01*
X2322931Y-4945126D01*
X2324811Y-4950561D01*
X2327910Y-4955489D01*
X2332024Y-4959553D01*
X2336901Y-4962652D01*
X2342388Y-4964531D01*
G37*
G36*
X5133543Y-4960772D02*
G01*
X5196281Y-4960772D01*
X5196281Y-4930546D01*
X5195570Y-4924247D01*
X5193690Y-4918760D01*
X5190591Y-4913884D01*
X5186527Y-4909769D01*
X5181600Y-4906721D01*
X5176164Y-4904790D01*
X5169814Y-4904079D01*
X5133543Y-4904079D01*
G37*
G36*
X4971694Y-4960772D02*
G01*
X5034432Y-4960772D01*
X5034432Y-4904079D01*
X4998161Y-4904079D01*
X4991862Y-4904790D01*
X4986375Y-4906721D01*
X4981498Y-4909769D01*
X4977384Y-4913884D01*
X4974285Y-4918760D01*
X4972405Y-4924247D01*
X4971694Y-4930546D01*
G37*
G36*
X8846718Y-4480001D02*
G01*
X8860282Y-4478629D01*
X8873540Y-4475480D01*
X8886240Y-4470603D01*
X8898229Y-4464050D01*
X8909202Y-4455922D01*
X8919006Y-4446473D01*
X8927439Y-4435754D01*
X8934399Y-4424019D01*
X8939733Y-4411472D01*
X8943340Y-4398314D01*
X8945168Y-4384802D01*
X8945168Y-4371187D01*
X8943340Y-4357674D01*
X8939733Y-4344517D01*
X8934399Y-4331970D01*
X8927439Y-4320235D01*
X8919006Y-4309516D01*
X8909202Y-4300016D01*
X8898229Y-4291939D01*
X8886240Y-4285386D01*
X8873540Y-4280509D01*
X8860282Y-4277309D01*
X8846718Y-4275937D01*
X8833053Y-4276394D01*
X8819642Y-4278680D01*
X8806586Y-4282744D01*
X8794242Y-4288485D01*
X8782710Y-4295800D01*
X8772296Y-4304588D01*
X8763152Y-4314698D01*
X8755430Y-4325975D01*
X8749284Y-4338116D01*
X8744813Y-4351020D01*
X8742121Y-4364380D01*
X8741206Y-4377994D01*
X8742121Y-4391609D01*
X8744813Y-4404969D01*
X8749284Y-4417822D01*
X8755430Y-4430014D01*
X8763152Y-4441240D01*
X8772296Y-4451350D01*
X8782710Y-4460189D01*
X8794242Y-4467504D01*
X8806586Y-4473244D01*
X8819642Y-4477308D01*
X8833053Y-4479544D01*
G37*
G36*
X8592718Y-4480001D02*
G01*
X8606282Y-4478629D01*
X8619540Y-4475480D01*
X8632240Y-4470603D01*
X8644229Y-4464050D01*
X8655202Y-4455922D01*
X8665006Y-4446473D01*
X8673439Y-4435754D01*
X8680399Y-4424019D01*
X8685733Y-4411472D01*
X8689340Y-4398314D01*
X8691168Y-4384802D01*
X8691168Y-4371187D01*
X8689340Y-4357674D01*
X8685733Y-4344517D01*
X8680399Y-4331970D01*
X8673439Y-4320235D01*
X8665006Y-4309516D01*
X8655202Y-4300016D01*
X8644229Y-4291939D01*
X8632240Y-4285386D01*
X8619540Y-4280509D01*
X8606282Y-4277309D01*
X8592718Y-4275937D01*
X8579053Y-4276394D01*
X8565642Y-4278680D01*
X8552586Y-4282744D01*
X8540242Y-4288485D01*
X8528710Y-4295800D01*
X8518296Y-4304588D01*
X8509152Y-4314698D01*
X8501430Y-4325975D01*
X8495284Y-4338116D01*
X8490813Y-4351020D01*
X8488121Y-4364380D01*
X8487206Y-4377994D01*
X8488121Y-4391609D01*
X8490813Y-4404969D01*
X8495284Y-4417822D01*
X8501430Y-4430014D01*
X8509152Y-4441240D01*
X8518296Y-4451350D01*
X8528710Y-4460189D01*
X8540242Y-4467504D01*
X8552586Y-4473244D01*
X8565642Y-4477308D01*
X8579053Y-4479544D01*
G37*
G36*
X9100718Y-4480001D02*
G01*
X9114282Y-4478629D01*
X9127540Y-4475480D01*
X9140240Y-4470603D01*
X9152229Y-4464050D01*
X9163202Y-4455922D01*
X9173006Y-4446473D01*
X9181439Y-4435754D01*
X9188399Y-4424019D01*
X9193733Y-4411472D01*
X9197340Y-4398314D01*
X9199168Y-4384802D01*
X9199168Y-4371187D01*
X9197340Y-4357674D01*
X9193733Y-4344517D01*
X9188399Y-4331970D01*
X9181439Y-4320235D01*
X9173006Y-4309516D01*
X9163202Y-4300016D01*
X9152229Y-4291939D01*
X9140240Y-4285386D01*
X9127540Y-4280509D01*
X9114282Y-4277309D01*
X9100718Y-4275937D01*
X9087053Y-4276394D01*
X9073642Y-4278680D01*
X9060586Y-4282744D01*
X9048242Y-4288485D01*
X9036710Y-4295800D01*
X9026296Y-4304588D01*
X9017152Y-4314698D01*
X9009430Y-4325975D01*
X9003284Y-4338116D01*
X8998813Y-4351020D01*
X8996121Y-4364380D01*
X8995206Y-4377994D01*
X8996121Y-4391609D01*
X8998813Y-4404969D01*
X9003284Y-4417822D01*
X9009430Y-4430014D01*
X9017152Y-4441240D01*
X9026296Y-4451350D01*
X9036710Y-4460189D01*
X9048242Y-4467504D01*
X9060586Y-4473244D01*
X9073642Y-4477308D01*
X9087053Y-4479544D01*
G37*
G36*
X8338718Y-4480001D02*
G01*
X8352281Y-4478629D01*
X8365540Y-4475480D01*
X8378240Y-4470603D01*
X8390229Y-4464050D01*
X8401202Y-4455922D01*
X8411006Y-4446473D01*
X8419439Y-4435754D01*
X8426399Y-4424019D01*
X8431733Y-4411472D01*
X8435340Y-4398314D01*
X8437168Y-4384802D01*
X8437168Y-4371187D01*
X8435340Y-4357674D01*
X8431733Y-4344517D01*
X8426399Y-4331970D01*
X8419439Y-4320235D01*
X8411006Y-4309516D01*
X8401202Y-4300016D01*
X8390229Y-4291939D01*
X8378240Y-4285386D01*
X8365540Y-4280509D01*
X8352281Y-4277309D01*
X8338718Y-4275937D01*
X8325053Y-4276394D01*
X8311642Y-4278680D01*
X8298586Y-4282744D01*
X8286242Y-4288485D01*
X8274710Y-4295800D01*
X8264296Y-4304588D01*
X8255152Y-4314698D01*
X8247430Y-4325975D01*
X8241284Y-4338116D01*
X8236813Y-4351020D01*
X8234121Y-4364380D01*
X8233206Y-4377994D01*
X8234121Y-4391609D01*
X8236813Y-4404969D01*
X8241284Y-4417822D01*
X8247430Y-4430014D01*
X8255152Y-4441240D01*
X8264296Y-4451350D01*
X8274710Y-4460189D01*
X8286242Y-4467504D01*
X8298586Y-4473244D01*
X8311642Y-4477308D01*
X8325053Y-4479544D01*
G37*
G36*
X9354718Y-4480001D02*
G01*
X9368282Y-4478629D01*
X9381540Y-4475480D01*
X9394240Y-4470603D01*
X9406229Y-4464050D01*
X9417202Y-4455922D01*
X9427006Y-4446473D01*
X9435439Y-4435754D01*
X9442399Y-4424019D01*
X9447733Y-4411472D01*
X9451340Y-4398314D01*
X9453168Y-4384802D01*
X9453168Y-4371187D01*
X9451340Y-4357674D01*
X9447733Y-4344517D01*
X9442399Y-4331970D01*
X9435439Y-4320235D01*
X9427006Y-4309516D01*
X9417202Y-4300016D01*
X9406229Y-4291939D01*
X9394240Y-4285386D01*
X9381540Y-4280509D01*
X9368282Y-4277309D01*
X9354718Y-4275937D01*
X9341053Y-4276394D01*
X9327642Y-4278680D01*
X9314586Y-4282744D01*
X9302242Y-4288485D01*
X9290710Y-4295800D01*
X9280296Y-4304588D01*
X9271152Y-4314698D01*
X9263430Y-4325975D01*
X9257284Y-4338116D01*
X9252813Y-4351020D01*
X9250121Y-4364380D01*
X9249206Y-4377994D01*
X9250121Y-4391609D01*
X9252813Y-4404969D01*
X9257284Y-4417822D01*
X9263430Y-4430014D01*
X9271152Y-4441240D01*
X9280296Y-4451350D01*
X9290710Y-4460189D01*
X9302242Y-4467504D01*
X9314586Y-4473244D01*
X9327642Y-4477308D01*
X9341053Y-4479544D01*
G37*
G36*
X8084718Y-4480001D02*
G01*
X8098281Y-4478629D01*
X8111540Y-4475480D01*
X8124240Y-4470603D01*
X8136229Y-4464050D01*
X8147202Y-4455922D01*
X8157006Y-4446473D01*
X8165439Y-4435754D01*
X8172399Y-4424019D01*
X8177733Y-4411472D01*
X8181340Y-4398314D01*
X8183168Y-4384802D01*
X8183168Y-4371187D01*
X8181340Y-4357674D01*
X8177733Y-4344517D01*
X8172399Y-4331970D01*
X8165439Y-4320235D01*
X8157006Y-4309516D01*
X8147202Y-4300016D01*
X8136229Y-4291939D01*
X8124240Y-4285386D01*
X8111540Y-4280509D01*
X8098281Y-4277309D01*
X8084718Y-4275937D01*
X8071053Y-4276394D01*
X8057642Y-4278680D01*
X8044586Y-4282744D01*
X8032242Y-4288485D01*
X8020710Y-4295800D01*
X8010296Y-4304588D01*
X8001152Y-4314698D01*
X7993430Y-4325975D01*
X7987284Y-4338116D01*
X7982813Y-4351020D01*
X7980121Y-4364380D01*
X7979206Y-4377994D01*
X7980121Y-4391609D01*
X7982813Y-4404969D01*
X7987284Y-4417822D01*
X7993430Y-4430014D01*
X8001152Y-4441240D01*
X8010296Y-4451350D01*
X8020710Y-4460189D01*
X8032242Y-4467504D01*
X8044586Y-4473244D01*
X8057642Y-4477308D01*
X8071053Y-4479544D01*
G37*
G36*
X9608718Y-4480001D02*
G01*
X9622282Y-4478629D01*
X9635540Y-4475480D01*
X9648240Y-4470603D01*
X9660229Y-4464050D01*
X9671202Y-4455922D01*
X9681006Y-4446473D01*
X9689439Y-4435754D01*
X9696399Y-4424019D01*
X9701733Y-4411472D01*
X9705340Y-4398314D01*
X9707168Y-4384802D01*
X9707168Y-4371187D01*
X9705340Y-4357674D01*
X9701733Y-4344517D01*
X9696399Y-4331970D01*
X9689439Y-4320235D01*
X9681006Y-4309516D01*
X9671202Y-4300016D01*
X9660229Y-4291939D01*
X9648240Y-4285386D01*
X9635540Y-4280509D01*
X9622282Y-4277309D01*
X9608718Y-4275937D01*
X9595053Y-4276394D01*
X9581642Y-4278680D01*
X9568586Y-4282744D01*
X9556242Y-4288485D01*
X9544710Y-4295800D01*
X9534296Y-4304588D01*
X9525152Y-4314698D01*
X9517430Y-4325975D01*
X9511284Y-4338116D01*
X9506813Y-4351020D01*
X9504121Y-4364380D01*
X9503206Y-4377994D01*
X9504121Y-4391609D01*
X9506813Y-4404969D01*
X9511284Y-4417822D01*
X9517430Y-4430014D01*
X9525152Y-4441240D01*
X9534296Y-4451350D01*
X9544710Y-4460189D01*
X9556242Y-4467504D01*
X9568586Y-4473244D01*
X9581642Y-4477308D01*
X9595053Y-4479544D01*
G37*
G36*
X10878718Y-4480001D02*
G01*
X10892282Y-4478629D01*
X10905540Y-4475480D01*
X10918240Y-4470603D01*
X10930229Y-4464050D01*
X10941202Y-4455922D01*
X10951006Y-4446473D01*
X10959439Y-4435754D01*
X10966399Y-4424019D01*
X10971733Y-4411472D01*
X10975340Y-4398314D01*
X10977168Y-4384802D01*
X10977168Y-4371187D01*
X10975340Y-4357674D01*
X10971733Y-4344517D01*
X10966399Y-4331970D01*
X10959439Y-4320235D01*
X10951006Y-4309516D01*
X10941202Y-4300016D01*
X10930229Y-4291939D01*
X10918240Y-4285386D01*
X10905540Y-4280509D01*
X10892282Y-4277309D01*
X10878718Y-4275937D01*
X10865053Y-4276394D01*
X10851642Y-4278680D01*
X10838586Y-4282744D01*
X10826242Y-4288485D01*
X10814710Y-4295800D01*
X10804296Y-4304588D01*
X10795152Y-4314698D01*
X10787430Y-4325975D01*
X10781284Y-4338116D01*
X10776813Y-4351020D01*
X10774121Y-4364380D01*
X10773206Y-4377994D01*
X10774121Y-4391609D01*
X10776813Y-4404969D01*
X10781284Y-4417822D01*
X10787430Y-4430014D01*
X10795152Y-4441240D01*
X10804296Y-4451350D01*
X10814710Y-4460189D01*
X10826242Y-4467504D01*
X10838586Y-4473244D01*
X10851642Y-4477308D01*
X10865053Y-4479544D01*
G37*
G36*
X7830718Y-4480001D02*
G01*
X7844281Y-4478629D01*
X7857540Y-4475480D01*
X7870240Y-4470603D01*
X7882229Y-4464050D01*
X7893202Y-4455922D01*
X7903006Y-4446473D01*
X7911439Y-4435754D01*
X7918399Y-4424019D01*
X7923733Y-4411472D01*
X7927340Y-4398314D01*
X7929168Y-4384802D01*
X7929168Y-4371187D01*
X7927340Y-4357674D01*
X7923733Y-4344517D01*
X7918399Y-4331970D01*
X7911439Y-4320235D01*
X7903006Y-4309516D01*
X7893202Y-4300016D01*
X7882229Y-4291939D01*
X7870240Y-4285386D01*
X7857540Y-4280509D01*
X7844281Y-4277309D01*
X7830718Y-4275937D01*
X7817053Y-4276394D01*
X7803642Y-4278680D01*
X7790586Y-4282744D01*
X7778242Y-4288485D01*
X7766710Y-4295800D01*
X7756296Y-4304588D01*
X7747152Y-4314698D01*
X7739430Y-4325975D01*
X7733284Y-4338116D01*
X7728813Y-4351020D01*
X7726121Y-4364380D01*
X7725206Y-4377994D01*
X7726121Y-4391609D01*
X7728813Y-4404969D01*
X7733284Y-4417822D01*
X7739430Y-4430014D01*
X7747152Y-4441240D01*
X7756296Y-4451350D01*
X7766710Y-4460189D01*
X7778242Y-4467504D01*
X7790586Y-4473244D01*
X7803642Y-4477308D01*
X7817053Y-4479544D01*
G37*
G36*
X6560718Y-4480001D02*
G01*
X6574281Y-4478629D01*
X6587540Y-4475480D01*
X6600240Y-4470603D01*
X6612229Y-4464050D01*
X6623202Y-4455922D01*
X6633006Y-4446473D01*
X6641439Y-4435754D01*
X6648399Y-4424019D01*
X6653733Y-4411472D01*
X6657340Y-4398314D01*
X6659168Y-4384802D01*
X6659168Y-4371187D01*
X6657340Y-4357674D01*
X6653733Y-4344517D01*
X6648399Y-4331970D01*
X6641439Y-4320235D01*
X6633006Y-4309516D01*
X6623202Y-4300016D01*
X6612229Y-4291939D01*
X6600240Y-4285386D01*
X6587540Y-4280509D01*
X6574281Y-4277309D01*
X6560718Y-4275937D01*
X6547053Y-4276394D01*
X6533642Y-4278680D01*
X6520586Y-4282744D01*
X6508242Y-4288485D01*
X6496710Y-4295800D01*
X6486296Y-4304588D01*
X6477152Y-4314698D01*
X6469430Y-4325975D01*
X6463284Y-4338116D01*
X6458813Y-4351020D01*
X6456121Y-4364380D01*
X6455206Y-4377994D01*
X6456121Y-4391609D01*
X6458813Y-4404969D01*
X6463284Y-4417822D01*
X6469430Y-4430014D01*
X6477152Y-4441240D01*
X6486296Y-4451350D01*
X6496710Y-4460189D01*
X6508242Y-4467504D01*
X6520586Y-4473244D01*
X6533642Y-4477308D01*
X6547053Y-4479544D01*
G37*
G36*
X9862718Y-4480001D02*
G01*
X9876282Y-4478629D01*
X9889540Y-4475480D01*
X9902240Y-4470603D01*
X9914229Y-4464050D01*
X9925202Y-4455922D01*
X9935006Y-4446473D01*
X9943439Y-4435754D01*
X9950399Y-4424019D01*
X9955733Y-4411472D01*
X9959340Y-4398314D01*
X9961168Y-4384802D01*
X9961168Y-4371187D01*
X9959340Y-4357674D01*
X9955733Y-4344517D01*
X9950399Y-4331970D01*
X9943439Y-4320235D01*
X9935006Y-4309516D01*
X9925202Y-4300016D01*
X9914229Y-4291939D01*
X9902240Y-4285386D01*
X9889540Y-4280509D01*
X9876282Y-4277309D01*
X9862718Y-4275937D01*
X9849053Y-4276394D01*
X9835642Y-4278680D01*
X9822586Y-4282744D01*
X9810242Y-4288485D01*
X9798710Y-4295800D01*
X9788296Y-4304588D01*
X9779152Y-4314698D01*
X9771430Y-4325975D01*
X9765284Y-4338116D01*
X9760813Y-4351020D01*
X9758121Y-4364380D01*
X9757206Y-4377994D01*
X9758121Y-4391609D01*
X9760813Y-4404969D01*
X9765284Y-4417822D01*
X9771430Y-4430014D01*
X9779152Y-4441240D01*
X9788296Y-4451350D01*
X9798710Y-4460189D01*
X9810242Y-4467504D01*
X9822586Y-4473244D01*
X9835642Y-4477308D01*
X9849053Y-4479544D01*
G37*
G36*
X11132718Y-4480001D02*
G01*
X11146282Y-4478629D01*
X11159540Y-4475480D01*
X11172240Y-4470603D01*
X11184229Y-4464050D01*
X11195202Y-4455922D01*
X11205006Y-4446473D01*
X11213439Y-4435754D01*
X11220399Y-4424019D01*
X11225733Y-4411472D01*
X11229340Y-4398314D01*
X11231168Y-4384802D01*
X11231168Y-4371187D01*
X11229340Y-4357674D01*
X11225733Y-4344517D01*
X11220399Y-4331970D01*
X11213439Y-4320235D01*
X11205006Y-4309516D01*
X11195202Y-4300016D01*
X11184229Y-4291939D01*
X11172240Y-4285386D01*
X11159540Y-4280509D01*
X11146282Y-4277309D01*
X11132718Y-4275937D01*
X11119053Y-4276394D01*
X11105642Y-4278680D01*
X11092586Y-4282744D01*
X11080242Y-4288485D01*
X11068710Y-4295800D01*
X11058296Y-4304588D01*
X11049152Y-4314698D01*
X11041430Y-4325975D01*
X11035284Y-4338116D01*
X11030813Y-4351020D01*
X11028121Y-4364380D01*
X11027206Y-4377994D01*
X11028121Y-4391609D01*
X11030813Y-4404969D01*
X11035284Y-4417822D01*
X11041430Y-4430014D01*
X11049152Y-4441240D01*
X11058296Y-4451350D01*
X11068710Y-4460189D01*
X11080242Y-4467504D01*
X11092586Y-4473244D01*
X11105642Y-4477308D01*
X11119053Y-4479544D01*
G37*
G36*
X7576718Y-4480001D02*
G01*
X7590281Y-4478629D01*
X7603540Y-4475480D01*
X7616240Y-4470603D01*
X7628229Y-4464050D01*
X7639202Y-4455922D01*
X7649006Y-4446473D01*
X7657439Y-4435754D01*
X7664399Y-4424019D01*
X7669733Y-4411472D01*
X7673340Y-4398314D01*
X7675168Y-4384802D01*
X7675168Y-4371187D01*
X7673340Y-4357674D01*
X7669733Y-4344517D01*
X7664399Y-4331970D01*
X7657439Y-4320235D01*
X7649006Y-4309516D01*
X7639202Y-4300016D01*
X7628229Y-4291939D01*
X7616240Y-4285386D01*
X7603540Y-4280509D01*
X7590281Y-4277309D01*
X7576718Y-4275937D01*
X7563053Y-4276394D01*
X7549642Y-4278680D01*
X7536586Y-4282744D01*
X7524242Y-4288485D01*
X7512710Y-4295800D01*
X7502296Y-4304588D01*
X7493152Y-4314698D01*
X7485430Y-4325975D01*
X7479284Y-4338116D01*
X7474813Y-4351020D01*
X7472121Y-4364380D01*
X7471206Y-4377994D01*
X7472121Y-4391609D01*
X7474813Y-4404969D01*
X7479284Y-4417822D01*
X7485430Y-4430014D01*
X7493152Y-4441240D01*
X7502296Y-4451350D01*
X7512710Y-4460189D01*
X7524242Y-4467504D01*
X7536586Y-4473244D01*
X7549642Y-4477308D01*
X7563053Y-4479544D01*
G37*
G36*
X6814718Y-4480001D02*
G01*
X6828281Y-4478629D01*
X6841540Y-4475480D01*
X6854240Y-4470603D01*
X6866229Y-4464050D01*
X6877202Y-4455922D01*
X6887006Y-4446473D01*
X6895439Y-4435754D01*
X6902399Y-4424019D01*
X6907733Y-4411472D01*
X6911340Y-4398314D01*
X6913168Y-4384802D01*
X6913168Y-4371187D01*
X6911340Y-4357674D01*
X6907733Y-4344517D01*
X6902399Y-4331970D01*
X6895439Y-4320235D01*
X6887006Y-4309516D01*
X6877202Y-4300016D01*
X6866229Y-4291939D01*
X6854240Y-4285386D01*
X6841540Y-4280509D01*
X6828281Y-4277309D01*
X6814718Y-4275937D01*
X6801053Y-4276394D01*
X6787642Y-4278680D01*
X6774586Y-4282744D01*
X6762242Y-4288485D01*
X6750710Y-4295800D01*
X6740296Y-4304588D01*
X6731152Y-4314698D01*
X6723430Y-4325975D01*
X6717284Y-4338116D01*
X6712813Y-4351020D01*
X6710121Y-4364380D01*
X6709206Y-4377994D01*
X6710121Y-4391609D01*
X6712813Y-4404969D01*
X6717284Y-4417822D01*
X6723430Y-4430014D01*
X6731152Y-4441240D01*
X6740296Y-4451350D01*
X6750710Y-4460189D01*
X6762242Y-4467504D01*
X6774586Y-4473244D01*
X6787642Y-4477308D01*
X6801053Y-4479544D01*
G37*
G36*
X10116718Y-4480001D02*
G01*
X10130282Y-4478629D01*
X10143540Y-4475480D01*
X10156240Y-4470603D01*
X10168229Y-4464050D01*
X10179202Y-4455922D01*
X10189006Y-4446473D01*
X10197439Y-4435754D01*
X10204399Y-4424019D01*
X10209733Y-4411472D01*
X10213340Y-4398314D01*
X10215168Y-4384802D01*
X10215168Y-4371187D01*
X10213340Y-4357674D01*
X10209733Y-4344517D01*
X10204399Y-4331970D01*
X10197439Y-4320235D01*
X10189006Y-4309516D01*
X10179202Y-4300016D01*
X10168229Y-4291939D01*
X10156240Y-4285386D01*
X10143540Y-4280509D01*
X10130282Y-4277309D01*
X10116718Y-4275937D01*
X10103053Y-4276394D01*
X10089642Y-4278680D01*
X10076586Y-4282744D01*
X10064242Y-4288485D01*
X10052710Y-4295800D01*
X10042296Y-4304588D01*
X10033152Y-4314698D01*
X10025430Y-4325975D01*
X10019284Y-4338116D01*
X10014813Y-4351020D01*
X10012121Y-4364380D01*
X10011206Y-4377994D01*
X10012121Y-4391609D01*
X10014813Y-4404969D01*
X10019284Y-4417822D01*
X10025430Y-4430014D01*
X10033152Y-4441240D01*
X10042296Y-4451350D01*
X10052710Y-4460189D01*
X10064242Y-4467504D01*
X10076586Y-4473244D01*
X10089642Y-4477308D01*
X10103053Y-4479544D01*
G37*
G36*
X10624718Y-4480001D02*
G01*
X10638282Y-4478629D01*
X10651540Y-4475480D01*
X10664240Y-4470603D01*
X10676229Y-4464050D01*
X10687202Y-4455922D01*
X10697006Y-4446473D01*
X10705439Y-4435754D01*
X10712399Y-4424019D01*
X10717733Y-4411472D01*
X10721340Y-4398314D01*
X10723168Y-4384802D01*
X10723168Y-4371187D01*
X10721340Y-4357674D01*
X10717733Y-4344517D01*
X10712399Y-4331970D01*
X10705439Y-4320235D01*
X10697006Y-4309516D01*
X10687202Y-4300016D01*
X10676229Y-4291939D01*
X10664240Y-4285386D01*
X10651540Y-4280509D01*
X10638282Y-4277309D01*
X10624718Y-4275937D01*
X10611053Y-4276394D01*
X10597642Y-4278680D01*
X10584586Y-4282744D01*
X10572242Y-4288485D01*
X10560710Y-4295800D01*
X10550296Y-4304588D01*
X10541152Y-4314698D01*
X10533430Y-4325975D01*
X10527284Y-4338116D01*
X10522813Y-4351020D01*
X10520121Y-4364380D01*
X10519206Y-4377994D01*
X10520121Y-4391609D01*
X10522813Y-4404969D01*
X10527284Y-4417822D01*
X10533430Y-4430014D01*
X10541152Y-4441240D01*
X10550296Y-4451350D01*
X10560710Y-4460189D01*
X10572242Y-4467504D01*
X10584586Y-4473244D01*
X10597642Y-4477308D01*
X10611053Y-4479544D01*
G37*
G36*
X7322718Y-4480001D02*
G01*
X7336281Y-4478629D01*
X7349540Y-4475480D01*
X7362240Y-4470603D01*
X7374229Y-4464050D01*
X7385202Y-4455922D01*
X7395006Y-4446473D01*
X7403439Y-4435754D01*
X7410399Y-4424019D01*
X7415733Y-4411472D01*
X7419340Y-4398314D01*
X7421168Y-4384802D01*
X7421168Y-4371187D01*
X7419340Y-4357674D01*
X7415733Y-4344517D01*
X7410399Y-4331970D01*
X7403439Y-4320235D01*
X7395006Y-4309516D01*
X7385202Y-4300016D01*
X7374229Y-4291939D01*
X7362240Y-4285386D01*
X7349540Y-4280509D01*
X7336281Y-4277309D01*
X7322718Y-4275937D01*
X7309053Y-4276394D01*
X7295642Y-4278680D01*
X7282586Y-4282744D01*
X7270242Y-4288485D01*
X7258710Y-4295800D01*
X7248296Y-4304588D01*
X7239152Y-4314698D01*
X7231430Y-4325975D01*
X7225284Y-4338116D01*
X7220813Y-4351020D01*
X7218121Y-4364380D01*
X7217206Y-4377994D01*
X7218121Y-4391609D01*
X7220813Y-4404969D01*
X7225284Y-4417822D01*
X7231430Y-4430014D01*
X7239152Y-4441240D01*
X7248296Y-4451350D01*
X7258710Y-4460189D01*
X7270242Y-4467504D01*
X7282586Y-4473244D01*
X7295642Y-4477308D01*
X7309053Y-4479544D01*
G37*
G36*
X7068718Y-4480001D02*
G01*
X7082281Y-4478629D01*
X7095540Y-4475480D01*
X7108240Y-4470603D01*
X7120229Y-4464050D01*
X7131202Y-4455922D01*
X7141006Y-4446473D01*
X7149439Y-4435754D01*
X7156399Y-4424019D01*
X7161733Y-4411472D01*
X7165340Y-4398314D01*
X7167168Y-4384802D01*
X7167168Y-4371187D01*
X7165340Y-4357674D01*
X7161733Y-4344517D01*
X7156399Y-4331970D01*
X7149439Y-4320235D01*
X7141006Y-4309516D01*
X7131202Y-4300016D01*
X7120229Y-4291939D01*
X7108240Y-4285386D01*
X7095540Y-4280509D01*
X7082281Y-4277309D01*
X7068718Y-4275937D01*
X7055053Y-4276394D01*
X7041642Y-4278680D01*
X7028586Y-4282744D01*
X7016242Y-4288485D01*
X7004710Y-4295800D01*
X6994296Y-4304588D01*
X6985152Y-4314698D01*
X6977430Y-4325975D01*
X6971284Y-4338116D01*
X6966813Y-4351020D01*
X6964121Y-4364380D01*
X6963206Y-4377994D01*
X6964121Y-4391609D01*
X6966813Y-4404969D01*
X6971284Y-4417822D01*
X6977430Y-4430014D01*
X6985152Y-4441240D01*
X6994296Y-4451350D01*
X7004710Y-4460189D01*
X7016242Y-4467504D01*
X7028586Y-4473244D01*
X7041642Y-4477308D01*
X7055053Y-4479544D01*
G37*
G36*
X10370718Y-4480001D02*
G01*
X10384282Y-4478629D01*
X10397540Y-4475480D01*
X10410240Y-4470603D01*
X10422229Y-4464050D01*
X10433202Y-4455922D01*
X10443006Y-4446473D01*
X10451439Y-4435754D01*
X10458399Y-4424019D01*
X10463733Y-4411472D01*
X10467340Y-4398314D01*
X10469168Y-4384802D01*
X10469168Y-4371187D01*
X10467340Y-4357674D01*
X10463733Y-4344517D01*
X10458399Y-4331970D01*
X10451439Y-4320235D01*
X10443006Y-4309516D01*
X10433202Y-4300016D01*
X10422229Y-4291939D01*
X10410240Y-4285386D01*
X10397540Y-4280509D01*
X10384282Y-4277309D01*
X10370718Y-4275937D01*
X10357053Y-4276394D01*
X10343642Y-4278680D01*
X10330586Y-4282744D01*
X10318242Y-4288485D01*
X10306710Y-4295800D01*
X10296296Y-4304588D01*
X10287152Y-4314698D01*
X10279430Y-4325975D01*
X10273284Y-4338116D01*
X10268813Y-4351020D01*
X10266121Y-4364380D01*
X10265206Y-4377994D01*
X10266121Y-4391609D01*
X10268813Y-4404969D01*
X10273284Y-4417822D01*
X10279430Y-4430014D01*
X10287152Y-4441240D01*
X10296296Y-4451350D01*
X10306710Y-4460189D01*
X10318242Y-4467504D01*
X10330586Y-4473244D01*
X10343642Y-4477308D01*
X10357053Y-4479544D01*
G37*
G36*
X6306718Y-4480001D02*
G01*
X6320282Y-4478629D01*
X6333540Y-4475480D01*
X6346240Y-4470603D01*
X6358229Y-4464050D01*
X6369202Y-4455922D01*
X6379006Y-4446473D01*
X6387439Y-4435754D01*
X6394399Y-4424019D01*
X6399733Y-4411472D01*
X6403340Y-4398314D01*
X6405168Y-4384802D01*
X6405168Y-4371187D01*
X6403340Y-4357674D01*
X6399733Y-4344517D01*
X6394399Y-4331970D01*
X6387439Y-4320235D01*
X6379006Y-4309516D01*
X6369202Y-4300016D01*
X6358229Y-4291939D01*
X6346240Y-4285386D01*
X6333540Y-4280509D01*
X6320282Y-4277309D01*
X6306718Y-4275937D01*
X6293053Y-4276394D01*
X6279642Y-4278680D01*
X6266586Y-4282744D01*
X6254242Y-4288485D01*
X6242710Y-4295800D01*
X6232296Y-4304588D01*
X6223152Y-4314698D01*
X6215430Y-4325975D01*
X6209284Y-4338116D01*
X6204813Y-4351020D01*
X6202121Y-4364380D01*
X6201206Y-4377994D01*
X6202121Y-4391609D01*
X6204813Y-4404969D01*
X6209284Y-4417822D01*
X6215430Y-4430014D01*
X6223152Y-4441240D01*
X6232296Y-4451350D01*
X6242710Y-4460189D01*
X6254242Y-4467504D01*
X6266586Y-4473244D01*
X6279642Y-4477308D01*
X6293053Y-4479544D01*
G37*
G36*
X11386718Y-4480001D02*
G01*
X11400282Y-4478629D01*
X11413540Y-4475480D01*
X11426240Y-4470603D01*
X11438229Y-4464050D01*
X11449202Y-4455922D01*
X11459006Y-4446473D01*
X11467439Y-4435754D01*
X11474399Y-4424019D01*
X11479733Y-4411472D01*
X11483340Y-4398314D01*
X11485168Y-4384802D01*
X11485168Y-4371187D01*
X11483340Y-4357674D01*
X11479733Y-4344517D01*
X11474399Y-4331970D01*
X11467439Y-4320235D01*
X11459006Y-4309516D01*
X11449202Y-4300016D01*
X11438229Y-4291939D01*
X11426240Y-4285386D01*
X11413540Y-4280509D01*
X11400282Y-4277309D01*
X11386718Y-4275937D01*
X11373053Y-4276394D01*
X11359642Y-4278680D01*
X11346586Y-4282744D01*
X11334242Y-4288485D01*
X11322710Y-4295800D01*
X11312296Y-4304588D01*
X11303152Y-4314698D01*
X11295430Y-4325975D01*
X11289284Y-4338116D01*
X11284813Y-4351020D01*
X11282121Y-4364380D01*
X11281206Y-4377994D01*
X11282121Y-4391609D01*
X11284813Y-4404969D01*
X11289284Y-4417822D01*
X11295430Y-4430014D01*
X11303152Y-4441240D01*
X11312296Y-4451350D01*
X11322710Y-4460189D01*
X11334242Y-4467504D01*
X11346586Y-4473244D01*
X11359642Y-4477308D01*
X11373053Y-4479544D01*
G37*
G36*
X2348687Y-3885742D02*
G01*
X2527554Y-3885742D01*
X2533853Y-3885031D01*
X2539339Y-3883151D01*
X2544216Y-3880053D01*
X2548331Y-3875989D01*
X2551379Y-3871061D01*
X2553309Y-3865626D01*
X2554020Y-3859276D01*
X2554020Y-3670452D01*
X2553309Y-3664102D01*
X2551379Y-3658666D01*
X2548331Y-3653739D01*
X2544216Y-3649675D01*
X2539339Y-3646576D01*
X2533853Y-3644646D01*
X2527554Y-3643934D01*
X2348687Y-3643934D01*
X2342388Y-3644646D01*
X2336901Y-3646576D01*
X2332024Y-3649675D01*
X2327910Y-3653739D01*
X2324811Y-3658666D01*
X2322931Y-3664102D01*
X2322220Y-3670452D01*
X2322220Y-3859276D01*
X2322931Y-3865626D01*
X2324811Y-3871061D01*
X2327910Y-3875989D01*
X2332024Y-3880053D01*
X2336901Y-3883151D01*
X2342388Y-3885031D01*
G37*
G36*
X10236555Y-2748889D02*
G01*
X10405414Y-2748889D01*
X10411714Y-2748178D01*
X10417200Y-2746298D01*
X10422077Y-2743200D01*
X10426192Y-2739085D01*
X10429240Y-2734208D01*
X10431170Y-2728722D01*
X10431881Y-2722422D01*
X10431881Y-2553563D01*
X10431170Y-2547264D01*
X10429240Y-2541778D01*
X10426192Y-2536901D01*
X10422077Y-2532786D01*
X10417200Y-2529687D01*
X10411714Y-2527808D01*
X10405414Y-2527096D01*
X10236555Y-2527096D01*
X10230205Y-2527808D01*
X10224770Y-2529687D01*
X10219842Y-2532786D01*
X10215778Y-2536901D01*
X10212679Y-2541778D01*
X10210800Y-2547264D01*
X10210088Y-2553563D01*
X10210088Y-2722422D01*
X10210800Y-2728722D01*
X10212679Y-2734208D01*
X10215778Y-2739085D01*
X10219842Y-2743200D01*
X10224770Y-2746298D01*
X10230205Y-2748178D01*
G37*
G36*
X6533997Y-1270457D02*
G01*
X6548120Y-1269492D01*
X6562039Y-1266748D01*
X6575501Y-1262176D01*
X6588201Y-1255928D01*
X6599986Y-1248003D01*
X6610654Y-1238656D01*
X6620002Y-1227988D01*
X6627875Y-1216202D01*
X6634175Y-1203502D01*
X6638747Y-1190040D01*
X6641490Y-1176172D01*
X6642404Y-1161999D01*
X6641490Y-1147826D01*
X6638747Y-1133906D01*
X6634175Y-1120495D01*
X6627875Y-1107795D01*
X6620002Y-1096010D01*
X6610654Y-1085342D01*
X6599986Y-1075944D01*
X6588201Y-1068070D01*
X6575501Y-1061821D01*
X6562039Y-1057249D01*
X6548120Y-1054506D01*
X6533997Y-1053541D01*
X6519824Y-1054506D01*
X6505905Y-1057249D01*
X6492494Y-1061821D01*
X6479794Y-1068070D01*
X6467957Y-1075944D01*
X6457289Y-1085342D01*
X6447942Y-1096010D01*
X6440068Y-1107795D01*
X6433820Y-1120495D01*
X6429248Y-1133906D01*
X6426454Y-1147826D01*
X6425539Y-1161999D01*
X6426454Y-1176172D01*
X6429248Y-1190040D01*
X6433820Y-1203502D01*
X6440068Y-1216202D01*
X6447942Y-1227988D01*
X6457289Y-1238656D01*
X6467957Y-1248003D01*
X6479794Y-1255928D01*
X6492494Y-1262176D01*
X6505905Y-1266748D01*
X6519824Y-1269492D01*
G37*
G36*
X6787997Y-1270457D02*
G01*
X6802120Y-1269492D01*
X6816039Y-1266748D01*
X6829501Y-1262176D01*
X6842201Y-1255928D01*
X6853986Y-1248003D01*
X6864654Y-1238656D01*
X6874002Y-1227988D01*
X6881875Y-1216202D01*
X6888175Y-1203502D01*
X6892747Y-1190040D01*
X6895490Y-1176172D01*
X6896404Y-1161999D01*
X6895490Y-1147826D01*
X6892747Y-1133906D01*
X6888175Y-1120495D01*
X6881875Y-1107795D01*
X6874002Y-1096010D01*
X6864654Y-1085342D01*
X6853986Y-1075944D01*
X6842201Y-1068070D01*
X6829501Y-1061821D01*
X6816039Y-1057249D01*
X6802120Y-1054506D01*
X6787997Y-1053541D01*
X6773824Y-1054506D01*
X6759905Y-1057249D01*
X6746494Y-1061821D01*
X6733794Y-1068070D01*
X6721957Y-1075944D01*
X6711289Y-1085342D01*
X6701942Y-1096010D01*
X6694068Y-1107795D01*
X6687820Y-1120495D01*
X6683248Y-1133906D01*
X6680453Y-1147826D01*
X6679539Y-1161999D01*
X6680453Y-1176172D01*
X6683248Y-1190040D01*
X6687820Y-1203502D01*
X6694068Y-1216202D01*
X6701942Y-1227988D01*
X6711289Y-1238656D01*
X6721957Y-1248003D01*
X6733794Y-1255928D01*
X6746494Y-1262176D01*
X6759905Y-1266748D01*
X6773824Y-1269492D01*
G37*
G36*
X11411000Y-1248410D02*
G01*
X11425123Y-1247495D01*
X11439042Y-1244752D01*
X11452453Y-1240180D01*
X11465204Y-1233881D01*
X11476990Y-1226007D01*
X11487658Y-1216660D01*
X11497005Y-1205992D01*
X11504879Y-1194206D01*
X11511178Y-1181506D01*
X11515699Y-1168044D01*
X11518493Y-1154176D01*
X11519408Y-1140002D01*
X11518493Y-1125829D01*
X11515699Y-1111910D01*
X11511178Y-1098499D01*
X11504879Y-1085799D01*
X11497005Y-1073962D01*
X11487658Y-1063345D01*
X11476990Y-1053947D01*
X11465204Y-1046073D01*
X11452453Y-1039825D01*
X11439042Y-1035253D01*
X11425123Y-1032510D01*
X11411000Y-1031544D01*
X11396827Y-1032510D01*
X11382908Y-1035253D01*
X11369497Y-1039825D01*
X11356746Y-1046073D01*
X11344960Y-1053947D01*
X11334292Y-1063345D01*
X11324945Y-1073962D01*
X11317071Y-1085799D01*
X11310772Y-1098499D01*
X11306251Y-1111910D01*
X11303457Y-1125829D01*
X11302542Y-1140002D01*
X11303457Y-1154176D01*
X11306251Y-1168044D01*
X11310772Y-1181506D01*
X11317071Y-1194206D01*
X11324945Y-1205992D01*
X11334292Y-1216660D01*
X11344960Y-1226007D01*
X11356746Y-1233881D01*
X11369497Y-1240180D01*
X11382908Y-1244752D01*
X11396827Y-1247495D01*
G37*
G36*
X11157000Y-1248410D02*
G01*
X11171123Y-1247495D01*
X11185042Y-1244752D01*
X11198453Y-1240180D01*
X11211204Y-1233881D01*
X11222990Y-1226007D01*
X11233658Y-1216660D01*
X11243005Y-1205992D01*
X11250879Y-1194206D01*
X11257178Y-1181506D01*
X11261699Y-1168044D01*
X11264493Y-1154176D01*
X11265408Y-1140002D01*
X11264493Y-1125829D01*
X11261699Y-1111910D01*
X11257178Y-1098499D01*
X11250879Y-1085799D01*
X11243005Y-1073962D01*
X11233658Y-1063345D01*
X11222990Y-1053947D01*
X11211204Y-1046073D01*
X11198453Y-1039825D01*
X11185042Y-1035253D01*
X11171123Y-1032510D01*
X11157000Y-1031544D01*
X11142827Y-1032510D01*
X11128908Y-1035253D01*
X11115497Y-1039825D01*
X11102746Y-1046073D01*
X11090960Y-1053947D01*
X11080292Y-1063345D01*
X11070945Y-1073962D01*
X11063071Y-1085799D01*
X11056772Y-1098499D01*
X11052251Y-1111910D01*
X11049457Y-1125829D01*
X11048542Y-1140002D01*
X11049457Y-1154176D01*
X11052251Y-1168044D01*
X11056772Y-1181506D01*
X11063071Y-1194206D01*
X11070945Y-1205992D01*
X11080292Y-1216660D01*
X11090960Y-1226007D01*
X11102746Y-1233881D01*
X11115497Y-1240180D01*
X11128908Y-1244752D01*
X11142827Y-1247495D01*
G37*
G36*
X8600998Y-1246428D02*
G01*
X8615121Y-1245514D01*
X8629040Y-1242720D01*
X8642502Y-1238199D01*
X8655202Y-1231900D01*
X8666988Y-1224026D01*
X8677656Y-1214678D01*
X8687003Y-1204010D01*
X8694877Y-1192225D01*
X8701176Y-1179474D01*
X8705748Y-1166063D01*
X8708491Y-1152144D01*
X8709406Y-1138021D01*
X8708491Y-1123848D01*
X8705748Y-1109929D01*
X8701176Y-1096518D01*
X8694877Y-1083767D01*
X8687003Y-1071981D01*
X8677656Y-1061313D01*
X8666988Y-1051966D01*
X8655202Y-1044092D01*
X8642502Y-1037793D01*
X8629040Y-1033271D01*
X8615121Y-1030478D01*
X8600998Y-1029563D01*
X8586825Y-1030478D01*
X8572906Y-1033271D01*
X8559495Y-1037793D01*
X8546744Y-1044092D01*
X8534958Y-1051966D01*
X8524290Y-1061313D01*
X8514943Y-1071981D01*
X8507069Y-1083767D01*
X8500821Y-1096518D01*
X8496249Y-1109929D01*
X8493455Y-1123848D01*
X8492540Y-1138021D01*
X8493455Y-1152144D01*
X8496249Y-1166063D01*
X8500821Y-1179474D01*
X8507069Y-1192225D01*
X8514943Y-1204010D01*
X8524290Y-1214678D01*
X8534958Y-1224026D01*
X8546744Y-1231900D01*
X8559495Y-1238199D01*
X8572906Y-1242720D01*
X8586825Y-1245514D01*
G37*
G36*
X8346998Y-1246428D02*
G01*
X8361121Y-1245514D01*
X8375040Y-1242720D01*
X8388502Y-1238199D01*
X8401202Y-1231900D01*
X8412988Y-1224026D01*
X8423656Y-1214678D01*
X8433003Y-1204010D01*
X8440877Y-1192225D01*
X8447176Y-1179474D01*
X8451748Y-1166063D01*
X8454491Y-1152144D01*
X8455406Y-1138021D01*
X8454491Y-1123848D01*
X8451748Y-1109929D01*
X8447176Y-1096518D01*
X8440877Y-1083767D01*
X8433003Y-1071981D01*
X8423656Y-1061313D01*
X8412988Y-1051966D01*
X8401202Y-1044092D01*
X8388502Y-1037793D01*
X8375040Y-1033271D01*
X8361121Y-1030478D01*
X8346998Y-1029563D01*
X8332825Y-1030478D01*
X8318906Y-1033271D01*
X8305495Y-1037793D01*
X8292744Y-1044092D01*
X8280958Y-1051966D01*
X8270290Y-1061313D01*
X8260943Y-1071981D01*
X8253069Y-1083767D01*
X8246821Y-1096518D01*
X8242249Y-1109929D01*
X8239455Y-1123848D01*
X8238540Y-1138021D01*
X8239455Y-1152144D01*
X8242249Y-1166063D01*
X8246821Y-1179474D01*
X8253069Y-1192225D01*
X8260943Y-1204010D01*
X8270290Y-1214678D01*
X8280958Y-1224026D01*
X8292744Y-1231900D01*
X8305495Y-1238199D01*
X8318906Y-1242720D01*
X8332825Y-1245514D01*
G37*
G36*
X10070998Y-1242415D02*
G01*
X10085120Y-1241501D01*
X10099040Y-1238758D01*
X10112502Y-1234186D01*
X10125202Y-1227886D01*
X10136987Y-1220012D01*
X10147655Y-1210665D01*
X10157002Y-1199997D01*
X10164876Y-1188212D01*
X10171176Y-1175512D01*
X10175697Y-1162050D01*
X10178491Y-1148130D01*
X10179405Y-1134008D01*
X10178491Y-1119835D01*
X10175697Y-1105916D01*
X10171176Y-1092504D01*
X10164876Y-1079804D01*
X10157002Y-1067968D01*
X10147655Y-1057300D01*
X10136987Y-1047953D01*
X10125202Y-1040079D01*
X10112502Y-1033830D01*
X10099040Y-1029258D01*
X10085120Y-1026464D01*
X10070998Y-1025550D01*
X10056825Y-1026464D01*
X10042906Y-1029258D01*
X10029494Y-1033830D01*
X10016744Y-1040079D01*
X10004958Y-1047953D01*
X9994290Y-1057300D01*
X9984943Y-1067968D01*
X9977069Y-1079804D01*
X9970820Y-1092504D01*
X9966248Y-1105916D01*
X9963454Y-1119835D01*
X9962540Y-1134008D01*
X9963454Y-1148130D01*
X9966248Y-1162050D01*
X9970820Y-1175512D01*
X9977069Y-1188212D01*
X9984943Y-1199997D01*
X9994290Y-1210665D01*
X10004958Y-1220012D01*
X10016744Y-1227886D01*
X10029494Y-1234186D01*
X10042906Y-1238758D01*
X10056825Y-1241501D01*
G37*
G36*
X9816998Y-1242415D02*
G01*
X9831120Y-1241501D01*
X9845040Y-1238758D01*
X9858502Y-1234186D01*
X9871202Y-1227886D01*
X9882987Y-1220012D01*
X9893655Y-1210665D01*
X9903002Y-1199997D01*
X9910876Y-1188212D01*
X9917176Y-1175512D01*
X9921697Y-1162050D01*
X9924491Y-1148130D01*
X9925405Y-1134008D01*
X9924491Y-1119835D01*
X9921697Y-1105916D01*
X9917176Y-1092504D01*
X9910876Y-1079804D01*
X9903002Y-1067968D01*
X9893655Y-1057300D01*
X9882987Y-1047953D01*
X9871202Y-1040079D01*
X9858502Y-1033830D01*
X9845040Y-1029258D01*
X9831120Y-1026464D01*
X9816998Y-1025550D01*
X9802825Y-1026464D01*
X9788906Y-1029258D01*
X9775494Y-1033830D01*
X9762744Y-1040079D01*
X9750958Y-1047953D01*
X9740290Y-1057300D01*
X9730943Y-1067968D01*
X9723069Y-1079804D01*
X9716820Y-1092504D01*
X9712248Y-1105916D01*
X9709454Y-1119835D01*
X9708540Y-1134008D01*
X9709454Y-1148130D01*
X9712248Y-1162050D01*
X9716820Y-1175512D01*
X9723069Y-1188212D01*
X9730943Y-1199997D01*
X9740290Y-1210665D01*
X9750958Y-1220012D01*
X9762744Y-1227886D01*
X9775494Y-1234186D01*
X9788906Y-1238758D01*
X9802825Y-1241501D01*
G37*
G36*
X495604Y-691235D02*
G01*
X514654Y-690727D01*
X533552Y-688390D01*
X552094Y-684123D01*
X570128Y-678078D01*
X587451Y-670255D01*
X603961Y-660755D01*
X619404Y-649630D01*
X633679Y-637032D01*
X646633Y-623062D01*
X658114Y-607923D01*
X668020Y-591667D01*
X676300Y-574548D01*
X682802Y-556666D01*
X687476Y-538226D01*
X690321Y-519379D01*
X691286Y-500380D01*
X690321Y-481380D01*
X687476Y-462534D01*
X682802Y-444093D01*
X676300Y-426212D01*
X668020Y-409092D01*
X658114Y-392836D01*
X646633Y-377698D01*
X633679Y-363728D01*
X619404Y-351129D01*
X603961Y-340004D01*
X587451Y-330504D01*
X570128Y-322681D01*
X552094Y-316636D01*
X533552Y-312369D01*
X514654Y-310032D01*
X495604Y-309524D01*
X476656Y-310946D01*
X457911Y-314248D01*
X439572Y-319430D01*
X421843Y-326390D01*
X404926Y-335076D01*
X388924Y-345389D01*
X374091Y-357225D01*
X360426Y-370535D01*
X348234Y-385114D01*
X337515Y-400862D01*
X328371Y-417576D01*
X321005Y-435101D01*
X315366Y-453288D01*
X311607Y-471932D01*
X309727Y-490880D01*
X309727Y-509879D01*
X311607Y-528828D01*
X315366Y-547471D01*
X321005Y-565658D01*
X328371Y-583184D01*
X337515Y-599897D01*
X348234Y-615645D01*
X360426Y-630224D01*
X374091Y-643534D01*
X388924Y-655370D01*
X404926Y-665683D01*
X421843Y-674370D01*
X439572Y-681329D01*
X457911Y-686511D01*
X476656Y-689813D01*
G37*
G36*
X11494973Y-691235D02*
G01*
X11513972Y-690727D01*
X11532870Y-688390D01*
X11551412Y-684123D01*
X11569446Y-678078D01*
X11586819Y-670255D01*
X11603278Y-660755D01*
X11618722Y-649630D01*
X11632996Y-637032D01*
X11645950Y-623062D01*
X11657431Y-607923D01*
X11667388Y-591667D01*
X11675618Y-574548D01*
X11682120Y-556666D01*
X11686844Y-538226D01*
X11689689Y-519379D01*
X11690604Y-500380D01*
X11689689Y-481380D01*
X11686844Y-462534D01*
X11682120Y-444093D01*
X11675618Y-426212D01*
X11667388Y-409092D01*
X11657431Y-392836D01*
X11645950Y-377698D01*
X11632996Y-363728D01*
X11618722Y-351129D01*
X11603278Y-340004D01*
X11586819Y-330504D01*
X11569446Y-322681D01*
X11551412Y-316636D01*
X11532870Y-312369D01*
X11513972Y-310032D01*
X11494973Y-309524D01*
X11475974Y-310946D01*
X11457228Y-314248D01*
X11438940Y-319430D01*
X11421211Y-326390D01*
X11404295Y-335076D01*
X11388293Y-345389D01*
X11373408Y-357225D01*
X11359794Y-370535D01*
X11347551Y-385114D01*
X11336832Y-400862D01*
X11327739Y-417576D01*
X11320322Y-435101D01*
X11314734Y-453288D01*
X11310975Y-471932D01*
X11309045Y-490880D01*
X11309045Y-509879D01*
X11310975Y-528828D01*
X11314734Y-547471D01*
X11320322Y-565658D01*
X11327739Y-583184D01*
X11336832Y-599897D01*
X11347551Y-615645D01*
X11359794Y-630224D01*
X11373408Y-643534D01*
X11388293Y-655370D01*
X11404295Y-665683D01*
X11421211Y-674370D01*
X11438940Y-681329D01*
X11457228Y-686511D01*
X11475974Y-689813D01*
G37*

%LPD*%
D10*
X3014360Y-6924682D02*
G01*
X3208162Y-6850768D01*
X3014360Y-6776854D02*
G01*
X3208162Y-6850768D01*
X3014360Y-6660522D02*
G01*
X3023504Y-6679064D01*
X3042046Y-6697352D01*
X3060334Y-6706750D01*
X3088274Y-6715894D01*
X3134248Y-6715894D01*
X3161934Y-6706750D01*
X3180476Y-6697352D01*
X3199018Y-6679064D01*
X3208162Y-6660522D01*
X3208162Y-6623692D01*
X3199018Y-6605150D01*
X3180476Y-6586608D01*
X3161934Y-6577464D01*
X3134248Y-6568066D01*
X3088274Y-6568066D01*
X3060334Y-6577464D01*
X3042046Y-6586608D01*
X3023504Y-6605150D01*
X3014360Y-6623692D01*
X3014360Y-6660522D01*
X3014360Y-6507106D02*
G01*
X3152790Y-6507106D01*
X3180476Y-6497962D01*
X3199018Y-6479420D01*
X3208162Y-6451734D01*
X3208162Y-6433192D01*
X3199018Y-6405506D01*
X3180476Y-6387218D01*
X3152790Y-6377820D01*
X3014360Y-6377820D01*
X3014360Y-6252344D02*
G01*
X3208162Y-6252344D01*
X3014360Y-6316860D02*
G01*
X3014360Y-6187574D01*
X3038335Y-7485250D02*
G01*
X3020047Y-7494394D01*
X3001505Y-7512936D01*
X2992361Y-7531224D01*
X2992361Y-7568308D01*
X3001505Y-7586850D01*
X3020047Y-7605138D01*
X3038335Y-7614536D01*
X3066275Y-7623680D01*
X3112249Y-7623680D01*
X3139935Y-7614536D01*
X3158477Y-7605138D01*
X3177019Y-7586850D01*
X3186163Y-7568308D01*
X3186163Y-7531224D01*
X3177019Y-7512936D01*
X3158477Y-7494394D01*
X3139935Y-7485250D01*
X3112249Y-7485250D01*
X3112249Y-7531224D02*
G01*
X3112249Y-7485250D01*
X2992361Y-7424290D02*
G01*
X3186163Y-7424290D01*
X2992361Y-7424290D02*
G01*
X3186163Y-7294750D01*
X2992361Y-7294750D02*
G01*
X3186163Y-7294750D01*
X2992361Y-7233790D02*
G01*
X3186163Y-7233790D01*
X2992361Y-7233790D02*
G01*
X2992361Y-7169274D01*
X3001505Y-7141588D01*
X3020047Y-7123046D01*
X3038335Y-7113902D01*
X3066275Y-7104504D01*
X3112249Y-7104504D01*
X3139935Y-7113902D01*
X3158477Y-7123046D01*
X3177019Y-7141588D01*
X3186163Y-7169274D01*
X3186163Y-7233790D01*
X1782803Y-6584754D02*
G01*
X1976605Y-6510840D01*
X1782803Y-6436926D02*
G01*
X1976605Y-6510840D01*
X1782803Y-6375966D02*
G01*
X1976605Y-6375966D01*
X1782803Y-6315006D02*
G01*
X1976605Y-6315006D01*
X1782803Y-6315006D02*
G01*
X1976605Y-6185720D01*
X1782803Y-6185720D02*
G01*
X1976605Y-6185720D01*
X1868352Y-7503261D02*
G01*
X1850064Y-7512405D01*
X1831522Y-7530947D01*
X1822378Y-7549235D01*
X1822378Y-7586319D01*
X1831522Y-7604861D01*
X1850064Y-7623149D01*
X1868352Y-7632547D01*
X1896292Y-7641691D01*
X1942266Y-7641691D01*
X1969952Y-7632547D01*
X1988494Y-7623149D01*
X2007036Y-7604861D01*
X2016180Y-7586319D01*
X2016180Y-7549235D01*
X2007036Y-7530947D01*
X1988494Y-7512405D01*
X1969952Y-7503261D01*
X1942266Y-7503261D01*
X1942266Y-7549235D02*
G01*
X1942266Y-7503261D01*
X1822378Y-7442301D02*
G01*
X2016180Y-7442301D01*
X1822378Y-7442301D02*
G01*
X2016180Y-7312761D01*
X1822378Y-7312761D02*
G01*
X2016180Y-7312761D01*
X1822378Y-7251801D02*
G01*
X2016180Y-7251801D01*
X1822378Y-7251801D02*
G01*
X1822378Y-7187285D01*
X1831522Y-7159599D01*
X1850064Y-7141057D01*
X1868352Y-7131913D01*
X1896292Y-7122515D01*
X1942266Y-7122515D01*
X1969952Y-7131913D01*
X1988494Y-7141057D01*
X2007036Y-7159599D01*
X2016180Y-7187285D01*
X2016180Y-7251801D01*
X2673144Y-7016894D02*
G01*
X2654602Y-7035436D01*
X2645458Y-7063122D01*
X2645458Y-7099952D01*
X2654602Y-7127638D01*
X2673144Y-7146180D01*
X2691432Y-7146180D01*
X2709974Y-7137036D01*
X2719372Y-7127638D01*
X2728516Y-7109350D01*
X2747058Y-7053724D01*
X2756202Y-7035436D01*
X2765346Y-7026038D01*
X2783888Y-7016894D01*
X2811574Y-7016894D01*
X2830116Y-7035436D01*
X2839260Y-7063122D01*
X2839260Y-7099952D01*
X2830116Y-7127638D01*
X2811574Y-7146180D01*
X2645458Y-6955934D02*
G01*
X2839260Y-6826648D01*
X2645458Y-6826648D02*
G01*
X2839260Y-6955934D01*
X2682288Y-6765688D02*
G01*
X2673144Y-6747146D01*
X2645458Y-6719460D01*
X2839260Y-6719460D01*
X2645458Y-6639958D02*
G01*
X2645458Y-6538358D01*
X2719372Y-6593730D01*
X2719372Y-6566044D01*
X2728516Y-6547756D01*
X2737660Y-6538358D01*
X2765346Y-6529214D01*
X2783888Y-6529214D01*
X2811574Y-6538358D01*
X2830116Y-6556900D01*
X2839260Y-6584586D01*
X2839260Y-6612272D01*
X2830116Y-6639958D01*
X2820972Y-6649356D01*
X2802430Y-6658500D01*
X2645458Y-6412882D02*
G01*
X2654602Y-6440568D01*
X2682288Y-6459110D01*
X2728516Y-6468254D01*
X2756202Y-6468254D01*
X2802430Y-6459110D01*
X2830116Y-6440568D01*
X2839260Y-6412882D01*
X2839260Y-6394340D01*
X2830116Y-6366654D01*
X2802430Y-6348112D01*
X2756202Y-6338968D01*
X2728516Y-6338968D01*
X2682288Y-6348112D01*
X2654602Y-6366654D01*
X2645458Y-6394340D01*
X2645458Y-6412882D01*
X2645458Y-6231780D02*
G01*
X2654602Y-6259466D01*
X2673144Y-6268610D01*
X2691432Y-6268610D01*
X2709974Y-6259466D01*
X2719372Y-6240924D01*
X2728516Y-6204094D01*
X2737660Y-6176408D01*
X2756202Y-6157866D01*
X2774744Y-6148722D01*
X2802430Y-6148722D01*
X2820972Y-6157866D01*
X2830116Y-6167010D01*
X2839260Y-6194950D01*
X2839260Y-6231780D01*
X2830116Y-6259466D01*
X2820972Y-6268610D01*
X2802430Y-6278008D01*
X2774744Y-6278008D01*
X2756202Y-6268610D01*
X2737660Y-6250322D01*
X2728516Y-6222636D01*
X2719372Y-6185552D01*
X2709974Y-6167010D01*
X2691432Y-6157866D01*
X2673144Y-6157866D01*
X2654602Y-6167010D01*
X2645458Y-6194950D01*
X2645458Y-6231780D01*
D11*
X11057719Y-2922993D02*
G01*
X11057719Y-2349271D01*
X11412987Y-1994004D01*
D12*
X2466086Y-549910D02*
G01*
X2787904Y-228092D01*
X3528059Y-228092D01*
X3763009Y-463042D01*
X3763009Y-631952D01*
X3562982Y-632005D02*
G01*
X2745003Y-1449984D01*
X2465984Y-1449984D01*
D13*
X1480995Y-1131745D02*
G01*
X689254Y-1131745D01*
X335998Y-1485000D01*
X335998Y-2518996D01*
X870005Y-3053003D01*
X885012Y-3053003D01*
X1480995Y-1131745D02*
G01*
X2062728Y-550011D01*
X2465984Y-550011D01*
X1480997Y-1450238D02*
G01*
X1143000Y-1788236D01*
X1143000Y-2176995D01*
X1480995Y-1450235D02*
G01*
X2465984Y-1450235D01*
X2465984Y-1449984D01*
D14*
X4858989Y-6370990D02*
G01*
X5327959Y-5902020D01*
X5541289Y-5902020D01*
D13*
X1138999Y-3052991D02*
G01*
X1138999Y-5159994D01*
X1551998Y-5572986D01*
X1551998Y-6331618D01*
X1582318Y-6361937D01*
X1143000Y-2430995D02*
G01*
X1143000Y-3049015D01*
X1139012Y-3053003D01*
D15*
X5084063Y-5004307D02*
G01*
X4889245Y-5198871D01*
X4578858Y-5198871D01*
X4409947Y-5029962D01*
X5083987Y-4685741D02*
G01*
X4415767Y-4685741D01*
X4410001Y-4679975D01*
X5083992Y-5004259D02*
G01*
X5083992Y-5444723D01*
X5541289Y-5902020D01*
D13*
X4850246Y-7428984D02*
G01*
X4858994Y-7420236D01*
X4858994Y-6370980D01*
X801997Y-6682244D02*
G01*
X1535788Y-7416035D01*
X1582305Y-7416035D01*
X272999Y-6684238D02*
G01*
X274977Y-6682259D01*
X802004Y-6682259D01*
X272999Y-6365722D02*
G01*
X274980Y-6363741D01*
X802004Y-6363741D01*
D11*
X5768726Y-3796990D02*
G01*
X5768726Y-3188279D01*
X5769990Y-3187014D01*
D15*
X5083992Y-4685741D02*
G01*
X5233568Y-4685741D01*
X5541289Y-4378020D01*
X3385814Y-6361937D02*
G01*
X3385814Y-5135115D01*
X4433056Y-4087873D01*
X5251142Y-4087873D01*
X5541289Y-4378020D01*
D13*
X4018991Y-6370980D02*
G01*
X4018991Y-6986988D01*
X4460986Y-7428984D01*
X4531730Y-7428984D01*
X4018991Y-6370980D02*
G01*
X3385715Y-6370980D01*
X3385715Y-6361937D01*
X1582315Y-6361937D02*
G01*
X1580512Y-6363741D01*
X802004Y-6363741D01*
D11*
X10321036Y-2892044D02*
G01*
X10321036Y-3487928D01*
X10317988Y-3487928D01*
D12*
X2438145Y-4844287D02*
G01*
X2973577Y-4844287D01*
X4573015Y-3245104D01*
X4573015Y-1018031D01*
X4186936Y-631952D01*
X3763009Y-631952D01*
X3562858Y-631952D02*
G01*
X3422904Y-770889D01*
X3422904Y-3732021D01*
X3072638Y-4082287D01*
X2438145Y-4082287D01*
D11*
X5795289Y-4378020D02*
G01*
X5768726Y-4351456D01*
X5768726Y-3796995D01*
D13*
X3385820Y-7416037D02*
G01*
X3385820Y-7427721D01*
X3820922Y-7863078D01*
X4658868Y-7863078D01*
X4850129Y-7671815D01*
X4850129Y-7428992D01*
D14*
X1582420Y-7416037D02*
G01*
X1582928Y-7665973D01*
X1742947Y-7825994D01*
X3153918Y-7825994D01*
X3385820Y-7594345D01*
X3385820Y-7416037D01*
X2438145Y-5161787D02*
G01*
X2438908Y-7506970D01*
X2119884Y-7825994D01*
X1742947Y-7825994D01*
D11*
X11079962Y-3487991D02*
G01*
X11057719Y-3465748D01*
X11057719Y-2922993D01*
X11612879Y-1993900D02*
G01*
X11797029Y-2178050D01*
X11797029Y-2502154D01*
X11376152Y-2923031D01*
X11333962Y-3487991D02*
G01*
X11376235Y-3445718D01*
X11376235Y-2922993D01*
X6049263Y-4377944D02*
G01*
X6049263Y-4832350D01*
X6352793Y-5135879D01*
X11115802Y-5135879D01*
X11589004Y-5608320D01*
X11589004Y-6052820D01*
X11387074Y-6253479D01*
X6366002Y-6253479D01*
X6107938Y-6512052D01*
X6107938Y-6682739D01*
X7730997Y-6697979D02*
G01*
X8183118Y-6253479D01*
X11356086Y-6253479D01*
X9334982Y-6690995D02*
G01*
X9334982Y-6497855D01*
X9578850Y-6253987D01*
X11305059Y-6253987D01*
X10866881Y-6647942D02*
G01*
X10866881Y-6545071D01*
X11158220Y-6253987D01*
X11271250Y-6253987D01*
X6049263Y-4377944D02*
G01*
X6087363Y-4340097D01*
X6087363Y-3797045D01*
X6087247Y-3796992D02*
G01*
X6087247Y-3304250D01*
X5970000Y-3187004D01*
X5970015Y-3186937D02*
G01*
X6279997Y-2876956D01*
X6279997Y-1161999D01*
X5970015Y-3186937D02*
G01*
X7681722Y-1475231D01*
X8019034Y-1137920D01*
X8092947Y-1137920D01*
X5970005Y-3187006D02*
G01*
X7509974Y-3187006D01*
X9562972Y-1134008D01*
X5970005Y-3187006D02*
G01*
X8549977Y-3187006D01*
X10596979Y-1140002D01*
X10902975Y-1140002D01*
X5970015Y-3186937D02*
G01*
X9110979Y-3186937D01*
X10771886Y-1526031D01*
X11309858Y-1526031D01*
X11612879Y-1829054D01*
X11612879Y-1993900D01*
D16*
G01*
X2465984Y-550011D03*
G01*
X2465984Y-1449984D03*
D17*
G01*
X1480997Y-1450248D03*
D18*
G01*
X1480997Y-1131747D03*
D19*
G01*
X4850241Y-7428984D03*
G01*
X4531740Y-7428984D03*
D17*
G01*
X801997Y-6682237D03*
D18*
G01*
X802004Y-6363741D03*
D20*
G01*
X4858994Y-6370980D03*
G01*
X4018991Y-6370980D03*
D17*
G01*
X5083990Y-4685741D03*
D18*
G01*
X5083987Y-5004231D03*
D21*
G01*
X5768738Y-3796992D03*
G01*
X6087239Y-3796992D03*
D19*
G01*
X11376228Y-2922993D03*
G01*
X11057727Y-2922993D03*
D17*
G01*
X273050Y-6684256D03*
D18*
G01*
X273050Y-6365747D03*
D22*
G01*
X6106998Y-6682994D03*
D23*
G01*
X6360998Y-6682994D03*
G01*
X6614998Y-6682994D03*
D22*
G01*
X7730997Y-6697979D03*
D23*
G01*
X7984997Y-6697979D03*
G01*
X8238997Y-6697979D03*
D22*
G01*
X9334982Y-6690995D03*
D23*
G01*
X9588982Y-6690995D03*
G01*
X9842982Y-6690995D03*
D22*
G01*
X10865967Y-6658990D03*
D23*
G01*
X11119967Y-6658990D03*
G01*
X11373967Y-6658990D03*
D22*
G01*
X10902975Y-1140002D03*
D23*
G01*
X11156975Y-1140002D03*
G01*
X11410975Y-1140002D03*
D22*
G01*
X9562972Y-1134008D03*
D23*
G01*
X9816972Y-1134008D03*
G01*
X10070972Y-1134008D03*
D22*
G01*
X8092973Y-1137996D03*
D23*
G01*
X8346973Y-1137996D03*
G01*
X8600973Y-1137996D03*
D22*
G01*
X6279997Y-1161999D03*
D23*
G01*
X6533997Y-1161999D03*
G01*
X6787997Y-1161999D03*
D24*
G01*
X11587977Y-3487994D03*
D15*
G01*
X11333962Y-3488004D03*
G01*
X11079962Y-3488004D03*
G01*
X10825962Y-3488004D03*
G01*
X10571962Y-3488004D03*
G01*
X10317962Y-3488004D03*
D13*
G01*
X10320985Y-2892018D03*
D25*
G01*
X10320985Y-2637993D03*
D13*
G01*
X1143000Y-2431008D03*
D25*
G01*
X1143000Y-2177008D03*
D26*
G01*
X11383289Y-5902020D03*
G01*
X10875289Y-5902020D03*
G01*
X10621289Y-5902020D03*
G01*
X11129289Y-5902020D03*
G01*
X10367289Y-5902020D03*
G01*
X11129289Y-4378020D03*
G01*
X11383289Y-4378020D03*
G01*
X10113289Y-5902020D03*
G01*
X10113289Y-4378020D03*
G01*
X10367289Y-4378020D03*
G01*
X10621289Y-4378020D03*
G01*
X10875289Y-4378020D03*
G01*
X9859289Y-5902020D03*
G01*
X9351289Y-5902020D03*
G01*
X9097289Y-5902020D03*
G01*
X8843289Y-5902020D03*
G01*
X8589289Y-5902020D03*
G01*
X8335289Y-5902020D03*
G01*
X8081289Y-5902020D03*
G01*
X7827289Y-5902020D03*
G01*
X7573289Y-5902020D03*
G01*
X7319289Y-5902020D03*
G01*
X7065289Y-5902020D03*
G01*
X6811289Y-5902020D03*
G01*
X6557289Y-5902020D03*
G01*
X6303289Y-5902020D03*
G01*
X6049289Y-5902020D03*
G01*
X5795289Y-5902020D03*
G01*
X5541289Y-5902020D03*
G01*
X5541289Y-4378020D03*
G01*
X5795289Y-4378020D03*
G01*
X6049289Y-4378020D03*
G01*
X6303289Y-4378020D03*
G01*
X6557289Y-4378020D03*
G01*
X6811289Y-4378020D03*
G01*
X7065289Y-4378020D03*
G01*
X7319289Y-4378020D03*
G01*
X7573289Y-4378020D03*
G01*
X7827289Y-4378020D03*
G01*
X8081289Y-4378020D03*
G01*
X8335289Y-4378020D03*
G01*
X8589289Y-4378020D03*
G01*
X8843289Y-4378020D03*
G01*
X9097289Y-4378020D03*
G01*
X9351289Y-4378020D03*
G01*
X9859289Y-4378020D03*
G01*
X9605289Y-4378020D03*
G01*
X9605289Y-5902020D03*
D27*
G01*
X1582293Y-7416037D03*
D28*
G01*
X1582318Y-6361937D03*
G01*
X3385718Y-7416037D03*
G01*
X3385718Y-6361937D03*
D29*
G01*
X152120Y-3764864D03*
G01*
X152120Y-5164912D03*
G01*
X2438120Y-3764864D03*
G01*
X2438120Y-5161864D03*
G01*
X2438120Y-4082364D03*
G01*
X2438120Y-4844364D03*
D30*
G01*
X3762984Y-632002D03*
D31*
G01*
X3562984Y-632002D03*
D13*
G01*
X1139012Y-3053003D03*
D25*
G01*
X885012Y-3053003D03*
D32*
G01*
X4409998Y-5029987D03*
G01*
X4409998Y-4679975D03*
D12*
G01*
X5969990Y-3187014D03*
G01*
X5769990Y-3187014D03*
G01*
X11612981Y-1994001D03*
G01*
X11412981Y-1994001D03*
M02*
